<?xml version="1.0" encoding="UTF-8"?>
<svg xmlns="http://www.w3.org/2000/svg" xmlns:xlink="http://www.w3.org/1999/xlink" width="1005.433" height="269.531" viewBox="0 0 457.015 122.514">
<defs>
<g>
<g id="glyph-0-0">
<path d="M 4.015625 -1.15625 C 4.015625 -1.46875 3.78125 -1.46875 3.6875 -1.46875 C 3.546875 -1.46875 3.359375 -1.453125 3.359375 -1.15625 C 3.328125 -0.734375 2.96875 -0.53125 2.671875 -0.53125 C 2.015625 -0.53125 2.015625 -1.015625 2.015625 -1.234375 L 2.015625 -3.265625 L 3.4375 -3.265625 C 3.5625 -3.265625 3.8125 -3.265625 3.8125 -3.5625 C 3.8125 -3.859375 3.5625 -3.859375 3.4375 -3.859375 L 2.015625 -3.859375 L 2.015625 -4.578125 C 2.015625 -4.75 2.015625 -4.953125 1.6875 -4.953125 C 1.34375 -4.953125 1.34375 -4.75 1.34375 -4.5625 L 1.34375 -3.859375 L 0.609375 -3.859375 C 0.46875 -3.859375 0.21875 -3.859375 0.21875 -3.5625 C 0.21875 -3.265625 0.46875 -3.265625 0.59375 -3.265625 L 1.34375 -3.265625 L 1.34375 -1.203125 C 1.34375 -0.265625 2 0.046875 2.625 0.046875 C 3.390625 0.046875 4.015625 -0.484375 4.015625 -1.15625 Z M 4.015625 -1.15625 "/>
</g>
<g id="glyph-0-1">
<path d="M 4.640625 -0.296875 C 4.640625 -0.578125 4.390625 -0.578125 4.25 -0.578125 C 4.125 -0.578125 3.9375 -0.578125 3.765625 -0.640625 L 3.765625 -2.53125 C 3.765625 -3.21875 3.21875 -3.921875 1.96875 -3.921875 C 1.5625 -3.921875 0.65625 -3.921875 0.65625 -3.25 C 0.65625 -3 0.859375 -2.828125 1.078125 -2.828125 C 1.21875 -2.828125 1.5 -2.890625 1.5 -3.3125 C 1.75 -3.34375 1.90625 -3.34375 1.984375 -3.34375 C 2.6875 -3.34375 3.09375 -3.046875 3.09375 -2.5 C 1.609375 -2.484375 0.421875 -2.0625 0.421875 -1.1875 C 0.421875 -0.515625 1.046875 0.046875 1.90625 0.046875 C 2.015625 0.046875 2.703125 0.046875 3.1875 -0.296875 C 3.390625 0 3.875 0 4.171875 0 C 4.421875 0 4.640625 0 4.640625 -0.296875 Z M 3.09375 -1.265625 C 3.09375 -1.046875 3.09375 -0.859375 2.75 -0.6875 C 2.421875 -0.53125 2.015625 -0.53125 1.984375 -0.53125 C 1.453125 -0.53125 1.09375 -0.828125 1.09375 -1.1875 C 1.09375 -1.625 2 -1.9375 3.09375 -1.9375 Z M 3.09375 -1.265625 "/>
</g>
<g id="glyph-0-2">
<path d="M 4.421875 -0.28125 C 4.421875 -0.578125 4.1875 -0.578125 4.046875 -0.578125 L 3.6875 -0.578125 L 2.578125 -1.984375 L 3.5625 -3.265625 L 3.921875 -3.265625 C 4.046875 -3.265625 4.296875 -3.265625 4.296875 -3.5625 C 4.296875 -3.859375 4.0625 -3.859375 3.921875 -3.859375 L 2.84375 -3.859375 C 2.71875 -3.859375 2.46875 -3.859375 2.46875 -3.5625 C 2.46875 -3.265625 2.6875 -3.265625 2.90625 -3.265625 L 2.3125 -2.4375 L 1.703125 -3.265625 C 1.90625 -3.265625 2.125 -3.265625 2.125 -3.5625 C 2.125 -3.859375 1.890625 -3.859375 1.75 -3.859375 L 0.6875 -3.859375 C 0.546875 -3.859375 0.3125 -3.859375 0.3125 -3.5625 C 0.3125 -3.265625 0.546875 -3.265625 0.6875 -3.265625 L 1.046875 -3.265625 L 2.0625 -1.984375 L 0.984375 -0.578125 L 0.640625 -0.578125 C 0.484375 -0.578125 0.265625 -0.578125 0.265625 -0.28125 C 0.265625 0 0.5 0 0.640625 0 L 1.703125 0 C 1.828125 0 2.078125 0 2.078125 -0.28125 C 2.078125 -0.578125 1.875 -0.578125 1.609375 -0.578125 L 2.3125 -1.625 L 3.046875 -0.578125 C 2.8125 -0.578125 2.59375 -0.578125 2.59375 -0.28125 C 2.59375 0 2.84375 0 2.96875 0 L 4.046875 0 C 4.171875 0 4.421875 0 4.421875 -0.28125 Z M 4.421875 -0.28125 "/>
</g>
<g id="glyph-0-3">
<path d="M 4.109375 -0.28125 C 4.109375 -0.578125 3.859375 -0.578125 3.734375 -0.578125 L 2.78125 -0.578125 L 2.78125 -3.484375 C 2.78125 -3.765625 2.71875 -3.859375 2.40625 -3.859375 L 1.125 -3.859375 C 0.984375 -3.859375 0.734375 -3.859375 0.734375 -3.5625 C 0.734375 -3.265625 0.96875 -3.265625 1.125 -3.265625 L 2.125 -3.265625 L 2.125 -0.578125 L 1.03125 -0.578125 C 0.90625 -0.578125 0.65625 -0.578125 0.65625 -0.296875 C 0.65625 0 0.90625 0 1.03125 0 L 3.734375 0 C 3.859375 0 4.109375 0 4.109375 -0.28125 Z M 2.8125 -4.96875 C 2.8125 -5.21875 2.59375 -5.421875 2.34375 -5.421875 C 2.09375 -5.421875 1.890625 -5.21875 1.890625 -4.96875 C 1.890625 -4.71875 2.09375 -4.515625 2.34375 -4.515625 C 2.59375 -4.515625 2.8125 -4.71875 2.8125 -4.96875 Z M 2.8125 -4.96875 "/>
</g>
<g id="glyph-0-4">
<path d="M 4.1875 1.015625 C 4.1875 0.671875 3.859375 0.671875 3.75 0.671875 L 0.9375 0.671875 C 0.84375 0.671875 0.5 0.671875 0.5 1 C 0.5 1.34375 0.828125 1.34375 0.9375 1.34375 L 3.75 1.34375 C 3.84375 1.34375 4.1875 1.34375 4.1875 1.015625 Z M 4.1875 1.015625 "/>
</g>
<g id="glyph-0-5">
<path d="M 4.375 -1.9375 C 4.375 -3 3.609375 -3.890625 2.609375 -3.890625 C 2.1875 -3.890625 1.8125 -3.75 1.5 -3.484375 C 1.5 -3.8125 1.390625 -3.859375 1.125 -3.859375 L 0.453125 -3.859375 C 0.328125 -3.859375 0.078125 -3.859375 0.078125 -3.5625 C 0.078125 -3.265625 0.3125 -3.265625 0.453125 -3.265625 L 0.84375 -3.265625 L 0.84375 1.40625 L 0.453125 1.40625 C 0.328125 1.40625 0.078125 1.40625 0.078125 1.6875 C 0.078125 1.984375 0.3125 1.984375 0.453125 1.984375 L 1.890625 1.984375 C 2.015625 1.984375 2.265625 1.984375 2.265625 1.703125 C 2.265625 1.40625 2.03125 1.40625 1.890625 1.40625 L 1.5 1.40625 L 1.5 -0.390625 C 1.78125 -0.109375 2.125 0.046875 2.515625 0.046875 C 3.515625 0.046875 4.375 -0.796875 4.375 -1.9375 Z M 3.71875 -1.9375 C 3.71875 -1.140625 3.140625 -0.53125 2.484375 -0.53125 C 1.84375 -0.53125 1.5 -1.265625 1.5 -1.71875 L 1.5 -2.34375 C 1.5 -2.875 2.03125 -3.3125 2.578125 -3.3125 C 3.1875 -3.3125 3.71875 -2.703125 3.71875 -1.9375 Z M 3.71875 -1.9375 "/>
</g>
<g id="glyph-0-6">
<path d="M 4.359375 -3.328125 C 4.359375 -3.5 4.25 -3.890625 3.5 -3.890625 C 3 -3.890625 2.4375 -3.6875 2 -3.203125 L 2 -3.484375 C 2 -3.765625 1.9375 -3.859375 1.625 -3.859375 L 0.625 -3.859375 C 0.484375 -3.859375 0.234375 -3.859375 0.234375 -3.5625 C 0.234375 -3.265625 0.484375 -3.265625 0.625 -3.265625 L 1.34375 -3.265625 L 1.34375 -0.578125 L 0.625 -0.578125 C 0.484375 -0.578125 0.234375 -0.578125 0.234375 -0.296875 C 0.234375 0 0.484375 0 0.625 0 L 3 0 C 3.125 0 3.375 0 3.375 -0.28125 C 3.375 -0.578125 3.125 -0.578125 3 -0.578125 L 2 -0.578125 L 2 -1.640625 C 2 -2.546875 2.59375 -3.3125 3.5625 -3.3125 C 3.59375 -2.984375 3.84375 -2.921875 3.953125 -2.921875 C 4.171875 -2.921875 4.359375 -3.078125 4.359375 -3.328125 Z M 4.359375 -3.328125 "/>
</g>
<g id="glyph-0-7">
<path d="M 4.171875 -5.859375 C 4.171875 -6.0625 4 -6.203125 3.828125 -6.203125 C 3.625 -6.203125 3.546875 -6.03125 3.5 -5.9375 L 0.59375 0.1875 C 0.515625 0.328125 0.515625 0.34375 0.515625 0.40625 C 0.515625 0.609375 0.6875 0.734375 0.84375 0.734375 C 1.0625 0.734375 1.140625 0.578125 1.1875 0.484375 L 4.09375 -5.65625 C 4.171875 -5.796875 4.171875 -5.796875 4.171875 -5.859375 Z M 4.171875 -5.859375 "/>
</g>
<g id="glyph-0-8">
<path d="M 4.609375 -0.28125 C 4.609375 -0.578125 4.375 -0.578125 4.234375 -0.578125 L 3.84375 -0.578125 L 3.84375 -2.609375 C 3.84375 -3.5 3.40625 -3.890625 2.671875 -3.890625 C 2.25 -3.890625 1.84375 -3.75 1.5 -3.453125 C 1.5 -3.703125 1.5 -3.859375 1.125 -3.859375 L 0.453125 -3.859375 C 0.328125 -3.859375 0.078125 -3.859375 0.078125 -3.5625 C 0.078125 -3.265625 0.3125 -3.265625 0.453125 -3.265625 L 0.84375 -3.265625 L 0.84375 -0.578125 L 0.453125 -0.578125 C 0.328125 -0.578125 0.078125 -0.578125 0.078125 -0.296875 C 0.078125 0 0.3125 0 0.453125 0 L 1.890625 0 C 2.015625 0 2.265625 0 2.265625 -0.28125 C 2.265625 -0.578125 2.03125 -0.578125 1.890625 -0.578125 L 1.5 -0.578125 L 1.5 -2.125 C 1.5 -3 2.1875 -3.3125 2.625 -3.3125 C 3.0625 -3.3125 3.1875 -3.09375 3.1875 -2.578125 L 3.1875 -0.578125 L 2.890625 -0.578125 C 2.765625 -0.578125 2.515625 -0.578125 2.515625 -0.296875 C 2.515625 0 2.765625 0 2.890625 0 L 4.234375 0 C 4.359375 0 4.609375 0 4.609375 -0.28125 Z M 4.609375 -0.28125 "/>
</g>
<g id="glyph-0-9">
<path d="M 4.1875 -1.9375 C 4.1875 -3.03125 3.359375 -3.921875 2.34375 -3.921875 C 1.328125 -3.921875 0.484375 -3.03125 0.484375 -1.9375 C 0.484375 -0.828125 1.34375 0.046875 2.34375 0.046875 C 3.34375 0.046875 4.1875 -0.828125 4.1875 -1.9375 Z M 3.53125 -2 C 3.53125 -1.1875 3 -0.53125 2.34375 -0.53125 C 1.6875 -0.53125 1.15625 -1.1875 1.15625 -2 C 1.15625 -2.78125 1.71875 -3.34375 2.34375 -3.34375 C 2.96875 -3.34375 3.53125 -2.78125 3.53125 -2 Z M 3.53125 -2 "/>
</g>
<g id="glyph-0-10">
<path d="M 4.359375 -3.40625 C 4.359375 -3.75 4 -3.75 3.875 -3.75 L 0.796875 -3.75 C 0.671875 -3.75 0.328125 -3.75 0.328125 -3.40625 C 0.328125 -3.078125 0.65625 -3.078125 0.75 -3.078125 L 3.9375 -3.078125 C 4.03125 -3.078125 4.359375 -3.078125 4.359375 -3.40625 Z M 4.359375 -2.0625 C 4.359375 -2.390625 4.03125 -2.390625 3.9375 -2.390625 L 0.75 -2.390625 C 0.65625 -2.390625 0.328125 -2.390625 0.328125 -2.0625 C 0.328125 -1.71875 0.671875 -1.71875 0.796875 -1.71875 L 3.875 -1.71875 C 4 -1.71875 4.359375 -1.71875 4.359375 -2.0625 Z M 4.359375 -2.0625 "/>
</g>
<g id="glyph-0-11">
<path d="M 4.21875 -0.375 L 4.21875 -0.640625 C 4.21875 -0.796875 4.21875 -1.015625 3.890625 -1.015625 C 3.5625 -1.015625 3.5625 -0.828125 3.5625 -0.578125 L 1.546875 -0.578125 C 2.015625 -0.984375 3.015625 -1.78125 3.25 -2 C 3.578125 -2.3125 4.21875 -2.90625 4.21875 -3.796875 C 4.21875 -4.859375 3.328125 -5.5625 2.21875 -5.5625 C 1.1875 -5.5625 0.46875 -4.84375 0.46875 -4.078125 C 0.46875 -3.734375 0.75 -3.640625 0.890625 -3.640625 C 1.0625 -3.640625 1.296875 -3.796875 1.296875 -4.0625 C 1.296875 -4.25 1.21875 -4.3125 1.1875 -4.359375 C 1.328125 -4.75 1.71875 -4.984375 2.1875 -4.984375 C 2.890625 -4.984375 3.5625 -4.5625 3.5625 -3.796875 C 3.5625 -3.171875 3.078125 -2.640625 2.71875 -2.34375 L 0.59375 -0.546875 C 0.53125 -0.484375 0.46875 -0.421875 0.46875 -0.296875 C 0.46875 0 0.703125 0 0.84375 0 L 3.84375 0 C 4.140625 0 4.21875 -0.078125 4.21875 -0.375 Z M 4.21875 -0.375 "/>
</g>
<g id="glyph-0-12">
<path d="M 4.25 -2.71875 C 4.25 -4.390625 3.34375 -5.5625 2.34375 -5.5625 C 1.328125 -5.5625 0.421875 -4.359375 0.421875 -2.734375 C 0.421875 -1.078125 1.34375 0.09375 2.34375 0.09375 C 3.359375 0.09375 4.25 -1.09375 4.25 -2.71875 Z M 3.59375 -2.828125 C 3.59375 -1.53125 3.03125 -0.484375 2.34375 -0.484375 C 1.640625 -0.484375 1.09375 -1.53125 1.09375 -2.828125 C 1.09375 -4.125 1.703125 -4.984375 2.34375 -4.984375 C 2.984375 -4.984375 3.59375 -4.109375 3.59375 -2.828125 Z M 3.59375 -2.828125 "/>
</g>
<g id="glyph-0-13">
<path d="M 4.421875 -1.78125 C 4.421875 -2.078125 4.1875 -2.078125 4.046875 -2.078125 L 3.390625 -2.078125 L 3.390625 -5.203125 C 3.390625 -5.5 3.3125 -5.59375 3 -5.59375 L 2.75 -5.59375 C 2.515625 -5.59375 2.46875 -5.578125 2.34375 -5.390625 L 0.34375 -2.203125 C 0.265625 -2.09375 0.265625 -2.078125 0.265625 -1.890625 C 0.265625 -1.625 0.296875 -1.5 0.640625 -1.5 L 2.84375 -1.5 L 2.84375 -0.578125 L 2.3125 -0.578125 C 2.1875 -0.578125 1.9375 -0.578125 1.9375 -0.296875 C 1.9375 0 2.1875 0 2.3125 0 L 3.921875 0 C 4.046875 0 4.296875 0 4.296875 -0.28125 C 4.296875 -0.578125 4.0625 -0.578125 3.921875 -0.578125 L 3.390625 -0.578125 L 3.390625 -1.5 L 4.046875 -1.5 C 4.171875 -1.5 4.421875 -1.5 4.421875 -1.78125 Z M 2.84375 -2.078125 L 0.921875 -2.078125 L 2.84375 -5.125 Z M 2.84375 -2.078125 "/>
</g>
<g id="glyph-0-14">
<path d="M 4.609375 -0.28125 C 4.609375 -0.578125 4.421875 -0.578125 4.109375 -0.578125 L 4.109375 -2.703125 C 4.109375 -2.890625 4.109375 -3.890625 3.3125 -3.890625 C 3.21875 -3.890625 2.78125 -3.890625 2.421875 -3.453125 C 2.40625 -3.484375 2.234375 -3.890625 1.75 -3.890625 C 1.546875 -3.890625 1.25 -3.828125 0.984375 -3.59375 C 0.953125 -3.859375 0.78125 -3.859375 0.609375 -3.859375 L 0.328125 -3.859375 C 0.1875 -3.859375 -0.046875 -3.859375 -0.046875 -3.5625 C -0.046875 -3.265625 0.140625 -3.265625 0.453125 -3.265625 L 0.453125 -0.578125 C 0.140625 -0.578125 -0.046875 -0.578125 -0.046875 -0.28125 C -0.046875 0 0.1875 0 0.328125 0 L 1.125 0 C 1.265625 0 1.5 0 1.5 -0.28125 C 1.5 -0.578125 1.3125 -0.578125 0.984375 -0.578125 L 0.984375 -2.15625 C 0.984375 -2.90625 1.359375 -3.3125 1.71875 -3.3125 C 1.890625 -3.3125 2.015625 -3.1875 2.015625 -2.640625 L 2.015625 -0.578125 C 1.9375 -0.578125 1.671875 -0.578125 1.671875 -0.296875 C 1.671875 0 1.90625 0 2.046875 0 L 2.6875 0 C 2.8125 0 3.0625 0 3.0625 -0.28125 C 3.0625 -0.578125 2.859375 -0.578125 2.546875 -0.578125 L 2.546875 -2.15625 C 2.546875 -2.90625 2.90625 -3.3125 3.265625 -3.3125 C 3.453125 -3.3125 3.5625 -3.1875 3.5625 -2.640625 L 3.5625 -0.578125 C 3.484375 -0.578125 3.21875 -0.578125 3.21875 -0.296875 C 3.21875 0 3.46875 0 3.609375 0 L 4.234375 0 C 4.375 0 4.609375 0 4.609375 -0.28125 Z M 4.609375 -0.28125 "/>
</g>
<g id="glyph-0-15">
<path d="M 4.140625 -0.96875 C 4.140625 -1.15625 4.015625 -1.25 3.8125 -1.25 C 3.6875 -1.25 3.578125 -1.25 3.5 -1.046875 C 3.28125 -0.53125 2.703125 -0.53125 2.609375 -0.53125 C 2.09375 -0.53125 1.34375 -0.84375 1.15625 -1.6875 L 3.765625 -1.6875 C 3.953125 -1.6875 4.140625 -1.6875 4.140625 -2.03125 C 4.140625 -3.0625 3.5625 -3.921875 2.40625 -3.921875 C 1.328125 -3.921875 0.46875 -3.015625 0.46875 -1.953125 C 0.46875 -0.84375 1.40625 0.046875 2.546875 0.046875 C 3.75 0.046875 4.140625 -0.765625 4.140625 -0.96875 Z M 3.46875 -2.265625 L 1.171875 -2.265625 C 1.34375 -3 1.90625 -3.34375 2.40625 -3.34375 C 3.03125 -3.34375 3.40625 -2.9375 3.46875 -2.265625 Z M 3.46875 -2.265625 "/>
</g>
<g id="glyph-0-16">
<path d="M 4.109375 -1.125 C 4.109375 -1.5625 3.828125 -1.84375 3.609375 -1.96875 C 3.25 -2.203125 3.03125 -2.25 2.1875 -2.375 C 1.8125 -2.4375 1.21875 -2.53125 1.21875 -2.859375 C 1.21875 -3.09375 1.515625 -3.34375 2.328125 -3.34375 C 3.140625 -3.34375 3.15625 -3.03125 3.171875 -2.84375 C 3.1875 -2.59375 3.4375 -2.59375 3.5 -2.59375 C 3.828125 -2.59375 3.828125 -2.796875 3.828125 -2.96875 L 3.828125 -3.546875 C 3.828125 -3.6875 3.828125 -3.921875 3.546875 -3.921875 C 3.34375 -3.921875 3.296875 -3.8125 3.265625 -3.75 C 2.9375 -3.921875 2.5 -3.921875 2.34375 -3.921875 C 0.78125 -3.921875 0.640625 -3.109375 0.640625 -2.859375 C 0.640625 -2.390625 1 -2.171875 1.109375 -2.09375 C 1.40625 -1.90625 1.65625 -1.875 2.578125 -1.71875 C 2.8125 -1.6875 3.515625 -1.578125 3.515625 -1.125 C 3.515625 -0.84375 3.265625 -0.53125 2.40625 -0.53125 C 1.859375 -0.53125 1.5 -0.71875 1.328125 -1.25 C 1.265625 -1.4375 1.21875 -1.53125 0.96875 -1.53125 C 0.640625 -1.53125 0.640625 -1.328125 0.640625 -1.140625 L 0.640625 -0.328125 C 0.640625 -0.203125 0.640625 0.046875 0.921875 0.046875 C 1.0625 0.046875 1.1875 -0.015625 1.265625 -0.265625 C 1.703125 0.046875 2.21875 0.046875 2.40625 0.046875 C 3.890625 0.046875 4.109375 -0.78125 4.109375 -1.125 Z M 4.109375 -1.125 "/>
</g>
<g id="glyph-0-17">
<path d="M 3.984375 -0.28125 C 3.984375 -0.578125 3.75 -0.578125 3.609375 -0.578125 L 2.8125 -0.578125 L 2.8125 -5.1875 C 2.8125 -5.3125 2.8125 -5.5625 2.515625 -5.5625 C 2.375 -5.5625 2.296875 -5.484375 2.25 -5.359375 C 1.96875 -4.734375 1.609375 -4.5 1.25 -4.46875 C 1.125 -4.453125 0.921875 -4.4375 0.921875 -4.171875 C 0.921875 -4 1.015625 -3.890625 1.234375 -3.890625 C 1.59375 -3.890625 1.9375 -4.078125 2.140625 -4.25 L 2.140625 -0.578125 L 1.34375 -0.578125 C 1.203125 -0.578125 0.96875 -0.578125 0.96875 -0.28125 C 0.96875 0 1.21875 0 1.34375 0 L 3.609375 0 C 3.734375 0 3.984375 0 3.984375 -0.28125 Z M 3.984375 -0.28125 "/>
</g>
<g id="glyph-0-18">
<path d="M 4.296875 -1.5625 C 4.296875 -2.296875 3.734375 -2.796875 3.3125 -2.984375 C 3.96875 -3.453125 4.03125 -4.046875 4.03125 -4.28125 C 4.03125 -4.96875 3.359375 -5.5625 2.34375 -5.5625 C 1.25 -5.5625 0.65625 -5.125 0.65625 -4.515625 C 0.65625 -4.25 0.84375 -4.078125 1.078125 -4.078125 C 1.296875 -4.078125 1.484375 -4.265625 1.484375 -4.5 C 1.484375 -4.578125 1.453125 -4.671875 1.40625 -4.734375 C 1.703125 -4.984375 2.28125 -4.984375 2.34375 -4.984375 C 2.96875 -4.984375 3.375 -4.640625 3.375 -4.28125 C 3.375 -4.03125 3.25 -3.671875 2.90625 -3.4375 C 2.671875 -3.28125 2.515625 -3.28125 2.09375 -3.25 C 1.75 -3.234375 1.5625 -3.21875 1.5625 -2.953125 C 1.5625 -2.65625 1.8125 -2.65625 1.9375 -2.65625 L 2.3125 -2.65625 C 3.234375 -2.65625 3.625 -2.03125 3.625 -1.578125 C 3.625 -1.015625 3.125 -0.484375 2.34375 -0.484375 C 2.125 -0.484375 1.4375 -0.515625 1.125 -0.953125 L 1.140625 -0.96875 C 1.203125 -1.046875 1.203125 -1.078125 1.21875 -1.15625 C 1.21875 -1.15625 1.21875 -1.1875 1.21875 -1.21875 C 1.21875 -1.453125 1.046875 -1.640625 0.8125 -1.640625 C 0.59375 -1.640625 0.390625 -1.5 0.390625 -1.203125 C 0.390625 -0.40625 1.234375 0.09375 2.34375 0.09375 C 3.515625 0.09375 4.296875 -0.71875 4.296875 -1.5625 Z M 4.296875 -1.5625 "/>
</g>
<g id="glyph-1-0">
<path d="M 1.75 -0.484375 C 1.75 -0.734375 1.53125 -0.96875 1.265625 -0.96875 C 1 -0.96875 0.78125 -0.734375 0.78125 -0.484375 C 0.78125 -0.21875 1 0 1.265625 0 C 1.53125 0 1.75 -0.21875 1.75 -0.484375 Z M 1.75 -0.484375 "/>
</g>
<g id="glyph-2-0">
<path d="M 4.53125 -4.3125 C 4.53125 -4.640625 4.265625 -4.890625 3.609375 -4.890625 C 2.796875 -4.890625 2.6875 -4.359375 2.625 -3.984375 C 2.5625 -3.71875 2.609375 -3.875 2.515625 -3.421875 L 1.984375 -3.421875 C 1.859375 -3.421875 1.65625 -3.421875 1.65625 -3.15625 C 1.65625 -2.9375 1.875 -2.9375 1.96875 -2.9375 L 2.4375 -2.9375 L 1.984375 -0.359375 C 1.828125 0.5625 1.609375 1.328125 1.234375 1.328125 C 1.140625 1.328125 1.09375 1.3125 1.03125 1.296875 C 1.0625 1.25 1.078125 1.234375 1.078125 1.109375 C 1.078125 0.875 0.890625 0.796875 0.75 0.796875 C 0.53125 0.796875 0.359375 1 0.359375 1.234375 C 0.359375 1.59375 0.703125 1.8125 1.21875 1.8125 C 1.8125 1.8125 2.140625 1.1875 2.21875 0.953125 C 2.34375 0.625 2.421875 0.265625 2.5 -0.09375 L 3 -2.9375 L 3.6875 -2.9375 C 3.78125 -2.9375 4.015625 -2.9375 4.015625 -3.203125 C 4.015625 -3.421875 3.796875 -3.421875 3.6875 -3.421875 L 3.078125 -3.421875 C 3.109375 -3.640625 3.171875 -3.96875 3.203125 -4.078125 C 3.25 -4.28125 3.28125 -4.40625 3.59375 -4.40625 C 3.625 -4.40625 3.84375 -4.40625 3.84375 -4.375 C 3.84375 -4.34375 3.8125 -4.296875 3.8125 -4.203125 C 3.8125 -4.015625 3.953125 -3.875 4.140625 -3.875 C 4.34375 -3.875 4.53125 -4.046875 4.53125 -4.3125 Z M 4.53125 -4.3125 "/>
</g>
<g id="glyph-2-1">
<path d="M 3.890625 -1.140625 C 3.890625 -1.171875 3.875 -1.359375 3.609375 -1.359375 C 3.390625 -1.359375 3.359375 -1.25 3.328125 -1.15625 C 3.203125 -0.6875 2.875 -0.4375 2.640625 -0.4375 C 2.53125 -0.4375 2.40625 -0.484375 2.40625 -0.65625 C 2.40625 -0.703125 2.515625 -0.984375 2.578125 -1.15625 L 2.828125 -1.796875 L 3.03125 -2.265625 C 3.15625 -2.59375 3.171875 -2.640625 3.171875 -2.765625 C 3.171875 -3.1875 2.828125 -3.46875 2.390625 -3.46875 C 1.59375 -3.46875 1.140625 -2.546875 1.140625 -2.28125 C 1.140625 -2.21875 1.171875 -2.0625 1.40625 -2.0625 C 1.609375 -2.0625 1.640625 -2.140625 1.6875 -2.25 C 1.875 -2.84375 2.21875 -2.984375 2.375 -2.984375 C 2.53125 -2.984375 2.625 -2.90625 2.625 -2.765625 C 2.625 -2.703125 2.59375 -2.625 2.578125 -2.609375 L 1.921875 -0.96875 C 1.875 -0.859375 1.859375 -0.8125 1.859375 -0.65625 C 1.859375 -0.234375 2.203125 0.046875 2.625 0.046875 C 3.4375 0.046875 3.890625 -0.890625 3.890625 -1.140625 Z M 3.546875 -4.4375 C 3.546875 -4.640625 3.390625 -4.765625 3.21875 -4.765625 C 3 -4.765625 2.828125 -4.5625 2.828125 -4.375 C 2.828125 -4.234375 2.9375 -4.0625 3.15625 -4.0625 C 3.328125 -4.0625 3.546875 -4.203125 3.546875 -4.4375 Z M 3.546875 -4.4375 "/>
</g>
<g id="glyph-2-2">
<path d="M 3.796875 -1.140625 C 3.796875 -1.171875 3.796875 -1.359375 3.53125 -1.359375 C 3.328125 -1.359375 3.28125 -1.265625 3.25 -1.15625 C 3.203125 -0.984375 3.046875 -0.4375 2.703125 -0.4375 C 2.65625 -0.4375 2.265625 -0.453125 2.265625 -0.734375 C 2.265625 -0.765625 2.265625 -0.78125 2.296875 -0.890625 L 3.203125 -4.5 C 3.21875 -4.53125 3.234375 -4.578125 3.234375 -4.625 C 3.234375 -4.84375 3.015625 -4.84375 2.90625 -4.84375 L 1.890625 -4.84375 C 1.78125 -4.84375 1.5625 -4.84375 1.5625 -4.59375 C 1.5625 -4.359375 1.78125 -4.359375 1.875 -4.359375 L 2.609375 -4.359375 L 1.75 -0.953125 C 1.71875 -0.828125 1.71875 -0.765625 1.71875 -0.71875 C 1.71875 -0.171875 2.28125 0.046875 2.703125 0.046875 C 3.515625 0.046875 3.796875 -1.015625 3.796875 -1.140625 Z M 3.796875 -1.140625 "/>
</g>
<g id="glyph-2-3">
<path d="M 3.921875 -1.140625 C 3.921875 -1.171875 3.90625 -1.359375 3.640625 -1.359375 C 3.453125 -1.359375 3.421875 -1.28125 3.359375 -1.140625 C 3.1875 -0.765625 2.84375 -0.4375 2.5 -0.4375 C 2.375 -0.4375 2.203125 -0.484375 2.203125 -0.703125 C 2.203125 -0.75 2.203125 -0.765625 2.234375 -0.890625 L 2.75 -2.9375 L 3.484375 -2.9375 C 3.609375 -2.9375 3.8125 -2.9375 3.8125 -3.203125 C 3.8125 -3.421875 3.59375 -3.421875 3.5 -3.421875 L 2.875 -3.421875 L 3.140625 -4.484375 C 3.171875 -4.59375 3.171875 -4.609375 3.171875 -4.640625 C 3.171875 -4.78125 3.046875 -4.890625 2.90625 -4.890625 C 2.671875 -4.890625 2.625 -4.6875 2.609375 -4.609375 L 2.3125 -3.421875 L 1.578125 -3.421875 C 1.46875 -3.421875 1.234375 -3.421875 1.234375 -3.15625 C 1.234375 -2.9375 1.453125 -2.9375 1.5625 -2.9375 L 2.1875 -2.9375 L 1.65625 -0.703125 C 1.65625 -0.296875 1.96875 0.046875 2.484375 0.046875 C 3.359375 0.046875 3.921875 -0.921875 3.921875 -1.140625 Z M 3.921875 -1.140625 "/>
</g>
<g id="glyph-2-4">
<path d="M 4.203125 -0.59375 C 4.203125 -0.71875 4.046875 -0.875 3.921875 -0.875 C 3.828125 -0.875 3.78125 -0.828125 3.75 -0.796875 C 3.59375 -0.65625 3.328125 -0.4375 2.453125 -0.4375 C 2.296875 -0.4375 1.640625 -0.4375 1.640625 -1.296875 C 1.640625 -1.5 1.65625 -1.5 1.796875 -1.5 L 2.0625 -1.5 C 2.625 -1.5 3.109375 -1.578125 3.40625 -1.703125 C 4.046875 -1.96875 4.09375 -2.46875 4.09375 -2.640625 C 4.09375 -3.109375 3.6875 -3.46875 3.109375 -3.46875 C 2.125 -3.46875 1.09375 -2.453125 1.09375 -1.3125 C 1.09375 -0.84375 1.25 -0.53125 1.46875 -0.3125 C 1.828125 0.046875 2.1875 0.046875 2.484375 0.046875 C 2.765625 0.046875 3.171875 0.046875 3.515625 -0.078125 C 3.640625 -0.109375 4.203125 -0.328125 4.203125 -0.59375 Z M 3.546875 -2.640625 C 3.546875 -2.078125 2.71875 -1.984375 2.03125 -1.984375 L 1.796875 -1.984375 C 2.078125 -2.609375 2.640625 -2.984375 3.09375 -2.984375 C 3.359375 -2.984375 3.546875 -2.84375 3.546875 -2.640625 Z M 3.546875 -2.640625 "/>
</g>
<g id="glyph-2-5">
<path d="M 4.59375 -2.671875 C 4.59375 -3.203125 4.03125 -3.46875 3.453125 -3.46875 C 3.3125 -3.46875 2.859375 -3.46875 2.421875 -3.015625 C 2.328125 -3.25 2.0625 -3.46875 1.703125 -3.46875 C 0.9375 -3.46875 0.75 -2.3125 0.75 -2.28125 C 0.75 -2.21875 0.78125 -2.0625 1.015625 -2.0625 C 1.25 -2.0625 1.265625 -2.15625 1.3125 -2.328125 C 1.390625 -2.625 1.46875 -2.984375 1.703125 -2.984375 C 1.765625 -2.984375 1.921875 -2.953125 1.921875 -2.734375 C 1.921875 -2.6875 1.921875 -2.671875 1.890625 -2.546875 L 1.359375 -0.375 C 1.328125 -0.25 1.328125 -0.234375 1.328125 -0.21875 C 1.328125 -0.0625 1.453125 0.046875 1.59375 0.046875 C 1.8125 0.046875 1.84375 -0.09375 1.9375 -0.484375 C 2.15625 -1.34375 2.359375 -1.921875 2.578125 -2.328125 C 2.78125 -2.6875 3.046875 -2.984375 3.4375 -2.984375 C 3.546875 -2.984375 3.84375 -2.96875 4.015625 -2.796875 C 3.953125 -2.75 3.859375 -2.6875 3.859375 -2.5 C 3.859375 -2.296875 4.015625 -2.171875 4.1875 -2.171875 C 4.328125 -2.171875 4.59375 -2.265625 4.59375 -2.671875 Z M 4.59375 -2.671875 "/>
</g>
<g id="glyph-2-6">
<path d="M 3.375 0.421875 C 3.375 0.3125 3.296875 0.265625 3.265625 0.25 C 3.0625 0.078125 2.421875 -0.40625 2.421875 -1.578125 C 2.421875 -2.71875 3.109375 -4.1875 4.609375 -5.046875 C 4.71875 -5.125 4.796875 -5.15625 4.796875 -5.28125 C 4.796875 -5.34375 4.765625 -5.515625 4.5625 -5.515625 C 4.203125 -5.515625 1.875 -3.984375 1.875 -1.609375 C 1.875 -1.140625 2 -0.625 2.265625 -0.15625 C 2.46875 0.171875 2.890625 0.65625 3.125 0.65625 C 3.328125 0.65625 3.375 0.484375 3.375 0.421875 Z M 3.375 0.421875 "/>
</g>
<g id="glyph-2-7">
<path d="M 4.3125 -0.265625 C 4.3125 -0.375 4.234375 -0.46875 4.109375 -0.484375 C 4.0625 -0.484375 4.015625 -0.484375 4.015625 -0.640625 C 4.015625 -0.828125 4.078125 -1.015625 4.203125 -1.359375 C 4.359375 -1.796875 4.53125 -2.296875 4.53125 -2.703125 C 4.53125 -3.25 4.203125 -3.46875 3.875 -3.46875 C 3.5 -3.46875 3.203125 -3.265625 2.96875 -3 C 2.9375 -3.125 2.78125 -3.46875 2.34375 -3.46875 C 2.03125 -3.46875 1.796875 -3.3125 1.65625 -3.203125 C 1.640625 -3.390625 1.484375 -3.421875 1.4375 -3.421875 C 1.265625 -3.421875 1.21875 -3.265625 1.203125 -3.171875 L 0.875 -1.890625 C 0.875 -1.890625 0.875 -1.875 0.8125 -1.65625 C 0.640625 -1.140625 0.40625 -0.234375 0.40625 -0.171875 C 0.40625 0.046875 0.640625 0.046875 0.6875 0.046875 C 0.90625 0.046875 0.90625 0 1.03125 -0.4375 C 1.21875 -1.203125 1.65625 -2.984375 2.34375 -2.984375 C 2.53125 -2.984375 2.5625 -2.84375 2.5625 -2.671875 C 2.5625 -2.40625 2.375 -1.796875 2.34375 -1.6875 C 2.15625 -1.140625 1.921875 -0.234375 1.921875 -0.171875 C 1.921875 0.046875 2.15625 0.046875 2.203125 0.046875 C 2.421875 0.046875 2.4375 0 2.546875 -0.4375 C 2.734375 -1.203125 3.1875 -2.984375 3.859375 -2.984375 C 4.046875 -2.984375 4.078125 -2.84375 4.078125 -2.671875 C 4.078125 -2.40625 3.984375 -2.046875 3.71875 -1.296875 C 3.578125 -0.921875 3.5625 -0.75 3.5625 -0.609375 C 3.5625 0 4.03125 0 4.0625 0 C 4.265625 0 4.3125 -0.1875 4.3125 -0.265625 Z M 4.3125 -0.265625 "/>
</g>
<g id="glyph-2-8">
<path d="M 3.84375 -1.15625 C 3.84375 -1.84375 3.046875 -2 2.671875 -2.0625 C 2.234375 -2.140625 1.9375 -2.1875 1.9375 -2.421875 C 1.9375 -2.5 2 -2.71875 2.25 -2.859375 C 2.5 -2.984375 2.796875 -2.984375 2.875 -2.984375 C 2.984375 -2.984375 3.234375 -2.984375 3.40625 -2.859375 C 3.359375 -2.8125 3.328125 -2.71875 3.328125 -2.640625 C 3.328125 -2.375 3.5625 -2.328125 3.640625 -2.328125 C 3.796875 -2.328125 4.015625 -2.453125 4.015625 -2.78125 C 4.015625 -3.1875 3.640625 -3.46875 2.890625 -3.46875 C 1.734375 -3.46875 1.453125 -2.75 1.453125 -2.40625 C 1.453125 -2.234375 1.53125 -2.03125 1.734375 -1.859375 C 1.953125 -1.703125 2.09375 -1.671875 2.65625 -1.578125 C 2.890625 -1.53125 3.359375 -1.4375 3.359375 -1.140625 C 3.359375 -1.015625 3.25 -0.75 2.984375 -0.609375 C 2.703125 -0.453125 2.375 -0.4375 2.140625 -0.4375 C 2.046875 -0.4375 1.609375 -0.4375 1.390625 -0.609375 C 1.40625 -0.625 1.515625 -0.75 1.515625 -0.890625 C 1.515625 -1.015625 1.421875 -1.203125 1.1875 -1.203125 C 1.0625 -1.203125 0.78125 -1.140625 0.78125 -0.71875 C 0.78125 0.046875 1.859375 0.046875 2.125 0.046875 C 2.34375 0.046875 2.84375 0.046875 3.28125 -0.21875 C 3.625 -0.4375 3.84375 -0.8125 3.84375 -1.15625 Z M 3.84375 -1.15625 "/>
</g>
<g id="glyph-2-9">
<path d="M 4.625 -3.03125 C 4.625 -3.3125 4.34375 -3.3125 4.21875 -3.3125 L 1.453125 -3.3125 C 1.359375 -3.3125 1.0625 -3.3125 1.0625 -3.03125 C 1.0625 -2.75 1.328125 -2.75 1.40625 -2.75 L 4.265625 -2.75 C 4.375 -2.75 4.625 -2.75 4.625 -3.03125 Z M 4.328125 -1.828125 C 4.328125 -2.109375 4.0625 -2.109375 3.96875 -2.109375 L 1.109375 -2.109375 C 1.015625 -2.109375 0.765625 -2.109375 0.765625 -1.828125 C 0.765625 -1.546875 1.046875 -1.546875 1.171875 -1.546875 L 3.921875 -1.546875 C 4.03125 -1.546875 4.328125 -1.546875 4.328125 -1.828125 Z M 4.328125 -1.828125 "/>
</g>
<g id="glyph-2-10">
<path d="M 4.640625 -3.8125 C 4.640625 -4.421875 4.125 -4.9375 3.25 -4.9375 C 2.015625 -4.9375 1.40625 -4.171875 1.40625 -3.796875 C 1.40625 -3.6875 1.484375 -3.578125 1.6875 -3.578125 C 1.890625 -3.578125 1.921875 -3.65625 1.96875 -3.78125 C 2.15625 -4.296875 2.859375 -4.453125 3.234375 -4.453125 C 3.78125 -4.453125 4.09375 -4.171875 4.09375 -3.8125 C 4.09375 -3.390625 3.5625 -2.765625 2.65625 -2.765625 L 2.34375 -2.765625 C 2.234375 -2.765625 2.03125 -2.765625 2.03125 -2.515625 C 2.03125 -2.28125 2.25 -2.28125 2.359375 -2.28125 L 2.671875 -2.28125 C 3.34375 -2.28125 3.5 -1.8125 3.5 -1.53125 C 3.5 -0.703125 2.484375 -0.390625 1.90625 -0.390625 C 1.328125 -0.390625 1.171875 -0.75 1.171875 -0.828125 C 1.171875 -0.828125 1.171875 -0.859375 1.203125 -0.875 C 1.34375 -1 1.34375 -1.171875 1.34375 -1.171875 C 1.34375 -1.3125 1.25 -1.5 1.015625 -1.5 C 0.671875 -1.5 0.609375 -1.15625 0.609375 -0.9375 C 0.609375 -0.296875 1.171875 0.09375 1.90625 0.09375 C 2.765625 0.09375 4.046875 -0.40625 4.046875 -1.515625 C 4.046875 -2.078125 3.734375 -2.34375 3.609375 -2.46875 C 4.296875 -2.796875 4.640625 -3.34375 4.640625 -3.8125 Z M 4.640625 -3.8125 "/>
</g>
<g id="glyph-2-11">
<path d="M 3.515625 -3.25 C 3.515625 -3.71875 3.390625 -4.234375 3.125 -4.703125 C 2.921875 -5.03125 2.5 -5.515625 2.265625 -5.515625 C 2.109375 -5.515625 2.03125 -5.390625 2.03125 -5.28125 C 2.03125 -5.1875 2.0625 -5.15625 2.1875 -5.046875 C 2.75 -4.59375 2.953125 -3.9375 2.953125 -3.28125 C 2.953125 -2.15625 2.296875 -0.6875 0.78125 0.1875 C 0.671875 0.265625 0.59375 0.296875 0.59375 0.421875 C 0.59375 0.546875 0.671875 0.65625 0.828125 0.65625 C 1.1875 0.65625 3.515625 -0.875 3.515625 -3.25 Z M 3.515625 -3.25 "/>
</g>
<g id="glyph-3-0">
<path d="M 4.484375 -1.140625 C 4.484375 -1.234375 4.375 -1.234375 4.328125 -1.234375 C 4.203125 -1.234375 4.203125 -1.21875 4.15625 -1.015625 C 4 -0.40625 3.828125 -0.140625 3.625 -0.140625 C 3.390625 -0.140625 3.390625 -0.390625 3.390625 -0.484375 C 3.390625 -0.546875 3.390625 -0.625 3.421875 -0.71875 L 3.984375 -2.953125 C 3.984375 -3 4.015625 -3.09375 4.015625 -3.125 C 4.015625 -3.25 3.90625 -3.34375 3.765625 -3.34375 C 3.65625 -3.34375 3.484375 -3.28125 3.4375 -3.0625 C 3.28125 -3.328125 3.046875 -3.5 2.71875 -3.5 C 1.78125 -3.5 0.8125 -2.328125 0.8125 -1.1875 C 0.8125 -0.421875 1.265625 0.078125 1.859375 0.078125 C 2.328125 0.078125 2.71875 -0.265625 2.890625 -0.453125 C 2.953125 -0.171875 3.21875 0.078125 3.609375 0.078125 C 3.890625 0.078125 4.078125 -0.09375 4.21875 -0.34375 C 4.375 -0.65625 4.484375 -1.140625 4.484375 -1.140625 Z M 2.9375 -1.0625 C 2.875 -0.78125 2.359375 -0.140625 1.890625 -0.140625 C 1.515625 -0.140625 1.390625 -0.546875 1.390625 -0.859375 C 1.390625 -1.234375 1.625 -2.171875 1.828125 -2.546875 C 2.140625 -3.125 2.5 -3.28125 2.71875 -3.28125 C 3.21875 -3.28125 3.296875 -2.609375 3.296875 -2.53125 L 3.28125 -2.40625 Z M 2.9375 -1.0625 "/>
</g>
<g id="glyph-3-1">
<path d="M 3.859375 -2.234375 C 3.859375 -3.09375 3.328125 -3.5 2.8125 -3.5 C 2.4375 -3.5 2.140625 -3.28125 1.921875 -3.09375 L 2.46875 -5.28125 C 2.46875 -5.3125 2.5 -5.359375 2.5 -5.390625 C 2.5 -5.515625 2.359375 -5.515625 2.28125 -5.5 L 1.453125 -5.421875 C 1.34375 -5.421875 1.25 -5.40625 1.25 -5.265625 C 1.25 -5.15625 1.34375 -5.15625 1.453125 -5.15625 C 1.84375 -5.15625 1.84375 -5.109375 1.84375 -5.046875 C 1.84375 -5 1.8125 -4.90625 1.8125 -4.859375 L 1.03125 -1.765625 C 1.03125 -1.75 0.953125 -1.453125 0.953125 -1.171875 C 0.953125 -0.421875 1.359375 0.078125 1.953125 0.078125 C 2.875 0.078125 3.859375 -1.046875 3.859375 -2.234375 Z M 2.890625 -0.9375 C 2.640625 -0.421875 2.265625 -0.140625 1.96875 -0.140625 C 1.59375 -0.140625 1.4375 -0.546875 1.4375 -0.921875 C 1.4375 -1.234375 1.53125 -1.578125 1.734375 -2.34375 C 1.796875 -2.59375 1.953125 -2.78125 2.140625 -2.953125 C 2.234375 -3.046875 2.5 -3.28125 2.796875 -3.28125 C 3.03125 -3.28125 3.28125 -3.09375 3.28125 -2.546875 C 3.28125 -2.125 3.046875 -1.28125 2.890625 -0.9375 Z M 2.890625 -0.9375 "/>
</g>
<g id="glyph-3-2">
<path d="M 4.09375 -2.953125 C 4.09375 -3.40625 3.515625 -3.5 3.25 -3.5 C 2.78125 -3.5 2.453125 -3.25 2.234375 -2.953125 C 2.15625 -3.25 1.890625 -3.5 1.515625 -3.5 C 1.25 -3.5 1.0625 -3.34375 0.890625 -3.078125 C 0.75 -2.796875 0.640625 -2.328125 0.640625 -2.28125 C 0.640625 -2.1875 0.734375 -2.1875 0.78125 -2.1875 C 0.90625 -2.1875 0.921875 -2.203125 0.96875 -2.390625 C 1.09375 -2.859375 1.234375 -3.28125 1.5 -3.28125 C 1.71875 -3.28125 1.71875 -3 1.71875 -2.921875 C 1.71875 -2.8125 1.703125 -2.6875 1.671875 -2.578125 L 1.09375 -0.265625 C 1.078125 -0.1875 1.078125 -0.171875 1.078125 -0.140625 C 1.078125 -0.015625 1.171875 0.078125 1.3125 0.078125 C 1.53125 0.078125 1.609375 -0.109375 1.640625 -0.234375 L 2.125 -2.171875 C 2.15625 -2.28125 2.53125 -3.28125 3.234375 -3.28125 C 3.3125 -3.28125 3.53125 -3.265625 3.6875 -3.15625 C 3.421875 -3.0625 3.40625 -2.84375 3.40625 -2.78125 C 3.40625 -2.5625 3.59375 -2.515625 3.6875 -2.515625 C 3.84375 -2.515625 4.09375 -2.625 4.09375 -2.953125 Z M 4.09375 -2.953125 "/>
</g>
<g id="glyph-3-3">
<path d="M 3.984375 -0.796875 C 3.984375 -0.859375 3.875 -0.953125 3.828125 -0.953125 C 3.78125 -0.953125 3.765625 -0.9375 3.703125 -0.859375 C 3.265625 -0.34375 2.640625 -0.140625 2.203125 -0.140625 C 1.65625 -0.140625 1.53125 -0.6875 1.53125 -1.046875 C 1.53125 -1.234375 1.59375 -1.578125 1.640625 -1.8125 L 2.09375 -1.8125 C 2.40625 -1.8125 3.890625 -1.8125 3.890625 -2.8125 C 3.890625 -3.203125 3.546875 -3.5 3.015625 -3.5 C 2.15625 -3.5 0.9375 -2.75 0.9375 -1.34375 C 0.9375 -0.625 1.359375 0.078125 2.203125 0.078125 C 3.34375 0.078125 3.984375 -0.6875 3.984375 -0.796875 Z M 3.546875 -2.8125 C 3.546875 -2.03125 2.328125 -2.03125 2.03125 -2.03125 L 1.703125 -2.03125 C 1.96875 -3.015625 2.65625 -3.28125 3.015625 -3.28125 C 3.28125 -3.28125 3.546875 -3.125 3.546875 -2.8125 Z M 3.546875 -2.8125 "/>
</g>
<g id="glyph-3-4">
<path d="M 3.328125 -1.234375 C 3.328125 -1.9375 2.625 -2.09375 2.359375 -2.140625 C 2.015625 -2.21875 1.75 -2.265625 1.75 -2.59375 C 1.75 -2.8125 1.9375 -3.28125 2.5625 -3.28125 C 2.8125 -3.28125 3.09375 -3.1875 3.1875 -2.9375 C 2.90625 -2.875 2.90625 -2.625 2.90625 -2.625 C 2.90625 -2.46875 3.015625 -2.375 3.15625 -2.375 C 3.1875 -2.375 3.5 -2.375 3.5 -2.8125 C 3.5 -3.28125 3.03125 -3.5 2.578125 -3.5 C 1.515625 -3.5 1.25 -2.640625 1.25 -2.328125 C 1.25 -2.125 1.34375 -1.90625 1.515625 -1.765625 C 1.6875 -1.625 1.765625 -1.609375 2.234375 -1.5 C 2.40625 -1.46875 2.828125 -1.375 2.828125 -0.96875 C 2.828125 -0.734375 2.625 -0.140625 1.75 -0.140625 C 1.59375 -0.140625 1.125 -0.171875 0.953125 -0.53125 C 1.3125 -0.59375 1.3125 -0.890625 1.3125 -0.921875 C 1.3125 -1.078125 1.203125 -1.1875 1.03125 -1.1875 C 0.8125 -1.1875 0.625 -1.03125 0.625 -0.6875 C 0.625 -0.25 1.0625 0.078125 1.75 0.078125 C 3 0.078125 3.328125 -0.859375 3.328125 -1.234375 Z M 3.328125 -1.234375 "/>
</g>
<g id="glyph-3-5">
<path d="M 4.28125 -2.15625 C 4.28125 -2.984375 3.734375 -3.5 3.015625 -3.5 C 2 -3.5 0.90625 -2.421875 0.90625 -1.265625 C 0.90625 -0.390625 1.515625 0.078125 2.171875 0.078125 C 3.234375 0.078125 4.28125 -1.015625 4.28125 -2.15625 Z M 3.6875 -2.4375 C 3.6875 -2.1875 3.578125 -1.40625 3.25 -0.875 C 3 -0.4375 2.5625 -0.140625 2.1875 -0.140625 C 1.875 -0.140625 1.515625 -0.34375 1.515625 -0.984375 C 1.515625 -1.34375 1.671875 -2.09375 1.921875 -2.53125 C 2.265625 -3.09375 2.734375 -3.28125 3.015625 -3.28125 C 3.390625 -3.28125 3.6875 -3 3.6875 -2.4375 Z M 3.6875 -2.4375 "/>
</g>
<g id="glyph-3-6">
<path d="M 2.375 -1.140625 C 2.375 -1.234375 2.265625 -1.234375 2.234375 -1.234375 C 2.109375 -1.234375 2.09375 -1.203125 2.0625 -1.078125 C 1.953125 -0.671875 1.8125 -0.140625 1.53125 -0.140625 C 1.3125 -0.140625 1.3125 -0.390625 1.3125 -0.484375 C 1.3125 -0.546875 1.3125 -0.625 1.328125 -0.71875 L 2.46875 -5.28125 C 2.46875 -5.3125 2.5 -5.359375 2.5 -5.390625 C 2.5 -5.515625 2.359375 -5.515625 2.28125 -5.5 L 1.453125 -5.421875 C 1.34375 -5.421875 1.25 -5.40625 1.25 -5.265625 C 1.25 -5.15625 1.34375 -5.15625 1.453125 -5.15625 C 1.84375 -5.15625 1.84375 -5.109375 1.84375 -5.046875 C 1.84375 -5 1.8125 -4.90625 1.8125 -4.859375 L 0.828125 -0.9375 C 0.78125 -0.78125 0.78125 -0.734375 0.78125 -0.65625 C 0.78125 -0.171875 1.15625 0.078125 1.515625 0.078125 C 1.6875 0.078125 1.921875 0.03125 2.125 -0.359375 C 2.265625 -0.640625 2.375 -1.109375 2.375 -1.140625 Z M 2.375 -1.140625 "/>
</g>
<g id="glyph-3-7">
<path d="M 3.03125 -1.140625 C 3.03125 -1.234375 2.921875 -1.234375 2.890625 -1.234375 C 2.765625 -1.234375 2.765625 -1.21875 2.71875 -1.109375 C 2.375 -0.296875 2 -0.140625 1.75 -0.140625 C 1.5625 -0.140625 1.53125 -0.3125 1.53125 -0.484375 C 1.53125 -0.546875 1.53125 -0.625 1.546875 -0.71875 L 2.15625 -3.15625 L 2.875 -3.15625 C 3.015625 -3.15625 3.109375 -3.15625 3.109375 -3.3125 C 3.109375 -3.421875 3.015625 -3.421875 2.875 -3.421875 L 2.21875 -3.421875 L 2.5 -4.5625 C 2.53125 -4.6875 2.53125 -4.703125 2.53125 -4.734375 C 2.53125 -4.921875 2.375 -4.953125 2.296875 -4.953125 C 2.046875 -4.953125 1.984375 -4.71875 1.96875 -4.65625 L 1.65625 -3.421875 L 0.9375 -3.421875 C 0.796875 -3.421875 0.703125 -3.421875 0.703125 -3.265625 C 0.703125 -3.15625 0.8125 -3.15625 0.921875 -3.15625 L 1.59375 -3.15625 L 1.046875 -0.9375 C 1 -0.78125 1 -0.734375 1 -0.65625 C 1 -0.1875 1.34375 0.078125 1.734375 0.078125 C 2.578125 0.078125 3.03125 -1.03125 3.03125 -1.140625 Z M 3.03125 -1.140625 "/>
</g>
<g id="glyph-3-8">
<path d="M 3.515625 0.078125 L 4.28125 -3.046875 C 4.3125 -3.15625 4.3125 -3.15625 4.3125 -3.1875 C 4.3125 -3.34375 4.203125 -3.421875 4.078125 -3.421875 C 3.828125 -3.421875 3.765625 -3.171875 3.75 -3.109375 L 3.203125 -0.921875 C 3.171875 -0.765625 2.828125 -0.140625 2.296875 -0.140625 C 1.828125 -0.140625 1.828125 -0.625 1.828125 -0.765625 C 1.828125 -1.203125 2.03125 -1.75 2.28125 -2.4375 C 2.34375 -2.609375 2.375 -2.6875 2.375 -2.84375 C 2.375 -3.28125 2.0625 -3.5 1.71875 -3.5 C 0.953125 -3.5 0.640625 -2.390625 0.640625 -2.28125 C 0.640625 -2.1875 0.734375 -2.1875 0.78125 -2.1875 C 0.90625 -2.1875 0.921875 -2.203125 0.953125 -2.34375 C 1.09375 -2.84375 1.359375 -3.28125 1.703125 -3.28125 C 1.84375 -3.28125 1.875 -3.171875 1.875 -3.03125 C 1.875 -2.84375 1.8125 -2.6875 1.75 -2.5 C 1.53125 -1.890625 1.296875 -1.3125 1.296875 -0.875 C 1.296875 -0.15625 1.8125 0.078125 2.265625 0.078125 C 2.625 0.078125 2.890625 -0.09375 3.03125 -0.21875 C 2.953125 0.09375 2.84375 0.5 2.546875 0.890625 C 2.34375 1.15625 2.046875 1.390625 1.6875 1.390625 C 1.484375 1.390625 1.28125 1.3125 1.203125 1.109375 C 1.421875 1.0625 1.5625 0.875 1.5625 0.703125 C 1.5625 0.5625 1.453125 0.4375 1.265625 0.4375 C 1.140625 0.4375 0.859375 0.53125 0.859375 0.921875 C 0.859375 1.328125 1.203125 1.625 1.6875 1.625 C 2.578125 1.625 3.328125 0.78125 3.515625 0.078125 Z M 3.515625 0.078125 "/>
</g>
<g id="glyph-4-0">
<path d="M 4.734375 -2.3125 C 4.734375 -3.265625 4.0625 -3.59375 3.453125 -3.59375 C 2.96875 -3.59375 2.609375 -3.328125 2.40625 -3.1875 C 2.265625 -3.453125 1.90625 -3.59375 1.59375 -3.59375 C 1.21875 -3.59375 1.03125 -3.3125 0.921875 -3.15625 C 0.71875 -2.828125 0.609375 -2.375 0.609375 -2.34375 C 0.609375 -2.234375 0.71875 -2.234375 0.828125 -2.234375 C 1.03125 -2.234375 1.03125 -2.25 1.09375 -2.4375 C 1.15625 -2.703125 1.296875 -3.296875 1.5625 -3.296875 C 1.65625 -3.296875 1.71875 -3.234375 1.71875 -3.0625 C 1.71875 -2.90625 1.703125 -2.84375 1.671875 -2.71875 L 0.734375 1.046875 C 0.703125 1.15625 0.6875 1.171875 0.453125 1.171875 C 0.328125 1.171875 0.203125 1.171875 0.203125 1.390625 C 0.203125 1.5 0.28125 1.546875 0.34375 1.546875 C 0.578125 1.546875 0.828125 1.515625 1.0625 1.515625 C 1.328125 1.515625 1.625 1.546875 1.890625 1.546875 C 1.9375 1.546875 2.109375 1.546875 2.109375 1.3125 C 2.109375 1.171875 1.96875 1.171875 1.890625 1.171875 C 1.78125 1.171875 1.65625 1.171875 1.546875 1.15625 L 1.875 -0.1875 C 2.140625 0.03125 2.421875 0.0625 2.609375 0.0625 C 3.9375 0.0625 4.734375 -1.25 4.734375 -2.3125 Z M 3.515625 -1.109375 C 3.25 -0.34375 2.8125 -0.21875 2.609375 -0.21875 C 2.328125 -0.21875 2.109375 -0.390625 2.015625 -0.71875 L 2.484375 -2.59375 C 2.5 -2.640625 2.5 -2.671875 2.515625 -2.734375 C 2.84375 -3.1875 3.1875 -3.296875 3.421875 -3.296875 C 3.609375 -3.296875 3.875 -3.1875 3.875 -2.734375 C 3.875 -2.3125 3.609375 -1.328125 3.515625 -1.109375 Z M 3.515625 -1.109375 "/>
</g>
<g id="glyph-4-1">
<path d="M 4.71875 -2.25 C 4.71875 -3.078125 4.15625 -3.59375 3.21875 -3.59375 C 1.640625 -3.59375 0.84375 -2.265625 0.84375 -1.265625 C 0.84375 -0.453125 1.40625 0.0625 2.359375 0.0625 C 3.921875 0.0625 4.71875 -1.25 4.71875 -2.25 Z M 3.453125 -0.984375 C 3.21875 -0.484375 2.78125 -0.21875 2.375 -0.21875 C 2.09375 -0.21875 1.71875 -0.359375 1.71875 -0.921875 C 1.71875 -1.234375 1.921875 -2.125 2.125 -2.546875 C 2.34375 -3.046875 2.796875 -3.296875 3.203125 -3.296875 C 3.484375 -3.296875 3.859375 -3.171875 3.859375 -2.609375 C 3.859375 -2.296875 3.65625 -1.40625 3.453125 -0.984375 Z M 3.453125 -0.984375 "/>
</g>
<g id="glyph-4-2">
<path d="M 4.953125 -1.171875 C 4.953125 -1.28125 4.859375 -1.28125 4.734375 -1.28125 C 4.546875 -1.28125 4.546875 -1.28125 4.484375 -1.078125 C 4.421875 -0.8125 4.28125 -0.21875 4.015625 -0.21875 C 3.90625 -0.21875 3.859375 -0.28125 3.859375 -0.46875 C 3.859375 -0.625 3.875 -0.6875 3.90625 -0.8125 L 5.015625 -5.234375 C 5.03125 -5.28125 5.046875 -5.328125 5.046875 -5.359375 C 5.046875 -5.515625 4.890625 -5.515625 4.78125 -5.5 L 3.8125 -5.453125 C 3.71875 -5.4375 3.5625 -5.4375 3.5625 -5.21875 C 3.5625 -5.078125 3.703125 -5.078125 3.78125 -5.078125 C 3.875 -5.078125 4.015625 -5.0625 4.109375 -5.0625 L 3.6875 -3.328125 C 3.4375 -3.5625 3.15625 -3.59375 2.96875 -3.59375 C 1.640625 -3.59375 0.84375 -2.265625 0.84375 -1.203125 C 0.84375 -0.265625 1.515625 0.0625 2.109375 0.0625 C 2.59375 0.0625 2.96875 -0.1875 3.15625 -0.34375 C 3.3125 -0.0625 3.671875 0.0625 3.984375 0.0625 C 4.34375 0.0625 4.546875 -0.203125 4.65625 -0.359375 C 4.859375 -0.703125 4.953125 -1.140625 4.953125 -1.171875 Z M 3.0625 -0.796875 C 2.71875 -0.34375 2.390625 -0.21875 2.140625 -0.21875 C 1.953125 -0.21875 1.6875 -0.328125 1.6875 -0.78125 C 1.6875 -1.21875 1.96875 -2.1875 2.0625 -2.40625 C 2.328125 -3.1875 2.765625 -3.296875 2.96875 -3.296875 C 3.25 -3.296875 3.46875 -3.125 3.5625 -2.8125 L 3.09375 -0.9375 C 3.078125 -0.875 3.078125 -0.859375 3.0625 -0.796875 Z M 3.0625 -0.796875 "/>
</g>
<g id="glyph-4-3">
<path d="M 4.875 -1.171875 C 4.875 -1.28125 4.78125 -1.28125 4.65625 -1.28125 C 4.46875 -1.28125 4.453125 -1.28125 4.40625 -1.078125 C 4.34375 -0.8125 4.203125 -0.21875 3.921875 -0.21875 C 3.828125 -0.21875 3.78125 -0.28125 3.78125 -0.46875 C 3.78125 -0.625 3.796875 -0.6875 3.828125 -0.8125 L 4.359375 -2.953125 C 4.390625 -3.078125 4.390625 -3.09375 4.390625 -3.125 C 4.390625 -3.296875 4.25 -3.453125 4.03125 -3.453125 C 3.890625 -3.453125 3.765625 -3.390625 3.65625 -3.28125 C 3.40625 -3.546875 3.09375 -3.59375 2.890625 -3.59375 C 1.5625 -3.59375 0.765625 -2.265625 0.765625 -1.203125 C 0.765625 -0.265625 1.421875 0.0625 2.03125 0.0625 C 2.515625 0.0625 2.890625 -0.1875 3.078125 -0.34375 C 3.234375 -0.0625 3.59375 0.0625 3.890625 0.0625 C 4.265625 0.0625 4.46875 -0.203125 4.578125 -0.359375 C 4.78125 -0.703125 4.875 -1.140625 4.875 -1.171875 Z M 2.984375 -0.796875 C 2.640625 -0.34375 2.3125 -0.21875 2.0625 -0.21875 C 1.875 -0.21875 1.609375 -0.328125 1.609375 -0.78125 C 1.609375 -1.21875 1.890625 -2.1875 1.96875 -2.40625 C 2.25 -3.1875 2.6875 -3.296875 2.890625 -3.296875 C 3.171875 -3.296875 3.390625 -3.125 3.484375 -2.8125 L 3.015625 -0.9375 C 3 -0.875 3 -0.859375 2.984375 -0.796875 Z M 2.984375 -0.796875 "/>
</g>
</g>
<clipPath id="clip-0">
<path clip-rule="nonzero" d="M 0.414062 85 L 72 85 L 72 120 L 0.414062 120 Z M 0.414062 85 "/>
</clipPath>
</defs>
<path fill-rule="nonzero" fill="rgb(87.998962%, 93.363953%, 96.374512%)" fill-opacity="1" stroke-width="0.3985" stroke-linecap="butt" stroke-linejoin="miter" stroke="rgb(39.99939%, 66.822815%, 81.881714%)" stroke-opacity="1" stroke-miterlimit="10" d="M 29.188684 11.338621 L -29.190422 11.338621 C -30.288511 11.338621 -31.182669 10.448384 -31.182669 9.346374 L -31.182669 -9.344666 C -31.182669 -10.446676 -30.288511 -11.336913 -29.190422 -11.336913 L 29.188684 -11.336913 C 30.290694 -11.336913 31.180931 -10.446676 31.180931 -9.344666 L 31.180931 9.346374 C 31.180931 10.448384 30.290694 11.338621 29.188684 11.338621 Z M 29.188684 11.338621 " transform="matrix(0.996049, 0, 0, -0.996049, 119.348522, 14.469601)"/>
<g fill="rgb(0%, 0%, 0%)" fill-opacity="1">
<use xlink:href="#glyph-0-0" x="95.905518" y="16.578236"/>
<use xlink:href="#glyph-0-1" x="100.594278" y="16.578236"/>
<use xlink:href="#glyph-0-2" x="105.283038" y="16.578236"/>
<use xlink:href="#glyph-0-3" x="109.971799" y="16.578236"/>
<use xlink:href="#glyph-0-4" x="114.660559" y="16.578236"/>
<use xlink:href="#glyph-0-5" x="119.349319" y="16.578236"/>
<use xlink:href="#glyph-0-1" x="124.038079" y="16.578236"/>
<use xlink:href="#glyph-0-6" x="128.726839" y="16.578236"/>
<use xlink:href="#glyph-0-0" x="133.415599" y="16.578236"/>
<use xlink:href="#glyph-0-7" x="138.10436" y="16.578236"/>
</g>
<path fill-rule="nonzero" fill="rgb(87.998962%, 93.363953%, 96.374512%)" fill-opacity="1" stroke-width="0.3985" stroke-linecap="butt" stroke-linejoin="miter" stroke="rgb(39.99939%, 66.822815%, 81.881714%)" stroke-opacity="1" stroke-miterlimit="10" d="M 29.188684 -31.580964 L -29.190422 -31.580964 C -30.288511 -31.580964 -31.182669 -32.4712 -31.182669 -33.573211 L -31.182669 -52.264251 C -31.182669 -53.366261 -30.288511 -54.256497 -29.190422 -54.256497 L 29.188684 -54.256497 C 30.290694 -54.256497 31.180931 -53.366261 31.180931 -52.264251 L 31.180931 -33.573211 C 31.180931 -32.4712 30.290694 -31.580964 29.188684 -31.580964 Z M 29.188684 -31.580964 " transform="matrix(0.996049, 0, 0, -0.996049, 119.348522, 14.469601)"/>
<g fill="rgb(0%, 0%, 0%)" fill-opacity="1">
<use xlink:href="#glyph-0-1" x="95.905518" y="59.948192"/>
<use xlink:href="#glyph-0-8" x="100.594278" y="59.948192"/>
<use xlink:href="#glyph-0-3" x="105.283038" y="59.948192"/>
<use xlink:href="#glyph-0-9" x="109.971799" y="59.948192"/>
<use xlink:href="#glyph-0-10" x="114.660559" y="59.948192"/>
<use xlink:href="#glyph-0-11" x="119.349319" y="59.948192"/>
<use xlink:href="#glyph-0-12" x="124.038079" y="59.948192"/>
<use xlink:href="#glyph-0-11" x="128.726839" y="59.948192"/>
<use xlink:href="#glyph-0-13" x="133.415599" y="59.948192"/>
<use xlink:href="#glyph-0-7" x="138.10436" y="59.948192"/>
</g>
<path fill-rule="nonzero" fill="rgb(87.998962%, 93.363953%, 96.374512%)" fill-opacity="1" d="M 63.71875 91.496094 L 5.570312 91.496094 C 4.472656 91.496094 3.585938 92.386719 3.585938 93.480469 L 3.585938 112.101562 C 3.585938 113.195312 4.472656 114.085938 5.570312 114.085938 L 63.71875 114.085938 C 64.8125 114.085938 65.703125 113.195312 65.703125 112.101562 L 65.703125 93.480469 C 65.703125 92.386719 64.8125 91.496094 63.71875 91.496094 Z M 63.71875 91.496094 "/>
<g clip-path="url(#clip-0)">
<path fill="none" stroke-width="0.3985" stroke-linecap="butt" stroke-linejoin="miter" stroke="rgb(39.99939%, 66.822815%, 81.881714%)" stroke-opacity="1" stroke-miterlimit="10" d="M -55.850449 -77.332049 L -114.229556 -77.332049 C -115.331566 -77.332049 -116.221802 -78.226207 -116.221802 -79.324296 L -116.221802 -98.019257 C -116.221802 -99.117346 -115.331566 -100.011504 -114.229556 -100.011504 L -55.850449 -100.011504 C -54.752361 -100.011504 -53.858203 -99.117346 -53.858203 -98.019257 L -53.858203 -79.324296 C -53.858203 -78.226207 -54.752361 -77.332049 -55.850449 -77.332049 Z M -55.850449 -77.332049 " transform="matrix(0.996049, 0, 0, -0.996049, 119.348522, 14.469601)"/>
</g>
<g fill="rgb(0%, 0%, 0%)" fill-opacity="1">
<use xlink:href="#glyph-0-14" x="20.579329" y="105.520412"/>
<use xlink:href="#glyph-0-15" x="25.268089" y="105.520412"/>
<use xlink:href="#glyph-0-16" x="29.956849" y="105.520412"/>
<use xlink:href="#glyph-0-10" x="34.645609" y="105.520412"/>
<use xlink:href="#glyph-0-17" x="39.33437" y="105.520412"/>
<use xlink:href="#glyph-0-7" x="44.02313" y="105.520412"/>
</g>
<path fill-rule="nonzero" fill="rgb(87.998962%, 93.363953%, 96.374512%)" fill-opacity="1" stroke-width="0.3985" stroke-linecap="butt" stroke-linejoin="miter" stroke="rgb(39.99939%, 66.822815%, 81.881714%)" stroke-opacity="1" stroke-miterlimit="10" d="M 15.415513 -77.332049 L -42.963593 -77.332049 C -44.065604 -77.332049 -44.95584 -78.226207 -44.95584 -79.324296 L -44.95584 -98.019257 C -44.95584 -99.117346 -44.065604 -100.011504 -42.963593 -100.011504 L 15.415513 -100.011504 C 16.513602 -100.011504 17.40776 -99.117346 17.40776 -98.019257 L 17.40776 -79.324296 C 17.40776 -78.226207 16.513602 -77.332049 15.415513 -77.332049 Z M 15.415513 -77.332049 " transform="matrix(0.996049, 0, 0, -0.996049, 119.348522, 14.469601)"/>
<g fill="rgb(0%, 0%, 0%)" fill-opacity="1">
<use xlink:href="#glyph-0-14" x="91.562745" y="105.520412"/>
<use xlink:href="#glyph-0-15" x="96.251505" y="105.520412"/>
<use xlink:href="#glyph-0-16" x="100.940266" y="105.520412"/>
<use xlink:href="#glyph-0-10" x="105.629026" y="105.520412"/>
<use xlink:href="#glyph-0-11" x="110.317786" y="105.520412"/>
<use xlink:href="#glyph-0-7" x="115.006546" y="105.520412"/>
</g>
<path fill-rule="nonzero" fill="rgb(97.033691%, 88.633728%, 81.999207%)" fill-opacity="1" stroke-width="0.3985" stroke-linecap="butt" stroke-linejoin="miter" stroke="rgb(88.468933%, 55.802917%, 29.998779%)" stroke-opacity="1" stroke-miterlimit="10" d="M 86.681475 -77.332049 L 28.302369 -77.332049 C 27.200359 -77.332049 26.310123 -78.226207 26.310123 -79.324296 L 26.310123 -98.019257 C 26.310123 -99.117346 27.200359 -100.011504 28.302369 -100.011504 L 86.681475 -100.011504 C 87.779564 -100.011504 88.673722 -99.117346 88.673722 -98.019257 L 88.673722 -79.324296 C 88.673722 -78.226207 87.779564 -77.332049 86.681475 -77.332049 Z M 86.681475 -77.332049 " transform="matrix(0.996049, 0, 0, -0.996049, 119.348522, 14.469601)"/>
<g fill="rgb(0%, 0%, 0%)" fill-opacity="1">
<use xlink:href="#glyph-0-14" x="162.545166" y="105.520412"/>
<use xlink:href="#glyph-0-15" x="167.233926" y="105.520412"/>
<use xlink:href="#glyph-0-16" x="171.922686" y="105.520412"/>
<use xlink:href="#glyph-0-10" x="176.611446" y="105.520412"/>
<use xlink:href="#glyph-0-18" x="181.300206" y="105.520412"/>
<use xlink:href="#glyph-0-7" x="185.988966" y="105.520412"/>
</g>
<path fill-rule="nonzero" fill="rgb(87.998962%, 93.363953%, 96.374512%)" fill-opacity="1" stroke-width="0.3985" stroke-linecap="butt" stroke-linejoin="miter" stroke="rgb(39.99939%, 66.822815%, 81.881714%)" stroke-opacity="1" stroke-miterlimit="10" d="M 157.943516 -77.332049 L 99.568332 -77.332049 C 98.466321 -77.332049 97.576085 -78.226207 97.576085 -79.324296 L 97.576085 -98.019257 C 97.576085 -99.117346 98.466321 -100.011504 99.568332 -100.011504 L 157.943516 -100.011504 C 159.045527 -100.011504 159.935763 -99.117346 159.935763 -98.019257 L 159.935763 -79.324296 C 159.935763 -78.226207 159.045527 -77.332049 157.943516 -77.332049 Z M 157.943516 -77.332049 " transform="matrix(0.996049, 0, 0, -0.996049, 119.348522, 14.469601)"/>
<g fill="rgb(0%, 0%, 0%)" fill-opacity="1">
<use xlink:href="#glyph-1-0" x="241.475059" y="103.27233"/>
</g>
<g fill="rgb(0%, 0%, 0%)" fill-opacity="1">
<use xlink:href="#glyph-1-0" x="245.552048" y="103.27233"/>
</g>
<g fill="rgb(0%, 0%, 0%)" fill-opacity="1">
<use xlink:href="#glyph-1-0" x="249.637967" y="103.27233"/>
</g>
<path fill-rule="nonzero" fill="rgb(87.998962%, 93.363953%, 96.374512%)" fill-opacity="1" stroke-width="0.3985" stroke-linecap="butt" stroke-linejoin="miter" stroke="rgb(39.99939%, 66.822815%, 81.881714%)" stroke-opacity="1" stroke-miterlimit="10" d="M 229.209479 -77.332049 L 170.834294 -77.332049 C 169.732284 -77.332049 168.842047 -78.226207 168.842047 -79.324296 L 168.842047 -98.019257 C 168.842047 -99.117346 169.732284 -100.011504 170.834294 -100.011504 L 229.209479 -100.011504 C 230.311489 -100.011504 231.201725 -99.117346 231.201725 -98.019257 L 231.201725 -79.324296 C 231.201725 -78.226207 230.311489 -77.332049 229.209479 -77.332049 Z M 229.209479 -77.332049 " transform="matrix(0.996049, 0, 0, -0.996049, 119.348522, 14.469601)"/>
<g fill="rgb(0%, 0%, 0%)" fill-opacity="1">
<use xlink:href="#glyph-0-14" x="302.167299" y="105.520412"/>
<use xlink:href="#glyph-0-15" x="306.85606" y="105.520412"/>
<use xlink:href="#glyph-0-16" x="311.54482" y="105.520412"/>
<use xlink:href="#glyph-0-10" x="316.23358" y="105.520412"/>
<use xlink:href="#glyph-0-17" x="320.92234" y="105.520412"/>
<use xlink:href="#glyph-0-11" x="325.6111" y="105.520412"/>
<use xlink:href="#glyph-0-7" x="330.299861" y="105.520412"/>
</g>
<path fill="none" stroke-width="0.79701" stroke-linecap="butt" stroke-linejoin="miter" stroke="rgb(0%, 0%, 0%)" stroke-opacity="1" stroke-miterlimit="10" d="M -0.000869233 -11.536922 L -0.000869233 -26.925852 " transform="matrix(0.996049, 0, 0, -0.996049, 119.348522, 14.469601)"/>
<path fill-rule="nonzero" fill="rgb(0%, 0%, 0%)" fill-opacity="1" stroke-width="0.79701" stroke-linecap="butt" stroke-linejoin="miter" stroke="rgb(0%, 0%, 0%)" stroke-opacity="1" stroke-miterlimit="10" d="M 5.95353 -0.000869233 L 1.286653 1.763916 L 2.831821 -0.000869233 L 1.286653 -1.761733 Z M 5.95353 -0.000869233 " transform="matrix(0, 0.996049, 0.996049, 0, 119.348522, 38.66765)"/>
<path fill="none" stroke-width="0.79701" stroke-linecap="butt" stroke-linejoin="miter" stroke="rgb(0%, 0%, 0%)" stroke-opacity="1" stroke-miterlimit="10" d="M -21.441053 -54.456506 L -59.674151 -75.022141 " transform="matrix(0.996049, 0, 0, -0.996049, 119.348522, 14.469601)"/>
<path fill-rule="nonzero" fill="rgb(0%, 0%, 0%)" fill-opacity="1" stroke-width="0.79701" stroke-linecap="butt" stroke-linejoin="miter" stroke="rgb(0%, 0%, 0%)" stroke-opacity="1" stroke-miterlimit="10" d="M 5.95043 -0.00121037 L 1.288234 1.763197 L 2.828754 -0.000796418 L 1.287974 -1.763829 Z M 5.95043 -0.00121037 " transform="matrix(-0.877121, 0.471868, 0.471868, 0.877121, 62.219816, 87.954962)"/>
<path fill="none" stroke-width="0.79701" stroke-linecap="butt" stroke-linejoin="miter" stroke="rgb(0%, 0%, 0%)" stroke-opacity="1" stroke-miterlimit="10" d="M -3.471614 -54.456506 L -9.016963 -72.869102 " transform="matrix(0.996049, 0, 0, -0.996049, 119.348522, 14.469601)"/>
<path fill-rule="nonzero" fill="rgb(0%, 0%, 0%)" fill-opacity="1" stroke-width="0.79701" stroke-linecap="butt" stroke-linejoin="miter" stroke="rgb(0%, 0%, 0%)" stroke-opacity="1" stroke-miterlimit="10" d="M 5.950033 -0.000211861 L 1.286781 1.761882 L 2.829465 -0.00179701 L 1.28651 -1.76064 Z M 5.950033 -0.000211861 " transform="matrix(-0.287141, 0.953707, 0.953707, 0.287141, 111.122763, 84.540318)"/>
<path fill="none" stroke-width="0.79701" stroke-linecap="butt" stroke-linejoin="miter" stroke="rgb(0%, 0%, 0%)" stroke-opacity="1" stroke-miterlimit="10" d="M 14.493903 -54.456506 L 39.506797 -74.359366 " transform="matrix(0.996049, 0, 0, -0.996049, 119.348522, 14.469601)"/>
<path fill-rule="nonzero" fill="rgb(0%, 0%, 0%)" fill-opacity="1" stroke-width="0.79701" stroke-linecap="butt" stroke-linejoin="miter" stroke="rgb(0%, 0%, 0%)" stroke-opacity="1" stroke-miterlimit="10" d="M 5.952233 0.00203623 L 1.287525 1.763442 L 2.831427 -0.000319487 L 1.285775 -1.761617 Z M 5.952233 0.00203623 " transform="matrix(0.779328, 0.62017, 0.62017, -0.779328, 156.649055, 86.903941)"/>
<path fill="none" stroke-width="0.79701" stroke-linecap="butt" stroke-linejoin="miter" stroke="rgb(0%, 0%, 0%)" stroke-opacity="1" stroke-miterlimit="10" d="M 31.38094 -54.06041 L 93.175886 -76.030029 " transform="matrix(0.996049, 0, 0, -0.996049, 119.348522, 14.469601)"/>
<path fill-rule="nonzero" fill="rgb(0%, 0%, 0%)" fill-opacity="1" stroke-width="0.79701" stroke-linecap="butt" stroke-linejoin="miter" stroke="rgb(0%, 0%, 0%)" stroke-opacity="1" stroke-miterlimit="10" d="M 5.951405 -0.000703206 L 1.287002 1.762534 L 2.829116 0.000638399 L 1.287453 -1.762873 Z M 5.951405 -0.000703206 " transform="matrix(0.938457, 0.333636, 0.333636, -0.938457, 209.688533, 89.322328)"/>
<path fill="none" stroke-width="0.79701" stroke-linecap="butt" stroke-linejoin="miter" stroke="rgb(0%, 0%, 0%)" stroke-opacity="1" stroke-miterlimit="10" d="M 31.38094 -50.095525 L 164.296744 -80.508663 " transform="matrix(0.996049, 0, 0, -0.996049, 119.348522, 14.469601)"/>
<path fill-rule="nonzero" fill="rgb(0%, 0%, 0%)" fill-opacity="1" stroke-width="0.79701" stroke-linecap="butt" stroke-linejoin="miter" stroke="rgb(0%, 0%, 0%)" stroke-opacity="1" stroke-miterlimit="10" d="M 5.953123 0.000812034 L 1.285728 1.76118 L 2.831598 -0.00131752 L 1.287403 -1.76277 Z M 5.953123 0.000812034 " transform="matrix(0.970928, 0.222159, 0.222159, -0.970928, 280.44242, 94.076688)"/>
<g fill="rgb(0%, 0%, 0%)" fill-opacity="1">
<use xlink:href="#glyph-2-0" x="375.9277" y="95.347766"/>
<use xlink:href="#glyph-2-1" x="380.095469" y="95.347766"/>
<use xlink:href="#glyph-2-2" x="384.263239" y="95.347766"/>
<use xlink:href="#glyph-2-3" x="388.431008" y="95.347766"/>
<use xlink:href="#glyph-2-4" x="392.598777" y="95.347766"/>
<use xlink:href="#glyph-2-5" x="396.766547" y="95.347766"/>
<use xlink:href="#glyph-2-6" x="400.934316" y="95.347766"/>
<use xlink:href="#glyph-2-7" x="405.102086" y="95.347766"/>
<use xlink:href="#glyph-2-4" x="409.269855" y="95.347766"/>
<use xlink:href="#glyph-2-8" x="413.437624" y="95.347766"/>
<use xlink:href="#glyph-2-9" x="417.605394" y="95.347766"/>
<use xlink:href="#glyph-2-9" x="421.773163" y="95.347766"/>
<use xlink:href="#glyph-2-10" x="425.940933" y="95.347766"/>
<use xlink:href="#glyph-2-11" x="430.108702" y="95.347766"/>
</g>
<g fill="rgb(0%, 0%, 0%)" fill-opacity="1">
<use xlink:href="#glyph-3-0" x="375.274292" y="104.774371"/>
<use xlink:href="#glyph-3-1" x="379.629412" y="104.774371"/>
<use xlink:href="#glyph-3-2" x="383.548703" y="104.774371"/>
</g>
<g fill="rgb(0%, 0%, 0%)" fill-opacity="1">
<use xlink:href="#glyph-3-3" x="386.705094" y="104.774371"/>
</g>
<g fill="rgb(0%, 0%, 0%)" fill-opacity="1">
<use xlink:href="#glyph-3-4" x="393.529916" y="104.774371"/>
<use xlink:href="#glyph-3-5" x="397.014171" y="104.774371"/>
<use xlink:href="#glyph-3-6" x="401.369291" y="104.774371"/>
<use xlink:href="#glyph-3-5" x="403.546852" y="104.774371"/>
</g>
<g fill="rgb(83.529663%, 36.863708%, 0%)" fill-opacity="1">
<use xlink:href="#glyph-3-3" x="410.807503" y="104.774371"/>
<use xlink:href="#glyph-3-4" x="414.726794" y="104.774371"/>
<use xlink:href="#glyph-3-7" x="418.211049" y="104.774371"/>
<use xlink:href="#glyph-3-0" x="421.041957" y="104.774371"/>
</g>
<g fill="rgb(0%, 0%, 0%)" fill-opacity="1">
<use xlink:href="#glyph-3-8" x="375.387841" y="114.201973"/>
</g>
<g fill="rgb(0%, 0%, 0%)" fill-opacity="1">
<use xlink:href="#glyph-4-0" x="382.427914" y="114.201973"/>
</g>
<g fill="rgb(0%, 0%, 0%)" fill-opacity="1">
<use xlink:href="#glyph-4-1" x="386.652048" y="114.201973"/>
</g>
<g fill="rgb(0%, 0%, 0%)" fill-opacity="1">
<use xlink:href="#glyph-4-2" x="390.876181" y="114.201973"/>
<use xlink:href="#glyph-4-3" x="395.568693" y="114.201973"/>
</g>
<g fill="rgb(0%, 0%, 0%)" fill-opacity="1">
<use xlink:href="#glyph-3-3" x="403.166646" y="114.201973"/>
<use xlink:href="#glyph-3-6" x="407.085937" y="114.201973"/>
</g>
<g fill="rgb(0%, 0%, 0%)" fill-opacity="1">
<use xlink:href="#glyph-3-2" x="412.169028" y="114.201973"/>
</g>
<g fill="rgb(0%, 0%, 0%)" fill-opacity="1">
<use xlink:href="#glyph-3-3" x="415.325418" y="114.201973"/>
<use xlink:href="#glyph-3-4" x="419.244709" y="114.201973"/>
<use xlink:href="#glyph-3-7" x="422.728965" y="114.201973"/>
<use xlink:href="#glyph-3-5" x="425.559872" y="114.201973"/>
</g>
</svg>
