<?xml version="1.0" encoding="UTF-8"?>
<svg xmlns="http://www.w3.org/2000/svg" xmlns:xlink="http://www.w3.org/1999/xlink" width="614.407" height="135.483" viewBox="0 0 279.276 61.583">
<defs>
<g>
<g id="glyph-0-0">
<path d="M 3.890625 -4.9375 C 3.890625 -5.484375 3.15625 -5.484375 3.03125 -5.484375 C 2.34375 -5.484375 1.625 -5.109375 1.625 -4.28125 L 1.625 -3.84375 L 0.765625 -3.84375 C 0.625 -3.84375 0.390625 -3.84375 0.390625 -3.546875 C 0.390625 -3.265625 0.625 -3.265625 0.75 -3.265625 L 1.625 -3.265625 L 1.625 -0.578125 L 0.71875 -0.578125 C 0.59375 -0.578125 0.34375 -0.578125 0.34375 -0.296875 C 0.34375 0 0.59375 0 0.71875 0 L 3.171875 0 C 3.296875 0 3.5625 0 3.5625 -0.28125 C 3.5625 -0.578125 3.3125 -0.578125 3.171875 -0.578125 L 2.28125 -0.578125 L 2.28125 -3.265625 L 3.328125 -3.265625 C 3.453125 -3.265625 3.703125 -3.265625 3.703125 -3.546875 C 3.703125 -3.84375 3.453125 -3.84375 3.328125 -3.84375 L 2.28125 -3.84375 L 2.28125 -4.25 C 2.28125 -4.90625 2.828125 -4.90625 3.09375 -4.90625 C 3.125 -4.671875 3.296875 -4.53125 3.484375 -4.53125 C 3.65625 -4.53125 3.890625 -4.65625 3.890625 -4.9375 Z M 3.890625 -4.9375 "/>
</g>
<g id="glyph-0-1">
<path d="M 4.171875 -1.921875 C 4.171875 -3.03125 3.34375 -3.90625 2.328125 -3.90625 C 1.328125 -3.90625 0.484375 -3.03125 0.484375 -1.921875 C 0.484375 -0.8125 1.34375 0.046875 2.328125 0.046875 C 3.328125 0.046875 4.171875 -0.8125 4.171875 -1.921875 Z M 3.515625 -1.984375 C 3.515625 -1.1875 2.984375 -0.53125 2.328125 -0.53125 C 1.6875 -0.53125 1.15625 -1.1875 1.15625 -1.984375 C 1.15625 -2.78125 1.71875 -3.328125 2.328125 -3.328125 C 2.953125 -3.328125 3.515625 -2.78125 3.515625 -1.984375 Z M 3.515625 -1.984375 "/>
</g>
<g id="glyph-0-2">
<path d="M 4.34375 -3.3125 C 4.34375 -3.484375 4.234375 -3.890625 3.484375 -3.890625 C 2.984375 -3.890625 2.421875 -3.671875 2 -3.1875 L 2 -3.46875 C 2 -3.765625 1.921875 -3.84375 1.625 -3.84375 L 0.625 -3.84375 C 0.484375 -3.84375 0.234375 -3.84375 0.234375 -3.546875 C 0.234375 -3.265625 0.484375 -3.265625 0.625 -3.265625 L 1.34375 -3.265625 L 1.34375 -0.578125 L 0.625 -0.578125 C 0.484375 -0.578125 0.234375 -0.578125 0.234375 -0.296875 C 0.234375 0 0.484375 0 0.625 0 L 2.984375 0 C 3.109375 0 3.359375 0 3.359375 -0.28125 C 3.359375 -0.578125 3.125 -0.578125 2.984375 -0.578125 L 2 -0.578125 L 2 -1.640625 C 2 -2.53125 2.59375 -3.296875 3.546875 -3.296875 C 3.578125 -2.96875 3.828125 -2.90625 3.953125 -2.90625 C 4.15625 -2.90625 4.34375 -3.0625 4.34375 -3.3125 Z M 4.34375 -3.3125 "/>
</g>
<g id="glyph-0-3">
<path d="M 3.890625 0.46875 C 3.890625 0.328125 3.796875 0.28125 3.71875 0.21875 C 2.546875 -0.5625 2.1875 -1.796875 2.1875 -2.71875 C 2.1875 -3.390625 2.375 -3.96875 2.5625 -4.375 C 2.921875 -5.046875 3.359375 -5.421875 3.78125 -5.6875 C 3.84375 -5.734375 3.890625 -5.8125 3.890625 -5.90625 C 3.890625 -6 3.84375 -6.1875 3.59375 -6.1875 C 3.390625 -6.1875 2.640625 -5.671875 2.140625 -4.890625 C 1.671875 -4.15625 1.515625 -3.359375 1.515625 -2.71875 C 1.515625 -2.125 1.640625 -1.28125 2.234375 -0.4375 C 2.671875 0.203125 3.375 0.734375 3.59375 0.734375 C 3.84375 0.734375 3.890625 0.5625 3.890625 0.46875 Z M 3.890625 0.46875 "/>
</g>
<g id="glyph-0-4">
<path d="M 4.40625 -0.28125 C 4.40625 -0.578125 4.171875 -0.578125 4.03125 -0.578125 L 3.671875 -0.578125 L 2.578125 -1.984375 L 3.546875 -3.265625 L 3.90625 -3.265625 C 4.03125 -3.265625 4.28125 -3.265625 4.28125 -3.546875 C 4.28125 -3.84375 4.046875 -3.84375 3.90625 -3.84375 L 2.84375 -3.84375 C 2.703125 -3.84375 2.46875 -3.84375 2.46875 -3.546875 C 2.46875 -3.265625 2.6875 -3.265625 2.90625 -3.265625 L 2.3125 -2.4375 L 1.6875 -3.265625 C 1.90625 -3.265625 2.125 -3.265625 2.125 -3.546875 C 2.125 -3.84375 1.875 -3.84375 1.75 -3.84375 L 0.6875 -3.84375 C 0.546875 -3.84375 0.3125 -3.84375 0.3125 -3.546875 C 0.3125 -3.265625 0.546875 -3.265625 0.6875 -3.265625 L 1.046875 -3.265625 L 2.046875 -1.984375 L 0.984375 -0.578125 L 0.625 -0.578125 C 0.484375 -0.578125 0.265625 -0.578125 0.265625 -0.28125 C 0.265625 0 0.5 0 0.625 0 L 1.6875 0 C 1.828125 0 2.0625 0 2.0625 -0.28125 C 2.0625 -0.578125 1.859375 -0.578125 1.609375 -0.578125 L 2.3125 -1.609375 L 3.03125 -0.578125 C 2.8125 -0.578125 2.59375 -0.578125 2.59375 -0.28125 C 2.59375 0 2.828125 0 2.96875 0 L 4.03125 0 C 4.15625 0 4.40625 0 4.40625 -0.28125 Z M 4.40625 -0.28125 "/>
</g>
<g id="glyph-0-5">
<path d="M 4.09375 -0.28125 C 4.09375 -0.578125 3.84375 -0.578125 3.71875 -0.578125 L 2.78125 -0.578125 L 2.78125 -3.46875 C 2.78125 -3.765625 2.703125 -3.84375 2.40625 -3.84375 L 1.109375 -3.84375 C 0.984375 -3.84375 0.734375 -3.84375 0.734375 -3.546875 C 0.734375 -3.265625 0.96875 -3.265625 1.109375 -3.265625 L 2.125 -3.265625 L 2.125 -0.578125 L 1.03125 -0.578125 C 0.90625 -0.578125 0.65625 -0.578125 0.65625 -0.296875 C 0.65625 0 0.90625 0 1.03125 0 L 3.71875 0 C 3.84375 0 4.09375 0 4.09375 -0.28125 Z M 2.796875 -4.953125 C 2.796875 -5.203125 2.59375 -5.40625 2.34375 -5.40625 C 2.09375 -5.40625 1.890625 -5.203125 1.890625 -4.953125 C 1.890625 -4.703125 2.09375 -4.5 2.34375 -4.5 C 2.59375 -4.5 2.796875 -4.703125 2.796875 -4.953125 Z M 2.796875 -4.953125 "/>
</g>
<g id="glyph-0-6">
<path d="M 4.59375 -0.28125 C 4.59375 -0.578125 4.359375 -0.578125 4.21875 -0.578125 L 3.828125 -0.578125 L 3.828125 -2.59375 C 3.828125 -3.484375 3.390625 -3.890625 2.65625 -3.890625 C 2.25 -3.890625 1.828125 -3.734375 1.5 -3.4375 C 1.5 -3.6875 1.484375 -3.84375 1.125 -3.84375 L 0.453125 -3.84375 C 0.328125 -3.84375 0.078125 -3.84375 0.078125 -3.546875 C 0.078125 -3.265625 0.3125 -3.265625 0.453125 -3.265625 L 0.84375 -3.265625 L 0.84375 -0.578125 L 0.453125 -0.578125 C 0.328125 -0.578125 0.078125 -0.578125 0.078125 -0.296875 C 0.078125 0 0.3125 0 0.453125 0 L 1.890625 0 C 2.015625 0 2.265625 0 2.265625 -0.28125 C 2.265625 -0.578125 2.015625 -0.578125 1.890625 -0.578125 L 1.5 -0.578125 L 1.5 -2.125 C 1.5 -3 2.171875 -3.296875 2.609375 -3.296875 C 3.046875 -3.296875 3.171875 -3.09375 3.171875 -2.5625 L 3.171875 -0.578125 L 2.890625 -0.578125 C 2.765625 -0.578125 2.5 -0.578125 2.5 -0.296875 C 2.5 0 2.75 0 2.890625 0 L 4.21875 0 C 4.34375 0 4.59375 0 4.59375 -0.28125 Z M 4.59375 -0.28125 "/>
</g>
<g id="glyph-0-7">
<path d="M 4.09375 -1.125 C 4.09375 -1.5625 3.8125 -1.828125 3.59375 -1.96875 C 3.234375 -2.1875 3.015625 -2.234375 2.1875 -2.375 C 1.8125 -2.421875 1.21875 -2.515625 1.21875 -2.84375 C 1.21875 -3.078125 1.5 -3.328125 2.3125 -3.328125 C 3.125 -3.328125 3.15625 -3.03125 3.15625 -2.828125 C 3.171875 -2.578125 3.421875 -2.578125 3.484375 -2.578125 C 3.828125 -2.578125 3.828125 -2.78125 3.828125 -2.953125 L 3.828125 -3.53125 C 3.828125 -3.671875 3.828125 -3.90625 3.53125 -3.90625 C 3.328125 -3.90625 3.28125 -3.796875 3.265625 -3.734375 C 2.921875 -3.90625 2.484375 -3.90625 2.328125 -3.90625 C 0.78125 -3.90625 0.640625 -3.09375 0.640625 -2.84375 C 0.640625 -2.375 1 -2.171875 1.109375 -2.09375 C 1.40625 -1.90625 1.65625 -1.859375 2.578125 -1.71875 C 2.8125 -1.6875 3.515625 -1.5625 3.515625 -1.125 C 3.515625 -0.84375 3.25 -0.53125 2.390625 -0.53125 C 1.859375 -0.53125 1.5 -0.71875 1.3125 -1.25 C 1.25 -1.421875 1.21875 -1.515625 0.96875 -1.515625 C 0.640625 -1.515625 0.640625 -1.3125 0.640625 -1.140625 L 0.640625 -0.328125 C 0.640625 -0.203125 0.640625 0.046875 0.921875 0.046875 C 1.0625 0.046875 1.1875 -0.015625 1.25 -0.265625 C 1.703125 0.046875 2.21875 0.046875 2.390625 0.046875 C 3.875 0.046875 4.09375 -0.78125 4.09375 -1.125 Z M 4.09375 -1.125 "/>
</g>
<g id="glyph-0-8">
<path d="M 3.140625 -2.71875 C 3.140625 -3.3125 3.015625 -4.15625 2.4375 -5 C 2 -5.640625 1.296875 -6.1875 1.0625 -6.1875 C 0.8125 -6.1875 0.78125 -5.984375 0.78125 -5.90625 C 0.78125 -5.765625 0.859375 -5.703125 0.9375 -5.65625 C 2.125 -4.875 2.484375 -3.65625 2.484375 -2.71875 C 2.484375 -2.046875 2.296875 -1.46875 2.109375 -1.0625 C 1.75 -0.390625 1.3125 -0.03125 0.890625 0.25 C 0.8125 0.296875 0.78125 0.390625 0.78125 0.46875 C 0.78125 0.546875 0.828125 0.734375 1.0625 0.734375 C 1.28125 0.734375 2.015625 0.21875 2.515625 -0.546875 C 3 -1.296875 3.140625 -2.078125 3.140625 -2.71875 Z M 3.140625 -2.71875 "/>
</g>
<g id="glyph-0-9">
<path d="M 4.53125 -3.546875 C 4.53125 -3.84375 4.28125 -3.84375 4.15625 -3.84375 L 3.078125 -3.84375 C 2.953125 -3.84375 2.6875 -3.84375 2.6875 -3.546875 C 2.6875 -3.265625 2.9375 -3.265625 3.078125 -3.265625 L 3.515625 -3.265625 L 3.109375 -0.6875 L 3.09375 -0.6875 C 3.0625 -0.921875 2.921875 -1.421875 2.84375 -1.6875 C 2.71875 -2.171875 2.6875 -2.3125 2.34375 -2.3125 C 2.03125 -2.3125 2 -2.171875 1.859375 -1.65625 C 1.75 -1.328125 1.640625 -0.90625 1.609375 -0.6875 L 1.59375 -0.6875 L 1.15625 -3.265625 L 1.59375 -3.265625 C 1.71875 -3.265625 1.984375 -3.265625 1.984375 -3.546875 C 1.984375 -3.84375 1.734375 -3.84375 1.59375 -3.84375 L 0.515625 -3.84375 C 0.390625 -3.84375 0.140625 -3.84375 0.140625 -3.546875 C 0.140625 -3.265625 0.359375 -3.265625 0.609375 -3.265625 L 1.125 -0.296875 C 1.1875 0.046875 1.375 0.046875 1.5625 0.046875 C 1.9375 0.046875 1.96875 -0.046875 2.125 -0.578125 C 2.328125 -1.296875 2.328125 -1.484375 2.34375 -1.609375 C 2.375 -1.359375 2.53125 -0.796875 2.578125 -0.609375 C 2.734375 -0.078125 2.765625 0.046875 3.125 0.046875 C 3.28125 0.046875 3.484375 0.046875 3.546875 -0.296875 L 4.0625 -3.265625 C 4.3125 -3.265625 4.53125 -3.265625 4.53125 -3.546875 Z M 4.53125 -3.546875 "/>
</g>
<g id="glyph-0-10">
<path d="M 4.59375 -0.28125 C 4.59375 -0.578125 4.359375 -0.578125 4.21875 -0.578125 L 3.828125 -0.578125 L 3.828125 -2.59375 C 3.828125 -3.484375 3.390625 -3.890625 2.65625 -3.890625 C 2.25 -3.890625 1.828125 -3.734375 1.5 -3.4375 L 1.5 -5.0625 C 1.5 -5.359375 1.421875 -5.4375 1.125 -5.4375 L 0.453125 -5.4375 C 0.328125 -5.4375 0.078125 -5.4375 0.078125 -5.15625 C 0.078125 -4.859375 0.3125 -4.859375 0.453125 -4.859375 L 0.84375 -4.859375 L 0.84375 -0.578125 L 0.453125 -0.578125 C 0.328125 -0.578125 0.078125 -0.578125 0.078125 -0.296875 C 0.078125 0 0.3125 0 0.453125 0 L 1.890625 0 C 2.015625 0 2.265625 0 2.265625 -0.28125 C 2.265625 -0.578125 2.015625 -0.578125 1.890625 -0.578125 L 1.5 -0.578125 L 1.5 -2.125 C 1.5 -3 2.171875 -3.296875 2.609375 -3.296875 C 3.046875 -3.296875 3.171875 -3.09375 3.171875 -2.5625 L 3.171875 -0.578125 L 2.890625 -0.578125 C 2.765625 -0.578125 2.5 -0.578125 2.5 -0.296875 C 2.5 0 2.75 0 2.890625 0 L 4.21875 0 C 4.34375 0 4.59375 0 4.59375 -0.28125 Z M 4.59375 -0.28125 "/>
</g>
<g id="glyph-0-11">
<path d="M 4.1875 -0.28125 C 4.1875 -0.578125 3.96875 -0.578125 3.828125 -0.578125 L 2.65625 -0.578125 L 2.65625 -5.0625 C 2.65625 -5.359375 2.59375 -5.4375 2.28125 -5.4375 L 0.84375 -5.4375 C 0.71875 -5.4375 0.46875 -5.4375 0.46875 -5.15625 C 0.46875 -4.859375 0.703125 -4.859375 0.84375 -4.859375 L 2 -4.859375 L 2 -0.578125 L 0.84375 -0.578125 C 0.71875 -0.578125 0.46875 -0.578125 0.46875 -0.296875 C 0.46875 0 0.703125 0 0.84375 0 L 3.828125 0 C 3.953125 0 4.1875 0 4.1875 -0.28125 Z M 4.1875 -0.28125 "/>
</g>
<g id="glyph-0-12">
<path d="M 4.125 -0.96875 C 4.125 -1.15625 4 -1.234375 3.796875 -1.234375 C 3.671875 -1.234375 3.5625 -1.234375 3.484375 -1.046875 C 3.265625 -0.53125 2.703125 -0.53125 2.59375 -0.53125 C 2.078125 -0.53125 1.34375 -0.84375 1.15625 -1.6875 L 3.765625 -1.6875 C 3.9375 -1.6875 4.125 -1.6875 4.125 -2.015625 C 4.125 -3.0625 3.546875 -3.90625 2.40625 -3.90625 C 1.3125 -3.90625 0.46875 -3 0.46875 -1.9375 C 0.46875 -0.84375 1.390625 0.046875 2.53125 0.046875 C 3.734375 0.046875 4.125 -0.75 4.125 -0.96875 Z M 3.453125 -2.25 L 1.171875 -2.25 C 1.34375 -2.984375 1.890625 -3.328125 2.40625 -3.328125 C 3.03125 -3.328125 3.390625 -2.921875 3.453125 -2.25 Z M 3.453125 -2.25 "/>
</g>
<g id="glyph-0-13">
<path d="M 4.15625 -0.96875 C 4.15625 -1.15625 4.015625 -1.234375 3.828125 -1.234375 C 3.703125 -1.234375 3.578125 -1.234375 3.5 -1.046875 C 3.4375 -0.90625 3.28125 -0.53125 2.65625 -0.53125 C 1.90625 -0.53125 1.296875 -1.15625 1.296875 -1.921875 C 1.296875 -2.375 1.5625 -3.328125 2.703125 -3.328125 C 2.859375 -3.328125 2.984375 -3.328125 3.015625 -3.328125 C 3.203125 -3.296875 3.203125 -3.296875 3.21875 -3.21875 C 3.234375 -2.90625 3.484375 -2.828125 3.625 -2.828125 C 3.859375 -2.828125 4.046875 -3 4.046875 -3.234375 C 4.046875 -3.90625 3.140625 -3.90625 2.71875 -3.90625 C 1.171875 -3.90625 0.625 -2.703125 0.625 -1.921875 C 0.625 -0.84375 1.5 0.046875 2.59375 0.046875 C 3.875 0.046875 4.15625 -0.84375 4.15625 -0.96875 Z M 4.15625 -0.96875 "/>
</g>
<g id="glyph-0-14">
<path d="M 4.59375 -0.28125 C 4.59375 -0.578125 4.359375 -0.578125 4.21875 -0.578125 L 3.828125 -0.578125 L 3.828125 -5.0625 C 3.828125 -5.359375 3.765625 -5.4375 3.453125 -5.4375 L 2.78125 -5.4375 C 2.65625 -5.4375 2.40625 -5.4375 2.40625 -5.15625 C 2.40625 -4.859375 2.640625 -4.859375 2.78125 -4.859375 L 3.171875 -4.859375 L 3.171875 -3.515625 C 2.96875 -3.671875 2.625 -3.890625 2.140625 -3.890625 C 1.15625 -3.890625 0.296875 -3.03125 0.296875 -1.921875 C 0.296875 -0.8125 1.109375 0.046875 2.0625 0.046875 C 2.46875 0.046875 2.84375 -0.109375 3.171875 -0.421875 C 3.171875 -0.15625 3.171875 0 3.546875 0 L 4.21875 0 C 4.34375 0 4.59375 0 4.59375 -0.28125 Z M 3.171875 -1.734375 C 3.171875 -1.25 2.765625 -0.53125 2.109375 -0.53125 C 1.484375 -0.53125 0.96875 -1.140625 0.96875 -1.921875 C 0.96875 -2.703125 1.546875 -3.296875 2.1875 -3.296875 C 2.71875 -3.296875 3.171875 -2.84375 3.171875 -2.359375 Z M 3.171875 -1.734375 "/>
</g>
<g id="glyph-0-15">
<path d="M 4.359375 -1.921875 C 4.359375 -2.984375 3.59375 -3.890625 2.59375 -3.890625 C 2.1875 -3.890625 1.8125 -3.734375 1.5 -3.46875 C 1.5 -3.796875 1.375 -3.84375 1.125 -3.84375 L 0.453125 -3.84375 C 0.328125 -3.84375 0.078125 -3.84375 0.078125 -3.546875 C 0.078125 -3.265625 0.3125 -3.265625 0.453125 -3.265625 L 0.84375 -3.265625 L 0.84375 1.390625 L 0.453125 1.390625 C 0.328125 1.390625 0.078125 1.390625 0.078125 1.6875 C 0.078125 1.984375 0.3125 1.984375 0.453125 1.984375 L 1.890625 1.984375 C 2.015625 1.984375 2.265625 1.984375 2.265625 1.6875 C 2.265625 1.390625 2.015625 1.390625 1.890625 1.390625 L 1.5 1.390625 L 1.5 -0.390625 C 1.765625 -0.109375 2.125 0.046875 2.515625 0.046875 C 3.5 0.046875 4.359375 -0.796875 4.359375 -1.921875 Z M 3.703125 -1.921875 C 3.703125 -1.125 3.125 -0.53125 2.46875 -0.53125 C 1.84375 -0.53125 1.5 -1.25 1.5 -1.71875 L 1.5 -2.34375 C 1.5 -2.875 2.015625 -3.296875 2.5625 -3.296875 C 3.171875 -3.296875 3.703125 -2.703125 3.703125 -1.921875 Z M 3.703125 -1.921875 "/>
</g>
<g id="glyph-0-16">
<path d="M 4.625 -0.296875 C 4.625 -0.578125 4.375 -0.578125 4.234375 -0.578125 C 4.109375 -0.578125 3.921875 -0.578125 3.75 -0.640625 L 3.75 -2.515625 C 3.75 -3.21875 3.21875 -3.90625 1.96875 -3.90625 C 1.5625 -3.90625 0.65625 -3.90625 0.65625 -3.234375 C 0.65625 -2.984375 0.859375 -2.828125 1.0625 -2.828125 C 1.21875 -2.828125 1.484375 -2.875 1.484375 -3.296875 C 1.734375 -3.328125 1.890625 -3.328125 1.984375 -3.328125 C 2.6875 -3.328125 3.09375 -3.03125 3.09375 -2.5 C 1.609375 -2.46875 0.421875 -2.0625 0.421875 -1.1875 C 0.421875 -0.5 1.046875 0.046875 1.90625 0.046875 C 2.015625 0.046875 2.6875 0.046875 3.171875 -0.296875 C 3.390625 0 3.859375 0 4.15625 0 C 4.40625 0 4.625 0 4.625 -0.296875 Z M 3.09375 -1.25 C 3.09375 -1.046875 3.09375 -0.859375 2.734375 -0.6875 C 2.40625 -0.53125 2.015625 -0.53125 1.984375 -0.53125 C 1.453125 -0.53125 1.09375 -0.828125 1.09375 -1.1875 C 1.09375 -1.625 1.984375 -1.921875 3.09375 -1.9375 Z M 3.09375 -1.25 "/>
</g>
<g id="glyph-0-17">
<path d="M 4 -1.15625 C 4 -1.453125 3.765625 -1.453125 3.671875 -1.453125 C 3.53125 -1.453125 3.34375 -1.4375 3.34375 -1.15625 C 3.328125 -0.734375 2.96875 -0.53125 2.65625 -0.53125 C 2 -0.53125 2 -1.015625 2 -1.234375 L 2 -3.265625 L 3.421875 -3.265625 C 3.546875 -3.265625 3.796875 -3.265625 3.796875 -3.546875 C 3.796875 -3.84375 3.546875 -3.84375 3.421875 -3.84375 L 2 -3.84375 L 2 -4.5625 C 2 -4.734375 2 -4.9375 1.671875 -4.9375 C 1.34375 -4.9375 1.34375 -4.734375 1.34375 -4.546875 L 1.34375 -3.84375 L 0.609375 -3.84375 C 0.46875 -3.84375 0.21875 -3.84375 0.21875 -3.546875 C 0.21875 -3.265625 0.46875 -3.265625 0.59375 -3.265625 L 1.34375 -3.265625 L 1.34375 -1.1875 C 1.34375 -0.265625 1.984375 0.046875 2.625 0.046875 C 3.390625 0.046875 4 -0.484375 4 -1.15625 Z M 4 -1.15625 "/>
</g>
<g id="glyph-0-18">
<path d="M 4.359375 -1.921875 C 4.359375 -2.984375 3.59375 -3.890625 2.59375 -3.890625 C 2.1875 -3.890625 1.8125 -3.734375 1.5 -3.46875 L 1.5 -5.0625 C 1.5 -5.359375 1.421875 -5.4375 1.125 -5.4375 L 0.453125 -5.4375 C 0.328125 -5.4375 0.078125 -5.4375 0.078125 -5.15625 C 0.078125 -4.859375 0.3125 -4.859375 0.453125 -4.859375 L 0.84375 -4.859375 L 0.84375 -0.390625 C 0.84375 -0.203125 0.84375 0 1.171875 0 C 1.5 0 1.5 -0.203125 1.5 -0.390625 C 1.765625 -0.109375 2.125 0.046875 2.515625 0.046875 C 3.5 0.046875 4.359375 -0.796875 4.359375 -1.921875 Z M 3.703125 -1.921875 C 3.703125 -1.125 3.125 -0.53125 2.46875 -0.53125 C 1.84375 -0.53125 1.5 -1.25 1.5 -1.71875 L 1.5 -2.34375 C 1.5 -2.875 2.015625 -3.296875 2.5625 -3.296875 C 3.171875 -3.296875 3.703125 -2.703125 3.703125 -1.921875 Z M 3.703125 -1.921875 "/>
</g>
<g id="glyph-0-19">
<path d="M 4.515625 -0.28125 C 4.515625 -0.578125 4.28125 -0.578125 4.140625 -0.578125 L 3.859375 -0.578125 L 2.578125 -2.265625 L 3.640625 -3.265625 L 3.953125 -3.265625 C 4.078125 -3.265625 4.3125 -3.265625 4.3125 -3.546875 C 4.3125 -3.84375 4.09375 -3.84375 3.953125 -3.84375 L 2.5625 -3.84375 C 2.421875 -3.84375 2.171875 -3.84375 2.171875 -3.546875 C 2.171875 -3.265625 2.40625 -3.265625 2.5625 -3.265625 L 2.84375 -3.265625 L 1.5 -1.984375 L 1.5 -5.0625 C 1.5 -5.359375 1.421875 -5.4375 1.125 -5.4375 L 0.53125 -5.4375 C 0.40625 -5.4375 0.15625 -5.4375 0.15625 -5.15625 C 0.15625 -4.859375 0.40625 -4.859375 0.53125 -4.859375 L 0.96875 -4.859375 L 0.96875 -0.578125 L 0.53125 -0.578125 C 0.40625 -0.578125 0.15625 -0.578125 0.15625 -0.296875 C 0.15625 0 0.40625 0 0.53125 0 L 1.921875 0 C 2.046875 0 2.3125 0 2.3125 -0.28125 C 2.3125 -0.578125 2.0625 -0.578125 1.921875 -0.578125 L 1.5 -0.578125 L 1.5 -1.25 L 2.1875 -1.890625 L 3.1875 -0.578125 C 2.90625 -0.578125 2.6875 -0.578125 2.6875 -0.28125 C 2.6875 0 2.953125 0 3.078125 0 L 4.140625 0 C 4.28125 0 4.515625 0 4.515625 -0.28125 Z M 4.515625 -0.28125 "/>
</g>
<g id="glyph-1-0">
<path d="M 3.328125 -3.390625 C 3.328125 -3.671875 3.0625 -3.9375 2.65625 -3.9375 C 2.125 -3.9375 1.75 -3.5625 1.546875 -3.015625 L 1.53125 -3.015625 L 1.53125 -3.9375 L 0.265625 -3.84375 L 0.265625 -3.5625 C 0.875 -3.5625 0.953125 -3.5 0.953125 -3.0625 L 0.953125 -0.6875 C 0.953125 -0.28125 0.859375 -0.28125 0.265625 -0.28125 L 0.265625 0 C 0.734375 -0.015625 0.859375 -0.03125 1.3125 -0.03125 L 2.4375 0 L 2.4375 -0.28125 L 2.265625 -0.28125 C 1.609375 -0.28125 1.578125 -0.375 1.578125 -0.703125 L 1.578125 -2.046875 C 1.578125 -2.40625 1.6875 -3.71875 2.703125 -3.71875 L 2.703125 -3.703125 C 2.6875 -3.703125 2.53125 -3.59375 2.53125 -3.375 C 2.53125 -3.140625 2.71875 -2.984375 2.9375 -2.984375 C 3.125 -2.984375 3.328125 -3.125 3.328125 -3.390625 Z M 3.328125 -3.390625 "/>
</g>
<g id="glyph-1-1">
<path d="M 3.796875 -1.0625 C 3.796875 -1.125 3.765625 -1.171875 3.671875 -1.171875 C 3.59375 -1.171875 3.5625 -1.109375 3.546875 -1.078125 C 3.25 -0.171875 2.453125 -0.15625 2.328125 -0.15625 C 1.890625 -0.15625 1.53125 -0.390625 1.328125 -0.6875 C 1.03125 -1.125 1.03125 -1.671875 1.03125 -2.046875 L 3.5625 -2.046875 C 3.765625 -2.046875 3.796875 -2.046875 3.796875 -2.234375 C 3.796875 -3.140625 3.296875 -3.984375 2.171875 -3.984375 C 1.09375 -3.984375 0.265625 -3.0625 0.265625 -1.953125 C 0.265625 -0.796875 1.1875 0.09375 2.28125 0.09375 C 3.359375 0.09375 3.796875 -0.859375 3.796875 -1.0625 Z M 3.203125 -2.25 L 1.03125 -2.25 C 1.109375 -3.625 1.921875 -3.765625 2.171875 -3.765625 C 2.65625 -3.765625 3.1875 -3.390625 3.203125 -2.25 Z M 3.203125 -2.25 "/>
</g>
<g id="glyph-1-2">
<path d="M 3.796875 -1.0625 C 3.796875 -1.171875 3.703125 -1.171875 3.671875 -1.171875 C 3.578125 -1.171875 3.578125 -1.15625 3.53125 -1 C 3.328125 -0.390625 2.828125 -0.15625 2.375 -0.15625 C 1.796875 -0.15625 1.0625 -0.609375 1.0625 -1.9375 C 1.0625 -3.328125 1.78125 -3.734375 2.3125 -3.734375 C 2.4375 -3.734375 2.90625 -3.71875 3.234375 -3.5 C 3.0625 -3.46875 2.875 -3.34375 2.875 -3.078125 C 2.875 -2.84375 3.0625 -2.671875 3.28125 -2.671875 C 3.515625 -2.671875 3.703125 -2.828125 3.703125 -3.09375 C 3.703125 -3.65625 3.078125 -3.984375 2.296875 -3.984375 C 1.15625 -3.984375 0.296875 -3.03125 0.296875 -1.921875 C 0.296875 -0.78125 1.234375 0.09375 2.28125 0.09375 C 3.515625 0.09375 3.796875 -0.984375 3.796875 -1.0625 Z M 3.796875 -1.0625 "/>
</g>
<g id="glyph-1-3">
<path d="M 4.3125 -1.890625 C 4.3125 -3.0625 3.390625 -3.984375 2.28125 -3.984375 C 1.15625 -3.984375 0.265625 -3.03125 0.265625 -1.890625 C 0.265625 -0.78125 1.1875 0.09375 2.28125 0.09375 C 3.40625 0.09375 4.3125 -0.796875 4.3125 -1.890625 Z M 3.546875 -1.984375 C 3.546875 -1.640625 3.546875 -1.125 3.328125 -0.734375 C 3.078125 -0.328125 2.65625 -0.15625 2.28125 -0.15625 C 1.84375 -0.15625 1.46875 -0.375 1.265625 -0.71875 C 1.03125 -1.09375 1.03125 -1.5625 1.03125 -1.984375 C 1.03125 -2.3125 1.03125 -2.8125 1.25 -3.171875 C 1.515625 -3.640625 1.953125 -3.765625 2.28125 -3.765625 C 2.78125 -3.765625 3.15625 -3.484375 3.328125 -3.171875 C 3.53125 -2.8125 3.546875 -2.34375 3.546875 -1.984375 Z M 3.546875 -1.984375 "/>
</g>
<g id="glyph-1-4">
<path d="M 4.875 0 L 4.875 -0.28125 C 4.265625 -0.28125 4.1875 -0.34375 4.1875 -0.78125 L 4.1875 -3.9375 L 2.84375 -3.84375 L 2.84375 -3.5625 C 3.453125 -3.5625 3.53125 -3.5 3.53125 -3.0625 L 3.53125 -1.484375 C 3.53125 -0.6875 3.078125 -0.125 2.4375 -0.125 C 1.703125 -0.125 1.65625 -0.5 1.65625 -0.984375 L 1.65625 -3.9375 L 0.3125 -3.84375 L 0.3125 -3.5625 C 1 -3.5625 1 -3.53125 1 -2.75 L 1 -1.40625 C 1 -0.828125 1 -0.453125 1.40625 -0.140625 C 1.671875 0.03125 2.03125 0.09375 2.390625 0.09375 C 2.84375 0.09375 3.28125 -0.109375 3.546875 -0.640625 L 3.546875 0.09375 Z M 4.875 0 "/>
</g>
<g id="glyph-1-5">
<path d="M 4.875 0 L 4.875 -0.28125 C 4.421875 -0.28125 4.1875 -0.28125 4.1875 -0.546875 L 4.1875 -2.265625 C 4.1875 -3 4.1875 -3.265625 3.9375 -3.578125 C 3.734375 -3.828125 3.390625 -3.9375 2.953125 -3.9375 C 2.125 -3.9375 1.734375 -3.328125 1.609375 -3.078125 L 1.609375 -3.9375 L 0.3125 -3.84375 L 0.3125 -3.5625 C 0.921875 -3.5625 1 -3.5 1 -3.0625 L 1 -0.6875 C 1 -0.28125 0.90625 -0.28125 0.3125 -0.28125 L 0.3125 0 C 0.734375 -0.015625 0.90625 -0.03125 1.328125 -0.03125 C 1.75 -0.03125 1.875 -0.015625 2.34375 0 L 2.34375 -0.28125 C 1.75 -0.28125 1.65625 -0.28125 1.65625 -0.6875 L 1.65625 -2.3125 C 1.65625 -3.25 2.328125 -3.71875 2.890625 -3.71875 C 3.40625 -3.71875 3.53125 -3.28125 3.53125 -2.75 L 3.53125 -0.6875 C 3.53125 -0.28125 3.421875 -0.28125 2.84375 -0.28125 L 2.84375 0 C 3.265625 -0.015625 3.421875 -0.03125 3.859375 -0.03125 C 4.28125 -0.03125 4.40625 -0.015625 4.875 0 Z M 4.875 0 "/>
</g>
<g id="glyph-1-6">
<path d="M 4.421875 -0.796875 L 4.421875 -1.296875 L 4.171875 -1.296875 L 4.171875 -0.796875 C 4.171875 -0.703125 4.171875 -0.265625 3.859375 -0.265625 C 3.53125 -0.265625 3.53125 -0.6875 3.53125 -0.828125 L 3.53125 -2.390625 C 3.53125 -2.890625 3.53125 -3.203125 3.140625 -3.5625 C 2.8125 -3.859375 2.375 -3.984375 1.9375 -3.984375 C 1.1875 -3.984375 0.5625 -3.609375 0.5625 -3.046875 C 0.5625 -2.765625 0.75 -2.625 0.984375 -2.625 C 1.21875 -2.625 1.390625 -2.796875 1.390625 -3.03125 C 1.390625 -3.40625 0.984375 -3.453125 0.984375 -3.453125 C 1.234375 -3.6875 1.65625 -3.765625 1.921875 -3.765625 C 2.375 -3.765625 2.875 -3.421875 2.875 -2.640625 L 2.875 -2.34375 C 2.390625 -2.328125 1.734375 -2.28125 1.125 -2 C 0.484375 -1.6875 0.296875 -1.234375 0.296875 -0.875 C 0.296875 -0.140625 1.15625 0.09375 1.75 0.09375 C 2.5 0.09375 2.828125 -0.390625 2.953125 -0.640625 C 3 -0.265625 3.265625 0.046875 3.640625 0.046875 C 3.859375 0.046875 4.421875 -0.078125 4.421875 -0.796875 Z M 2.875 -1.25 C 2.875 -0.390625 2.203125 -0.125 1.8125 -0.125 C 1.390625 -0.125 1 -0.421875 1 -0.875 C 1 -1.453125 1.515625 -2.078125 2.875 -2.140625 Z M 2.875 -1.25 "/>
</g>
<g id="glyph-1-7">
<path d="M 2.328125 0 L 2.328125 -0.28125 C 1.734375 -0.28125 1.640625 -0.28125 1.640625 -0.6875 L 1.640625 -6.1875 L 0.328125 -6.078125 L 0.328125 -5.8125 C 0.921875 -5.8125 1 -5.75 1 -5.3125 L 1 -0.6875 C 1 -0.28125 0.90625 -0.28125 0.328125 -0.28125 L 0.328125 0 C 0.734375 -0.015625 0.90625 -0.03125 1.3125 -0.03125 C 1.734375 -0.03125 1.890625 -0.015625 2.328125 0 Z M 2.328125 0 "/>
</g>
<g id="glyph-1-8">
<path d="M 2.25 0 L 2.25 -0.28125 C 1.671875 -0.28125 1.640625 -0.328125 1.640625 -0.671875 L 1.640625 -3.9375 L 0.359375 -3.84375 L 0.359375 -3.5625 C 0.921875 -3.5625 1 -3.515625 1 -3.078125 L 1 -0.6875 C 1 -0.28125 0.90625 -0.28125 0.328125 -0.28125 L 0.328125 0 C 0.71875 -0.015625 0.90625 -0.03125 1.296875 -0.03125 C 1.4375 -0.03125 1.8125 -0.03125 2.25 0 Z M 1.75 -5.375 C 1.75 -5.640625 1.546875 -5.84375 1.28125 -5.84375 C 1 -5.84375 0.796875 -5.640625 0.796875 -5.375 C 0.796875 -5.109375 1 -4.890625 1.28125 -4.890625 C 1.546875 -4.890625 1.75 -5.109375 1.75 -5.375 Z M 1.75 -5.375 "/>
</g>
<g id="glyph-1-9">
<path d="M 4.3125 -1.890625 C 4.3125 -3.0625 3.390625 -3.984375 2.28125 -3.984375 C 1.15625 -3.984375 0.265625 -3.03125 0.265625 -1.890625 C 0.265625 -0.78125 1.1875 0.09375 2.28125 0.09375 C 3.40625 0.09375 4.3125 -0.796875 4.3125 -1.890625 Z M 3.546875 -1.984375 C 3.546875 -1.640625 3.546875 -1.125 3.328125 -0.734375 C 3.078125 -0.328125 2.65625 -0.15625 2.28125 -0.15625 C 1.84375 -0.15625 1.46875 -0.375 1.265625 -0.71875 C 1.03125 -1.09375 1.03125 -1.5625 1.03125 -1.984375 C 1.03125 -2.3125 1.03125 -2.8125 1.25 -3.171875 C 1.515625 -3.640625 1.953125 -3.765625 2.28125 -3.765625 C 2.78125 -3.765625 3.15625 -3.484375 3.328125 -3.171875 C 3.53125 -2.8125 3.546875 -2.34375 3.546875 -1.984375 Z M 3.421875 -5.875 C 3.421875 -6.078125 3.234375 -6.21875 3.078125 -6.21875 C 2.9375 -6.21875 2.890625 -6.15625 2.8125 -6.0625 L 1.71875 -4.71875 L 1.890625 -4.53125 L 3.234375 -5.578125 C 3.34375 -5.671875 3.421875 -5.734375 3.421875 -5.875 Z M 3.421875 -5.875 "/>
</g>
<g id="glyph-1-10">
<path d="M 4.8125 0 L 4.8125 -0.28125 C 4.203125 -0.28125 4.125 -0.34375 4.125 -0.78125 L 4.125 -6.1875 L 2.8125 -6.078125 L 2.8125 -5.8125 C 3.40625 -5.8125 3.484375 -5.75 3.484375 -5.3125 L 3.484375 -3.40625 C 3.453125 -3.46875 3.046875 -3.9375 2.34375 -3.9375 C 1.25 -3.9375 0.296875 -3.0625 0.296875 -1.921875 C 0.296875 -0.796875 1.1875 0.09375 2.25 0.09375 C 2.90625 0.09375 3.296875 -0.28125 3.46875 -0.46875 L 3.46875 0.09375 Z M 3.46875 -1.0625 C 3.46875 -0.90625 3.46875 -0.875 3.328125 -0.6875 C 3.0625 -0.296875 2.640625 -0.125 2.28125 -0.125 C 1.90625 -0.125 1.546875 -0.34375 1.3125 -0.71875 C 1.09375 -1.09375 1.0625 -1.625 1.0625 -1.90625 C 1.0625 -2.328125 1.125 -2.796875 1.359375 -3.15625 C 1.546875 -3.4375 1.921875 -3.71875 2.390625 -3.71875 C 2.765625 -3.71875 3.125 -3.53125 3.359375 -3.1875 C 3.46875 -3.046875 3.46875 -3.03125 3.46875 -2.875 Z M 3.46875 -1.0625 "/>
</g>
<g id="glyph-1-11">
<path d="M 4.78125 -1.921875 C 4.78125 -3.046875 3.90625 -3.9375 2.84375 -3.9375 C 2.375 -3.9375 1.921875 -3.734375 1.578125 -3.375 L 1.578125 -3.9375 L 0.265625 -3.84375 L 0.265625 -3.5625 C 0.90625 -3.5625 0.953125 -3.515625 0.953125 -3.125 L 0.953125 1.046875 C 0.953125 1.453125 0.859375 1.453125 0.265625 1.453125 L 0.265625 1.734375 C 0.6875 1.703125 0.859375 1.703125 1.28125 1.703125 C 1.703125 1.703125 1.828125 1.703125 2.296875 1.734375 L 2.296875 1.453125 C 1.703125 1.453125 1.609375 1.453125 1.609375 1.046875 L 1.609375 -0.421875 C 1.84375 -0.203125 2.140625 0.09375 2.734375 0.09375 C 3.796875 0.09375 4.78125 -0.75 4.78125 -1.921875 Z M 4.015625 -1.921875 C 4.015625 -0.90625 3.40625 -0.125 2.6875 -0.125 C 2.28125 -0.125 1.9375 -0.359375 1.734375 -0.671875 C 1.609375 -0.84375 1.609375 -0.859375 1.609375 -1.03125 L 1.609375 -3 C 1.921875 -3.515625 2.40625 -3.6875 2.78125 -3.6875 C 3.46875 -3.6875 4.015625 -2.890625 4.015625 -1.921875 Z M 4.015625 -1.921875 "/>
</g>
<g id="glyph-1-12">
<path d="M 3.046875 -1.109375 L 3.046875 -1.609375 L 2.796875 -1.609375 L 2.796875 -1.125 C 2.796875 -0.46875 2.515625 -0.15625 2.203125 -0.15625 C 1.609375 -0.15625 1.609375 -0.9375 1.609375 -1.09375 L 1.609375 -3.5625 L 2.890625 -3.5625 L 2.890625 -3.84375 L 1.609375 -3.84375 L 1.609375 -5.484375 L 1.359375 -5.484375 C 1.34375 -4.734375 1.03125 -3.8125 0.171875 -3.78125 L 0.171875 -3.5625 L 0.9375 -3.5625 L 0.9375 -1.109375 C 0.9375 -0.109375 1.671875 0.09375 2.140625 0.09375 C 2.734375 0.09375 3.046875 -0.46875 3.046875 -1.109375 Z M 3.046875 -1.109375 "/>
</g>
<g id="glyph-1-13">
<path d="M 7.421875 0 L 7.421875 -0.28125 C 6.96875 -0.28125 6.734375 -0.28125 6.734375 -0.546875 L 6.734375 -2.265625 C 6.734375 -3.03125 6.734375 -3.28125 6.4375 -3.609375 C 6.25 -3.828125 5.890625 -3.9375 5.484375 -3.9375 C 4.84375 -3.9375 4.40625 -3.5625 4.15625 -3.09375 C 4.046875 -3.609375 3.703125 -3.9375 2.953125 -3.9375 C 2.234375 -3.9375 1.796875 -3.46875 1.609375 -3.0625 L 1.609375 -3.9375 L 0.3125 -3.84375 L 0.3125 -3.5625 C 0.921875 -3.5625 1 -3.5 1 -3.0625 L 1 -0.6875 C 1 -0.28125 0.90625 -0.28125 0.3125 -0.28125 L 0.3125 0 C 0.734375 -0.015625 0.90625 -0.03125 1.328125 -0.03125 C 1.75 -0.03125 1.875 -0.015625 2.34375 0 L 2.34375 -0.28125 C 1.75 -0.28125 1.65625 -0.28125 1.65625 -0.6875 L 1.65625 -2.3125 C 1.65625 -3.265625 2.34375 -3.71875 2.890625 -3.71875 C 3.375 -3.71875 3.53125 -3.359375 3.53125 -2.75 L 3.53125 -0.6875 C 3.53125 -0.28125 3.4375 -0.28125 2.84375 -0.28125 L 2.84375 0 C 3.265625 -0.015625 3.4375 -0.03125 3.859375 -0.03125 C 4.296875 -0.03125 4.40625 -0.015625 4.875 0 L 4.875 -0.28125 C 4.296875 -0.28125 4.1875 -0.28125 4.1875 -0.6875 L 4.1875 -2.3125 C 4.1875 -3.265625 4.890625 -3.71875 5.421875 -3.71875 C 5.90625 -3.71875 6.078125 -3.359375 6.078125 -2.75 L 6.078125 -0.6875 C 6.078125 -0.28125 5.96875 -0.28125 5.390625 -0.28125 L 5.390625 0 C 5.8125 -0.015625 5.96875 -0.03125 6.40625 -0.03125 C 6.828125 -0.03125 6.953125 -0.015625 7.421875 0 Z M 7.421875 0 "/>
</g>
<g id="glyph-1-14">
<path d="M 3.296875 -1.140625 C 3.296875 -1.546875 3.125 -1.78125 2.921875 -1.984375 C 2.625 -2.28125 2.296875 -2.34375 1.640625 -2.46875 C 1.40625 -2.515625 0.75 -2.625 0.75 -3.140625 C 0.75 -3.421875 0.96875 -3.796875 1.765625 -3.796875 C 2.734375 -3.796875 2.796875 -3.0625 2.8125 -2.828125 C 2.828125 -2.71875 2.828125 -2.671875 2.9375 -2.671875 C 3.0625 -2.671875 3.0625 -2.734375 3.0625 -2.90625 L 3.0625 -3.765625 C 3.0625 -3.90625 3.0625 -3.984375 2.953125 -3.984375 C 2.90625 -3.984375 2.890625 -3.984375 2.78125 -3.890625 C 2.765625 -3.859375 2.6875 -3.78125 2.625 -3.734375 C 2.34375 -3.9375 2.078125 -3.984375 1.765625 -3.984375 C 0.59375 -3.984375 0.296875 -3.34375 0.296875 -2.890625 C 0.296875 -2.59375 0.421875 -2.375 0.625 -2.171875 C 0.9375 -1.890625 1.28125 -1.828125 1.734375 -1.75 C 2.1875 -1.671875 2.328125 -1.640625 2.53125 -1.484375 C 2.625 -1.421875 2.84375 -1.25 2.84375 -0.90625 C 2.84375 -0.125 1.9375 -0.125 1.8125 -0.125 C 0.90625 -0.125 0.671875 -0.875 0.5625 -1.359375 C 0.546875 -1.453125 0.53125 -1.5 0.421875 -1.5 C 0.296875 -1.5 0.296875 -1.4375 0.296875 -1.28125 L 0.296875 -0.140625 C 0.296875 0.015625 0.296875 0.09375 0.40625 0.09375 C 0.46875 0.09375 0.46875 0.09375 0.625 -0.078125 C 0.671875 -0.140625 0.765625 -0.25 0.8125 -0.296875 C 1.1875 0.078125 1.59375 0.09375 1.8125 0.09375 C 2.90625 0.09375 3.296875 -0.546875 3.296875 -1.140625 Z M 3.296875 -1.140625 "/>
</g>
<g id="glyph-1-15">
<path d="M 4.875 0 L 4.875 -0.28125 C 4.421875 -0.28125 4.1875 -0.28125 4.1875 -0.546875 L 4.1875 -2.265625 C 4.1875 -3 4.1875 -3.265625 3.9375 -3.578125 C 3.734375 -3.828125 3.390625 -3.9375 2.953125 -3.9375 C 2.34375 -3.9375 1.921875 -3.625 1.640625 -3.125 L 1.625 -3.125 L 1.625 -6.1875 L 0.3125 -6.078125 L 0.3125 -5.8125 C 0.921875 -5.8125 1 -5.75 1 -5.3125 L 1 -0.6875 C 1 -0.28125 0.90625 -0.28125 0.3125 -0.28125 L 0.3125 0 C 0.734375 -0.015625 0.90625 -0.03125 1.328125 -0.03125 C 1.75 -0.03125 1.875 -0.015625 2.34375 0 L 2.34375 -0.28125 C 1.75 -0.28125 1.65625 -0.28125 1.65625 -0.6875 L 1.65625 -2.3125 C 1.65625 -3.25 2.328125 -3.71875 2.890625 -3.71875 C 3.40625 -3.71875 3.53125 -3.28125 3.53125 -2.75 L 3.53125 -0.6875 C 3.53125 -0.28125 3.421875 -0.28125 2.84375 -0.28125 L 2.84375 0 C 3.265625 -0.015625 3.421875 -0.03125 3.859375 -0.03125 C 4.28125 -0.03125 4.40625 -0.015625 4.875 0 Z M 4.875 0 "/>
</g>
<g id="glyph-2-0">
<path d="M 3.3125 -1.234375 C 3.3125 -1.9375 2.625 -2.078125 2.359375 -2.140625 C 2.015625 -2.203125 1.75 -2.265625 1.75 -2.59375 C 1.75 -2.8125 1.9375 -3.265625 2.5625 -3.265625 C 2.8125 -3.265625 3.078125 -3.1875 3.171875 -2.9375 C 2.90625 -2.875 2.90625 -2.609375 2.90625 -2.609375 C 2.90625 -2.46875 3.015625 -2.375 3.140625 -2.375 C 3.171875 -2.375 3.5 -2.375 3.5 -2.8125 C 3.5 -3.28125 3.03125 -3.5 2.578125 -3.5 C 1.5 -3.5 1.25 -2.625 1.25 -2.328125 C 1.25 -2.125 1.34375 -1.90625 1.5 -1.765625 C 1.671875 -1.609375 1.765625 -1.59375 2.234375 -1.5 C 2.40625 -1.46875 2.828125 -1.375 2.828125 -0.96875 C 2.828125 -0.734375 2.625 -0.140625 1.75 -0.140625 C 1.578125 -0.140625 1.109375 -0.171875 0.953125 -0.53125 C 1.3125 -0.59375 1.3125 -0.890625 1.3125 -0.921875 C 1.3125 -1.0625 1.203125 -1.1875 1.03125 -1.1875 C 0.8125 -1.1875 0.625 -1.015625 0.625 -0.6875 C 0.625 -0.25 1.046875 0.078125 1.75 0.078125 C 3 0.078125 3.3125 -0.859375 3.3125 -1.234375 Z M 3.3125 -1.234375 "/>
</g>
<g id="glyph-2-1">
<path d="M 3.984375 -0.796875 C 3.984375 -0.859375 3.875 -0.953125 3.8125 -0.953125 C 3.765625 -0.953125 3.765625 -0.9375 3.6875 -0.859375 C 3.265625 -0.34375 2.640625 -0.140625 2.203125 -0.140625 C 1.65625 -0.140625 1.53125 -0.6875 1.53125 -1.046875 C 1.53125 -1.234375 1.578125 -1.5625 1.640625 -1.8125 L 2.09375 -1.8125 C 2.40625 -1.8125 3.890625 -1.8125 3.890625 -2.796875 C 3.890625 -3.203125 3.546875 -3.5 3 -3.5 C 2.140625 -3.5 0.9375 -2.75 0.9375 -1.34375 C 0.9375 -0.625 1.359375 0.078125 2.1875 0.078125 C 3.328125 0.078125 3.984375 -0.6875 3.984375 -0.796875 Z M 3.546875 -2.796875 C 3.546875 -2.03125 2.328125 -2.03125 2.03125 -2.03125 L 1.703125 -2.03125 C 1.96875 -3.015625 2.65625 -3.265625 3 -3.265625 C 3.28125 -3.265625 3.546875 -3.125 3.546875 -2.796875 Z M 4.265625 -5.265625 C 4.265625 -5.4375 4.140625 -5.515625 4.03125 -5.515625 C 3.90625 -5.515625 3.796875 -5.40625 3.796875 -5.40625 L 2.578125 -4.28125 C 2.5625 -4.25 2.5 -4.1875 2.5 -4.140625 C 2.5 -4.09375 2.5625 -3.96875 2.640625 -3.96875 C 2.671875 -3.96875 2.703125 -3.984375 2.75 -4.03125 L 4.09375 -4.984375 C 4.25 -5.109375 4.265625 -5.203125 4.265625 -5.265625 Z M 4.265625 -5.265625 "/>
</g>
<g id="glyph-2-2">
<path d="M 4.078125 -2.953125 C 4.078125 -3.40625 3.515625 -3.5 3.234375 -3.5 C 2.78125 -3.5 2.453125 -3.234375 2.21875 -2.953125 C 2.15625 -3.25 1.890625 -3.5 1.515625 -3.5 C 1.25 -3.5 1.046875 -3.34375 0.890625 -3.0625 C 0.75 -2.796875 0.640625 -2.328125 0.640625 -2.28125 C 0.640625 -2.171875 0.734375 -2.171875 0.78125 -2.171875 C 0.90625 -2.171875 0.921875 -2.203125 0.96875 -2.390625 C 1.078125 -2.859375 1.234375 -3.265625 1.5 -3.265625 C 1.71875 -3.265625 1.71875 -3 1.71875 -2.921875 C 1.71875 -2.8125 1.703125 -2.6875 1.671875 -2.578125 L 1.09375 -0.265625 C 1.078125 -0.1875 1.0625 -0.171875 1.0625 -0.140625 C 1.0625 -0.015625 1.171875 0.078125 1.3125 0.078125 C 1.53125 0.078125 1.609375 -0.109375 1.640625 -0.234375 L 2.125 -2.171875 C 2.140625 -2.28125 2.515625 -3.265625 3.234375 -3.265625 C 3.296875 -3.265625 3.53125 -3.265625 3.671875 -3.140625 C 3.421875 -3.046875 3.40625 -2.84375 3.40625 -2.78125 C 3.40625 -2.5625 3.578125 -2.515625 3.6875 -2.515625 C 3.828125 -2.515625 4.078125 -2.625 4.078125 -2.953125 Z M 4.078125 -2.953125 "/>
</g>
<g id="glyph-2-3">
<path d="M 3.984375 -0.796875 C 3.984375 -0.859375 3.875 -0.953125 3.8125 -0.953125 C 3.765625 -0.953125 3.765625 -0.9375 3.6875 -0.859375 C 3.265625 -0.34375 2.640625 -0.140625 2.203125 -0.140625 C 1.65625 -0.140625 1.53125 -0.6875 1.53125 -1.046875 C 1.53125 -1.234375 1.578125 -1.5625 1.640625 -1.8125 L 2.09375 -1.8125 C 2.40625 -1.8125 3.890625 -1.8125 3.890625 -2.796875 C 3.890625 -3.203125 3.546875 -3.5 3 -3.5 C 2.140625 -3.5 0.9375 -2.75 0.9375 -1.34375 C 0.9375 -0.625 1.359375 0.078125 2.1875 0.078125 C 3.328125 0.078125 3.984375 -0.6875 3.984375 -0.796875 Z M 3.546875 -2.796875 C 3.546875 -2.03125 2.328125 -2.03125 2.03125 -2.03125 L 1.703125 -2.03125 C 1.96875 -3.015625 2.65625 -3.265625 3 -3.265625 C 3.28125 -3.265625 3.546875 -3.125 3.546875 -2.796875 Z M 3.546875 -2.796875 "/>
</g>
<g id="glyph-2-4">
<path d="M 3.984375 -0.796875 C 3.984375 -0.859375 3.875 -0.953125 3.8125 -0.953125 C 3.765625 -0.953125 3.765625 -0.9375 3.6875 -0.859375 C 3.265625 -0.34375 2.640625 -0.140625 2.203125 -0.140625 C 1.78125 -0.140625 1.5 -0.4375 1.5 -0.984375 C 1.5 -1.375 1.6875 -2.078125 1.890625 -2.453125 C 2.25 -3.109375 2.734375 -3.265625 3.015625 -3.265625 C 3.109375 -3.265625 3.453125 -3.25 3.59375 -2.984375 C 3.25 -2.921875 3.25 -2.625 3.25 -2.59375 C 3.25 -2.46875 3.328125 -2.34375 3.53125 -2.34375 C 3.734375 -2.34375 3.9375 -2.5 3.9375 -2.8125 C 3.9375 -3.203125 3.5625 -3.5 3.015625 -3.5 C 1.984375 -3.5 0.90625 -2.421875 0.90625 -1.265625 C 0.90625 -0.453125 1.4375 0.078125 2.1875 0.078125 C 3.328125 0.078125 3.984375 -0.6875 3.984375 -0.796875 Z M 3.984375 -0.796875 "/>
</g>
<g id="glyph-2-5">
<path d="M 4.28125 -2.15625 C 4.28125 -2.984375 3.71875 -3.5 3.015625 -3.5 C 1.984375 -3.5 0.90625 -2.421875 0.90625 -1.265625 C 0.90625 -0.390625 1.5 0.078125 2.171875 0.078125 C 3.21875 0.078125 4.28125 -1.015625 4.28125 -2.15625 Z M 3.6875 -2.4375 C 3.6875 -2.171875 3.5625 -1.40625 3.234375 -0.875 C 2.984375 -0.4375 2.5625 -0.140625 2.171875 -0.140625 C 1.875 -0.140625 1.5 -0.34375 1.5 -0.984375 C 1.5 -1.34375 1.671875 -2.078125 1.921875 -2.515625 C 2.265625 -3.09375 2.734375 -3.265625 3 -3.265625 C 3.375 -3.265625 3.6875 -2.984375 3.6875 -2.4375 Z M 3.6875 -2.4375 "/>
</g>
<g id="glyph-2-6">
<path d="M 2.375 -1.140625 C 2.375 -1.234375 2.265625 -1.234375 2.21875 -1.234375 C 2.09375 -1.234375 2.09375 -1.203125 2.0625 -1.078125 C 1.953125 -0.671875 1.8125 -0.140625 1.53125 -0.140625 C 1.3125 -0.140625 1.3125 -0.390625 1.3125 -0.484375 C 1.3125 -0.53125 1.3125 -0.625 1.328125 -0.71875 L 2.46875 -5.265625 C 2.46875 -5.296875 2.484375 -5.359375 2.484375 -5.390625 C 2.484375 -5.5 2.359375 -5.5 2.28125 -5.484375 L 1.453125 -5.421875 C 1.34375 -5.40625 1.25 -5.40625 1.25 -5.265625 C 1.25 -5.15625 1.34375 -5.15625 1.453125 -5.15625 C 1.84375 -5.15625 1.84375 -5.109375 1.84375 -5.03125 C 1.84375 -4.984375 1.8125 -4.90625 1.8125 -4.859375 L 0.828125 -0.9375 C 0.78125 -0.78125 0.78125 -0.734375 0.78125 -0.65625 C 0.78125 -0.171875 1.15625 0.078125 1.515625 0.078125 C 1.671875 0.078125 1.921875 0.03125 2.125 -0.359375 C 2.265625 -0.640625 2.375 -1.09375 2.375 -1.140625 Z M 2.375 -1.140625 "/>
</g>
<g id="glyph-2-7">
<path d="M 4.5625 -1.140625 C 4.5625 -1.234375 4.4375 -1.234375 4.40625 -1.234375 C 4.265625 -1.234375 4.265625 -1.21875 4.21875 -1.015625 C 4.078125 -0.40625 3.90625 -0.140625 3.6875 -0.140625 C 3.46875 -0.140625 3.46875 -0.390625 3.46875 -0.484375 C 3.46875 -0.53125 3.46875 -0.625 3.5 -0.71875 L 4.625 -5.265625 C 4.640625 -5.296875 4.65625 -5.359375 4.65625 -5.390625 C 4.65625 -5.5 4.515625 -5.5 4.4375 -5.484375 L 3.609375 -5.421875 C 3.5 -5.40625 3.421875 -5.40625 3.421875 -5.265625 C 3.421875 -5.15625 3.515625 -5.15625 3.625 -5.15625 C 4 -5.15625 4 -5.109375 4 -5.03125 C 4 -4.984375 3.984375 -4.90625 3.96875 -4.859375 L 3.515625 -3.046875 C 3.34375 -3.328125 3.125 -3.5 2.78125 -3.5 C 1.859375 -3.5 0.890625 -2.328125 0.890625 -1.1875 C 0.890625 -0.421875 1.34375 0.078125 1.9375 0.078125 C 2.40625 0.078125 2.796875 -0.265625 2.96875 -0.453125 C 3.03125 -0.171875 3.296875 0.078125 3.671875 0.078125 C 3.96875 0.078125 4.15625 -0.09375 4.28125 -0.34375 C 4.453125 -0.65625 4.5625 -1.140625 4.5625 -1.140625 Z M 3.015625 -1.046875 C 2.953125 -0.78125 2.4375 -0.140625 1.96875 -0.140625 C 1.59375 -0.140625 1.46875 -0.546875 1.46875 -0.859375 C 1.46875 -1.234375 1.703125 -2.171875 1.90625 -2.53125 C 2.21875 -3.109375 2.5625 -3.265625 2.78125 -3.265625 C 3.28125 -3.265625 3.375 -2.59375 3.375 -2.515625 L 3.34375 -2.40625 Z M 3.015625 -1.046875 "/>
</g>
<g id="glyph-2-8">
<path d="M 2.8125 -1.140625 C 2.8125 -1.234375 2.703125 -1.234375 2.65625 -1.234375 C 2.53125 -1.234375 2.53125 -1.203125 2.484375 -1.0625 C 2.34375 -0.546875 2.078125 -0.140625 1.75 -0.140625 C 1.59375 -0.140625 1.578125 -0.25 1.578125 -0.390625 C 1.578125 -0.578125 1.625 -0.71875 1.75 -1.046875 L 2.28125 -2.421875 C 2.34375 -2.59375 2.375 -2.671875 2.375 -2.84375 C 2.375 -3.265625 2.046875 -3.5 1.71875 -3.5 C 0.953125 -3.5 0.640625 -2.390625 0.640625 -2.28125 C 0.640625 -2.171875 0.734375 -2.171875 0.78125 -2.171875 C 0.90625 -2.171875 0.921875 -2.203125 0.953125 -2.34375 C 1.0625 -2.75 1.3125 -3.265625 1.6875 -3.265625 C 1.84375 -3.265625 1.875 -3.171875 1.875 -3.03125 C 1.875 -2.84375 1.8125 -2.6875 1.71875 -2.421875 L 1.15625 -0.9375 C 1.125 -0.859375 1.0625 -0.71875 1.0625 -0.578125 C 1.0625 -0.21875 1.328125 0.078125 1.734375 0.078125 C 2.484375 0.078125 2.8125 -1.03125 2.8125 -1.140625 Z M 2.9375 -4.8125 C 2.9375 -5.09375 2.71875 -5.1875 2.578125 -5.1875 C 2.3125 -5.1875 2.046875 -4.9375 2.046875 -4.671875 C 2.046875 -4.421875 2.21875 -4.296875 2.40625 -4.296875 C 2.671875 -4.296875 2.9375 -4.53125 2.9375 -4.8125 Z M 2.9375 -4.8125 "/>
</g>
<g id="glyph-3-0">
<path d="M 4.390625 1.53125 L 4.390625 1.28125 C 3.890625 1.28125 3.796875 1.28125 3.796875 0.921875 L 3.796875 -3.5 L 3.578125 -3.5 L 3.28125 -2.796875 C 3.015625 -3.21875 2.640625 -3.5 2.140625 -3.5 C 1.15625 -3.5 0.28125 -2.71875 0.28125 -1.703125 C 0.28125 -0.71875 1.09375 0.078125 2.0625 0.078125 C 2.640625 0.078125 3 -0.234375 3.1875 -0.46875 L 3.1875 0.921875 C 3.1875 1.28125 3.09375 1.28125 2.59375 1.28125 L 2.59375 1.53125 C 2.9375 1.515625 3.28125 1.515625 3.5 1.515625 C 3.71875 1.515625 4.0625 1.515625 4.390625 1.53125 Z M 3.21875 -1.125 C 3.21875 -1 3.21875 -0.953125 3.09375 -0.75 C 2.796875 -0.265625 2.390625 -0.140625 2.109375 -0.140625 C 1.484375 -0.140625 0.984375 -0.84375 0.984375 -1.703125 C 0.984375 -2.609375 1.5625 -3.25 2.1875 -3.25 C 2.84375 -3.25 3.21875 -2.609375 3.21875 -2.171875 Z M 3.21875 -1.125 "/>
</g>
<g id="glyph-3-1">
<path d="M 4.453125 0 L 4.453125 -0.265625 C 3.90625 -0.265625 3.84375 -0.3125 3.84375 -0.703125 L 3.84375 -3.5 L 2.640625 -3.40625 L 2.640625 -3.140625 C 3.1875 -3.140625 3.25 -3.09375 3.25 -2.703125 L 3.25 -1.328125 C 3.25 -0.640625 2.84375 -0.140625 2.234375 -0.140625 C 1.5625 -0.140625 1.53125 -0.484375 1.53125 -0.875 L 1.53125 -3.5 L 0.328125 -3.40625 L 0.328125 -3.140625 C 0.921875 -3.140625 0.921875 -3.125 0.921875 -2.421875 L 0.921875 -1.234375 C 0.921875 -0.65625 0.921875 0.078125 2.1875 0.078125 C 2.9375 0.078125 3.21875 -0.484375 3.265625 -0.5625 L 3.265625 0.078125 Z M 4.453125 0 "/>
</g>
<g id="glyph-3-2">
<path d="M 3.5 -0.953125 C 3.5 -0.984375 3.46875 -1.0625 3.359375 -1.0625 C 3.28125 -1.0625 3.265625 -1 3.25 -0.953125 C 2.96875 -0.1875 2.28125 -0.171875 2.140625 -0.171875 C 1.78125 -0.171875 1.421875 -0.328125 1.1875 -0.703125 C 0.9375 -1.0625 0.9375 -1.5625 0.9375 -1.8125 L 3.265625 -1.8125 C 3.453125 -1.8125 3.5 -1.8125 3.5 -1.984375 C 3.5 -2.6875 3.109375 -3.53125 1.984375 -3.53125 C 1 -3.53125 0.234375 -2.71875 0.234375 -1.734375 C 0.234375 -0.71875 1.09375 0.078125 2.09375 0.078125 C 3.09375 0.078125 3.5 -0.765625 3.5 -0.953125 Z M 2.953125 -2.015625 L 0.953125 -2.015625 C 1.015625 -3.125 1.6875 -3.3125 1.984375 -3.3125 C 2.921875 -3.3125 2.953125 -2.1875 2.953125 -2.015625 Z M 2.921875 -5.21875 C 2.921875 -5.390625 2.75 -5.53125 2.609375 -5.53125 C 2.578125 -5.53125 2.46875 -5.53125 2.359375 -5.40625 L 1.34375 -4.203125 L 1.515625 -4.015625 L 2.75 -4.953125 C 2.84375 -5.015625 2.921875 -5.078125 2.921875 -5.21875 Z M 2.921875 -5.21875 "/>
</g>
<g id="glyph-3-3">
<path d="M 4.453125 0 L 4.453125 -0.265625 C 3.9375 -0.265625 3.84375 -0.265625 3.84375 -0.625 L 3.84375 -2.40625 C 3.84375 -3.0625 3.546875 -3.5 2.71875 -3.5 C 2.015625 -3.5 1.65625 -3.046875 1.515625 -2.796875 L 1.5 -2.796875 L 1.5 -5.5 L 0.328125 -5.40625 L 0.328125 -5.15625 C 0.859375 -5.15625 0.921875 -5.09375 0.921875 -4.703125 L 0.921875 -0.625 C 0.921875 -0.265625 0.828125 -0.265625 0.328125 -0.265625 L 0.328125 0 C 0.671875 -0.03125 1.015625 -0.03125 1.234375 -0.03125 C 1.453125 -0.03125 1.796875 -0.03125 2.125 0 L 2.125 -0.265625 C 1.625 -0.265625 1.53125 -0.265625 1.53125 -0.625 L 1.53125 -2.046875 C 1.53125 -2.890625 2.15625 -3.265625 2.640625 -3.265625 C 3.125 -3.265625 3.25 -2.9375 3.25 -2.4375 L 3.25 -0.625 C 3.25 -0.265625 3.15625 -0.265625 2.640625 -0.265625 L 2.640625 0 C 2.984375 -0.03125 3.328125 -0.03125 3.546875 -0.03125 C 3.78125 -0.03125 4.109375 -0.03125 4.453125 0 Z M 4.453125 0 "/>
</g>
<g id="glyph-3-4">
<path d="M 4.078125 -0.71875 L 4.078125 -1.15625 L 3.828125 -1.15625 L 3.828125 -0.71875 C 3.828125 -0.390625 3.703125 -0.265625 3.546875 -0.265625 C 3.25 -0.265625 3.25 -0.625 3.25 -0.71875 L 3.25 -2.359375 C 3.25 -3.140625 2.5 -3.53125 1.78125 -3.53125 C 1.109375 -3.53125 0.53125 -3.28125 0.53125 -2.75 C 0.53125 -2.515625 0.703125 -2.375 0.90625 -2.375 C 1.125 -2.375 1.28125 -2.53125 1.28125 -2.75 C 1.28125 -2.9375 1.15625 -3.078125 0.984375 -3.109375 C 1.28125 -3.3125 1.703125 -3.3125 1.765625 -3.3125 C 2.203125 -3.3125 2.640625 -3 2.640625 -2.359375 L 2.640625 -2.109375 C 2.1875 -2.078125 1.65625 -2.0625 1.09375 -1.828125 C 0.40625 -1.53125 0.265625 -1.0625 0.265625 -0.8125 C 0.265625 -0.125 1.0625 0.078125 1.609375 0.078125 C 2.1875 0.078125 2.546875 -0.25 2.71875 -0.5625 C 2.765625 -0.265625 2.96875 0.046875 3.3125 0.046875 C 3.40625 0.046875 4.078125 0.015625 4.078125 -0.71875 Z M 2.640625 -1.109375 C 2.640625 -0.34375 2 -0.140625 1.671875 -0.140625 C 1.265625 -0.140625 0.921875 -0.421875 0.921875 -0.796875 C 0.921875 -1.328125 1.40625 -1.859375 2.640625 -1.90625 Z M 2.640625 -1.109375 "/>
</g>
<g id="glyph-3-5">
<path d="M 3.03125 -1.015625 C 3.03125 -1.40625 2.796875 -1.953125 1.859375 -2.125 C 1.796875 -2.140625 1.359375 -2.21875 1.328125 -2.21875 C 1.078125 -2.28125 0.703125 -2.453125 0.703125 -2.765625 C 0.703125 -3 0.875 -3.328125 1.625 -3.328125 C 2.515625 -3.328125 2.5625 -2.6875 2.578125 -2.46875 C 2.578125 -2.40625 2.640625 -2.375 2.6875 -2.375 C 2.8125 -2.375 2.8125 -2.4375 2.8125 -2.578125 L 2.8125 -3.328125 C 2.8125 -3.453125 2.8125 -3.53125 2.71875 -3.53125 C 2.671875 -3.53125 2.65625 -3.53125 2.53125 -3.40625 C 2.515625 -3.40625 2.4375 -3.328125 2.421875 -3.328125 C 2.421875 -3.328125 2.390625 -3.328125 2.34375 -3.359375 C 2.21875 -3.453125 1.984375 -3.53125 1.625 -3.53125 C 0.515625 -3.53125 0.28125 -2.9375 0.28125 -2.546875 C 0.28125 -2.15625 0.578125 -1.921875 0.59375 -1.90625 C 0.90625 -1.65625 1.09375 -1.625 1.625 -1.53125 C 2 -1.46875 2.609375 -1.359375 2.609375 -0.8125 C 2.609375 -0.5 2.40625 -0.140625 1.671875 -0.140625 C 0.875 -0.140625 0.640625 -0.765625 0.53125 -1.1875 C 0.5 -1.28125 0.5 -1.328125 0.40625 -1.328125 C 0.28125 -1.328125 0.28125 -1.265625 0.28125 -1.109375 L 0.28125 -0.125 C 0.28125 0 0.28125 0.078125 0.375 0.078125 C 0.421875 0.078125 0.4375 0.078125 0.578125 -0.078125 C 0.625 -0.125 0.703125 -0.21875 0.75 -0.265625 C 1.09375 0.0625 1.46875 0.078125 1.671875 0.078125 C 2.6875 0.078125 3.03125 -0.5 3.03125 -1.015625 Z M 3.03125 -1.015625 "/>
</g>
<g id="glyph-3-6">
<path d="M 2.796875 -0.984375 L 2.796875 -1.4375 L 2.546875 -1.4375 L 2.546875 -1 C 2.546875 -0.453125 2.3125 -0.171875 2 -0.171875 C 1.46875 -0.171875 1.46875 -0.84375 1.46875 -0.96875 L 1.46875 -3.15625 L 2.65625 -3.15625 L 2.65625 -3.421875 L 1.46875 -3.421875 L 1.46875 -4.875 L 1.234375 -4.875 C 1.21875 -4.15625 0.890625 -3.40625 0.15625 -3.375 L 0.15625 -3.15625 L 0.875 -3.15625 L 0.875 -0.984375 C 0.875 -0.0625 1.578125 0.078125 1.953125 0.078125 C 2.484375 0.078125 2.796875 -0.390625 2.796875 -0.984375 Z M 2.796875 -0.984375 "/>
</g>
<g id="glyph-3-7">
<path d="M 3.5 -0.953125 C 3.5 -1.046875 3.390625 -1.046875 3.359375 -1.046875 C 3.3125 -1.046875 3.265625 -1.03125 3.25 -0.953125 C 3.1875 -0.796875 2.96875 -0.171875 2.171875 -0.171875 C 1.6875 -0.171875 0.984375 -0.546875 0.984375 -1.71875 C 0.984375 -2.859375 1.5625 -3.28125 2.140625 -3.28125 C 2.21875 -3.28125 2.640625 -3.28125 2.921875 -3.140625 C 2.6875 -3.078125 2.65625 -2.890625 2.65625 -2.796875 C 2.65625 -2.578125 2.8125 -2.421875 3.03125 -2.421875 C 3.234375 -2.421875 3.40625 -2.5625 3.40625 -2.796875 C 3.40625 -3.296875 2.875 -3.53125 2.125 -3.53125 C 1.015625 -3.53125 0.28125 -2.65625 0.28125 -1.71875 C 0.28125 -0.703125 1.09375 0.078125 2.09375 0.078125 C 3.21875 0.078125 3.5 -0.859375 3.5 -0.953125 Z M 3.5 -0.953125 "/>
</g>
<g id="glyph-3-8">
<path d="M 4.078125 -0.71875 L 4.078125 -1.15625 L 3.828125 -1.15625 L 3.828125 -0.71875 C 3.828125 -0.390625 3.703125 -0.265625 3.546875 -0.265625 C 3.25 -0.265625 3.25 -0.625 3.25 -0.71875 L 3.25 -2.359375 C 3.25 -3.140625 2.5 -3.53125 1.78125 -3.53125 C 1.109375 -3.53125 0.53125 -3.28125 0.53125 -2.75 C 0.53125 -2.515625 0.703125 -2.375 0.90625 -2.375 C 1.125 -2.375 1.28125 -2.53125 1.28125 -2.75 C 1.28125 -2.9375 1.15625 -3.078125 0.984375 -3.109375 C 1.28125 -3.3125 1.703125 -3.3125 1.765625 -3.3125 C 2.203125 -3.3125 2.640625 -3 2.640625 -2.359375 L 2.640625 -2.109375 C 2.1875 -2.078125 1.65625 -2.0625 1.09375 -1.828125 C 0.40625 -1.53125 0.265625 -1.0625 0.265625 -0.8125 C 0.265625 -0.125 1.0625 0.078125 1.609375 0.078125 C 2.1875 0.078125 2.546875 -0.25 2.71875 -0.5625 C 2.765625 -0.265625 2.96875 0.046875 3.3125 0.046875 C 3.40625 0.046875 4.078125 0.015625 4.078125 -0.71875 Z M 2.640625 -1.109375 C 2.640625 -0.34375 2 -0.140625 1.671875 -0.140625 C 1.265625 -0.140625 0.921875 -0.421875 0.921875 -0.796875 C 0.921875 -1.328125 1.40625 -1.859375 2.640625 -1.90625 Z M 3.15625 -5.21875 C 3.15625 -5.390625 2.984375 -5.53125 2.84375 -5.53125 C 2.8125 -5.53125 2.703125 -5.53125 2.59375 -5.40625 L 1.578125 -4.203125 L 1.75 -4.015625 L 3 -4.953125 C 3.078125 -5.015625 3.15625 -5.078125 3.15625 -5.21875 Z M 3.15625 -5.21875 "/>
</g>
<g id="glyph-3-9">
<path d="M 4.453125 0 L 4.453125 -0.265625 C 3.9375 -0.265625 3.84375 -0.265625 3.84375 -0.625 L 3.84375 -2.40625 C 3.84375 -3.0625 3.546875 -3.5 2.71875 -3.5 C 1.9375 -3.5 1.578125 -2.921875 1.484375 -2.734375 L 1.46875 -2.734375 L 1.46875 -3.5 L 0.328125 -3.40625 L 0.328125 -3.140625 C 0.859375 -3.140625 0.921875 -3.09375 0.921875 -2.703125 L 0.921875 -0.625 C 0.921875 -0.265625 0.828125 -0.265625 0.328125 -0.265625 L 0.328125 0 C 0.671875 -0.03125 1.015625 -0.03125 1.234375 -0.03125 C 1.453125 -0.03125 1.796875 -0.03125 2.125 0 L 2.125 -0.265625 C 1.625 -0.265625 1.53125 -0.265625 1.53125 -0.625 L 1.53125 -2.046875 C 1.53125 -2.890625 2.15625 -3.265625 2.640625 -3.265625 C 3.125 -3.265625 3.25 -2.9375 3.25 -2.4375 L 3.25 -0.625 C 3.25 -0.265625 3.15625 -0.265625 2.640625 -0.265625 L 2.640625 0 C 2.984375 -0.03125 3.328125 -0.03125 3.546875 -0.03125 C 3.78125 -0.03125 4.109375 -0.03125 4.453125 0 Z M 4.453125 0 "/>
</g>
<g id="glyph-3-10">
<path d="M 4.390625 0 L 4.390625 -0.265625 C 3.84375 -0.265625 3.78125 -0.3125 3.78125 -0.703125 L 3.78125 -5.5 L 2.609375 -5.40625 L 2.609375 -5.15625 C 3.140625 -5.15625 3.203125 -5.09375 3.203125 -4.703125 L 3.203125 -3.03125 C 2.9375 -3.328125 2.5625 -3.5 2.140625 -3.5 C 1.15625 -3.5 0.28125 -2.71875 0.28125 -1.703125 C 0.28125 -0.734375 1.0625 0.078125 2.0625 0.078125 C 2.53125 0.078125 2.921875 -0.140625 3.1875 -0.421875 L 3.1875 0.078125 Z M 3.1875 -0.984375 C 3.1875 -0.84375 3.1875 -0.8125 3.0625 -0.65625 C 2.84375 -0.328125 2.484375 -0.140625 2.109375 -0.140625 C 1.75 -0.140625 1.421875 -0.328125 1.234375 -0.625 C 1.015625 -0.9375 0.984375 -1.328125 0.984375 -1.6875 C 0.984375 -2.15625 1.046875 -2.484375 1.234375 -2.75 C 1.421875 -3.046875 1.78125 -3.265625 2.1875 -3.265625 C 2.5625 -3.265625 2.953125 -3.078125 3.1875 -2.671875 Z M 3.1875 -0.984375 "/>
</g>
<g id="glyph-3-11">
<path d="M 3.96875 -1.6875 C 3.96875 -2.671875 3.140625 -3.53125 2.09375 -3.53125 C 1.046875 -3.53125 0.234375 -2.671875 0.234375 -1.6875 C 0.234375 -0.703125 1.078125 0.078125 2.09375 0.078125 C 3.125 0.078125 3.96875 -0.703125 3.96875 -1.6875 Z M 3.25 -1.765625 C 3.25 -1.390625 3.234375 -0.953125 3.015625 -0.625 C 2.796875 -0.3125 2.453125 -0.171875 2.09375 -0.171875 C 1.671875 -0.171875 1.34375 -0.375 1.171875 -0.65625 C 0.96875 -0.96875 0.9375 -1.359375 0.9375 -1.765625 C 0.9375 -2.0625 0.9375 -2.53125 1.1875 -2.875 C 1.390625 -3.15625 1.734375 -3.3125 2.09375 -3.3125 C 2.515625 -3.3125 2.859375 -3.109375 3.03125 -2.84375 C 3.25 -2.5 3.25 -2.078125 3.25 -1.765625 Z M 3.25 -1.765625 "/>
</g>
<g id="glyph-3-12">
<path d="M 3.5 -0.953125 C 3.5 -0.984375 3.46875 -1.0625 3.359375 -1.0625 C 3.28125 -1.0625 3.265625 -1 3.25 -0.953125 C 2.96875 -0.1875 2.28125 -0.171875 2.140625 -0.171875 C 1.78125 -0.171875 1.421875 -0.328125 1.1875 -0.703125 C 0.9375 -1.0625 0.9375 -1.5625 0.9375 -1.8125 L 3.265625 -1.8125 C 3.453125 -1.8125 3.5 -1.8125 3.5 -1.984375 C 3.5 -2.6875 3.109375 -3.53125 1.984375 -3.53125 C 1 -3.53125 0.234375 -2.71875 0.234375 -1.734375 C 0.234375 -0.71875 1.09375 0.078125 2.09375 0.078125 C 3.09375 0.078125 3.5 -0.765625 3.5 -0.953125 Z M 2.953125 -2.015625 L 0.953125 -2.015625 C 1.015625 -3.125 1.6875 -3.3125 1.984375 -3.3125 C 2.921875 -3.3125 2.953125 -2.1875 2.953125 -2.015625 Z M 2.953125 -2.015625 "/>
</g>
<g id="glyph-3-13">
<path d="M 3.046875 -3 C 3.046875 -3.265625 2.78125 -3.5 2.4375 -3.5 C 1.921875 -3.5 1.578125 -3.109375 1.40625 -2.65625 L 1.40625 -3.5 L 0.28125 -3.40625 L 0.28125 -3.140625 C 0.8125 -3.140625 0.875 -3.09375 0.875 -2.703125 L 0.875 -0.625 C 0.875 -0.265625 0.78125 -0.265625 0.28125 -0.265625 L 0.28125 0 C 0.59375 -0.03125 1.015625 -0.03125 1.21875 -0.03125 C 1.671875 -0.03125 1.6875 -0.03125 2.203125 0 L 2.203125 -0.265625 L 2.046875 -0.265625 C 1.46875 -0.265625 1.453125 -0.34375 1.453125 -0.640625 L 1.453125 -1.8125 C 1.453125 -2.40625 1.703125 -3.25 2.46875 -3.265625 C 2.421875 -3.234375 2.34375 -3.171875 2.34375 -3 C 2.34375 -2.75 2.53125 -2.640625 2.6875 -2.640625 C 2.875 -2.640625 3.046875 -2.765625 3.046875 -3 Z M 3.046875 -3 "/>
</g>
</g>
<clipPath id="clip-0">
<path clip-rule="nonzero" d="M 0.578125 0 L 100 0 L 100 45 L 0.578125 45 Z M 0.578125 0 "/>
</clipPath>
<clipPath id="clip-1">
<path clip-rule="nonzero" d="M 201 0 L 277.976562 0 L 277.976562 44 L 201 44 Z M 201 0 "/>
</clipPath>
</defs>
<path fill-rule="nonzero" fill="rgb(87.998962%, 93.363953%, 96.374512%)" fill-opacity="1" d="M 92.34375 4.03125 L 5.726562 4.03125 C 4.632812 4.03125 3.746094 4.917969 3.746094 6.011719 L 3.746094 36.605469 C 3.746094 37.699219 4.632812 38.585938 5.726562 38.585938 L 92.34375 38.585938 C 93.433594 38.585938 94.320312 37.699219 94.320312 36.605469 L 94.320312 6.011719 C 94.320312 4.917969 93.433594 4.03125 92.34375 4.03125 Z M 92.34375 4.03125 "/>
<g clip-path="url(#clip-0)">
<path fill="none" stroke-width="0.3985" stroke-linecap="butt" stroke-linejoin="miter" stroke="rgb(39.99939%, 66.822815%, 81.881714%)" stroke-opacity="1" stroke-miterlimit="10" d="M 43.603504 17.394453 L -43.600199 17.394453 C -44.701355 17.394453 -45.594078 16.50173 -45.594078 15.400574 L -45.594078 -15.400337 C -45.594078 -16.501493 -44.701355 -17.394216 -43.600199 -17.394216 L 43.603504 -17.394216 C 44.700728 -17.394216 45.593451 -16.501493 45.593451 -15.400337 L 45.593451 15.400574 C 45.593451 16.50173 44.700728 17.394453 43.603504 17.394453 Z M 43.603504 17.394453 " transform="matrix(0.993274, 0, 0, -0.993274, 49.033515, 21.308711)"/>
</g>
<g fill="rgb(0%, 0%, 0%)" fill-opacity="1">
<use xlink:href="#glyph-0-0" x="18.641311" y="13.515482"/>
<use xlink:href="#glyph-0-1" x="23.31701" y="13.515482"/>
<use xlink:href="#glyph-0-2" x="27.992709" y="13.515482"/>
</g>
<g fill="rgb(0%, 0%, 0%)" fill-opacity="1">
<use xlink:href="#glyph-0-3" x="37.344108" y="13.515482"/>
<use xlink:href="#glyph-0-4" x="42.019807" y="13.515482"/>
</g>
<g fill="rgb(0%, 0%, 0%)" fill-opacity="1">
<use xlink:href="#glyph-0-5" x="51.371205" y="13.515482"/>
<use xlink:href="#glyph-0-6" x="56.046905" y="13.515482"/>
</g>
<g fill="rgb(0%, 0%, 0%)" fill-opacity="1">
<use xlink:href="#glyph-0-4" x="65.398303" y="13.515482"/>
<use xlink:href="#glyph-0-7" x="70.074002" y="13.515482"/>
<use xlink:href="#glyph-0-8" x="74.749701" y="13.515482"/>
</g>
<g fill="rgb(0%, 0%, 0%)" fill-opacity="1">
<use xlink:href="#glyph-1-0" x="7.044835" y="24.400774"/>
<use xlink:href="#glyph-1-1" x="10.625084" y="24.400774"/>
<use xlink:href="#glyph-1-2" x="14.69695" y="24.400774"/>
<use xlink:href="#glyph-1-3" x="18.765254" y="24.400774"/>
<use xlink:href="#glyph-1-0" x="23.342096" y="24.400774"/>
<use xlink:href="#glyph-1-0" x="26.922345" y="24.400774"/>
<use xlink:href="#glyph-1-1" x="30.502595" y="24.400774"/>
</g>
<g fill="rgb(0%, 0%, 0%)" fill-opacity="1">
<use xlink:href="#glyph-1-4" x="37.620345" y="24.400774"/>
<use xlink:href="#glyph-1-5" x="42.705725" y="24.400774"/>
<use xlink:href="#glyph-1-6" x="47.791104" y="24.400774"/>
</g>
<g fill="rgb(0%, 0%, 0%)" fill-opacity="1">
<use xlink:href="#glyph-1-2" x="55.422736" y="24.400774"/>
<use xlink:href="#glyph-1-3" x="59.491039" y="24.400774"/>
<use xlink:href="#glyph-1-7" x="64.067881" y="24.400774"/>
<use xlink:href="#glyph-1-1" x="66.610571" y="24.400774"/>
<use xlink:href="#glyph-1-2" x="70.682437" y="24.400774"/>
<use xlink:href="#glyph-1-2" x="74.75074" y="24.400774"/>
<use xlink:href="#glyph-1-8" x="78.819044" y="24.400774"/>
<use xlink:href="#glyph-1-9" x="81.361734" y="24.400774"/>
<use xlink:href="#glyph-1-5" x="85.938575" y="24.400774"/>
</g>
<g fill="rgb(0%, 0%, 0%)" fill-opacity="1">
<use xlink:href="#glyph-1-2" x="31.616452" y="35.286066"/>
<use xlink:href="#glyph-1-3" x="35.684755" y="35.286066"/>
<use xlink:href="#glyph-1-5" x="40.261597" y="35.286066"/>
<use xlink:href="#glyph-1-3" x="45.346976" y="35.286066"/>
</g>
<g fill="rgb(0%, 0%, 0%)" fill-opacity="1">
<use xlink:href="#glyph-1-2" x="50.182095" y="35.286066"/>
</g>
<g fill="rgb(0%, 0%, 0%)" fill-opacity="1">
<use xlink:href="#glyph-1-8" x="54.241492" y="35.286066"/>
<use xlink:href="#glyph-1-10" x="56.784182" y="35.286066"/>
<use xlink:href="#glyph-1-6" x="61.869561" y="35.286066"/>
</g>
<path fill-rule="nonzero" fill="rgb(87.998962%, 93.363953%, 96.374512%)" fill-opacity="1" stroke-width="0.3985" stroke-linecap="butt" stroke-linejoin="miter" stroke="rgb(39.99939%, 66.822815%, 81.881714%)" stroke-opacity="1" stroke-miterlimit="10" d="M 134.091012 18.26358 L 70.664417 18.26358 C 69.563261 18.26358 68.670538 17.370857 68.670538 16.273633 L 68.670538 -16.273397 C 68.670538 -17.374553 69.563261 -18.263343 70.664417 -18.263343 L 134.091012 -18.263343 C 135.192168 -18.263343 136.084891 -17.374553 136.084891 -16.273397 L 136.084891 16.273633 C 136.084891 17.370857 135.192168 18.26358 134.091012 18.26358 Z M 134.091012 18.26358 " transform="matrix(0.993274, 0, 0, -0.993274, 49.033515, 21.308711)"/>
<g fill="rgb(0%, 0%, 0%)" fill-opacity="1">
<use xlink:href="#glyph-0-9" x="122.665924" y="12.649347"/>
<use xlink:href="#glyph-0-10" x="127.341623" y="12.649347"/>
<use xlink:href="#glyph-0-5" x="132.017322" y="12.649347"/>
<use xlink:href="#glyph-0-11" x="136.693021" y="12.649347"/>
<use xlink:href="#glyph-0-12" x="141.368721" y="12.649347"/>
</g>
<g fill="rgb(0%, 0%, 0%)" fill-opacity="1">
<use xlink:href="#glyph-0-3" x="150.720119" y="12.649347"/>
<use xlink:href="#glyph-0-13" x="155.395818" y="12.649347"/>
<use xlink:href="#glyph-0-1" x="160.071518" y="12.649347"/>
<use xlink:href="#glyph-0-6" x="164.747217" y="12.649347"/>
<use xlink:href="#glyph-0-14" x="169.422916" y="12.649347"/>
<use xlink:href="#glyph-0-8" x="174.098615" y="12.649347"/>
</g>
<g fill="rgb(0%, 0%, 0%)" fill-opacity="1">
<use xlink:href="#glyph-1-0" x="120.539324" y="23.534639"/>
<use xlink:href="#glyph-1-1" x="124.119573" y="23.534639"/>
<use xlink:href="#glyph-1-11" x="128.19144" y="23.534639"/>
<use xlink:href="#glyph-1-8" x="133.276819" y="23.534639"/>
<use xlink:href="#glyph-1-12" x="135.819509" y="23.534639"/>
<use xlink:href="#glyph-1-1" x="139.379274" y="23.534639"/>
</g>
<g fill="rgb(0%, 0%, 0%)" fill-opacity="1">
<use xlink:href="#glyph-1-13" x="146.505931" y="23.534639"/>
<use xlink:href="#glyph-1-8" x="154.133109" y="23.534639"/>
<use xlink:href="#glyph-1-1" x="156.675799" y="23.534639"/>
<use xlink:href="#glyph-1-5" x="160.747665" y="23.534639"/>
</g>
<g fill="rgb(0%, 0%, 0%)" fill-opacity="1">
<use xlink:href="#glyph-1-12" x="165.574768" y="23.534639"/>
<use xlink:href="#glyph-1-0" x="169.134534" y="23.534639"/>
<use xlink:href="#glyph-1-6" x="172.714783" y="23.534639"/>
<use xlink:href="#glyph-1-14" x="177.291625" y="23.534639"/>
</g>
<g fill="rgb(0%, 0%, 0%)" fill-opacity="1">
<use xlink:href="#glyph-1-14" x="130.860436" y="34.419931"/>
<use xlink:href="#glyph-1-1" x="134.470966" y="34.419931"/>
</g>
<g fill="rgb(0%, 0%, 0%)" fill-opacity="1">
<use xlink:href="#glyph-1-2" x="141.597623" y="34.419931"/>
<use xlink:href="#glyph-1-4" x="145.665926" y="34.419931"/>
<use xlink:href="#glyph-1-13" x="150.751306" y="34.419931"/>
<use xlink:href="#glyph-1-11" x="158.378484" y="34.419931"/>
<use xlink:href="#glyph-1-7" x="163.463864" y="34.419931"/>
<use xlink:href="#glyph-1-6" x="166.006554" y="34.419931"/>
</g>
<path fill-rule="nonzero" fill="rgb(97.033691%, 88.633728%, 81.999207%)" fill-opacity="1" d="M 272.832031 4.617188 L 209.101562 4.617188 C 208.007812 4.617188 207.121094 5.5 207.121094 6.59375 L 207.121094 36.023438 C 207.121094 37.117188 208.007812 38 209.101562 38 L 272.832031 38 C 273.925781 38 274.8125 37.117188 274.8125 36.023438 L 274.8125 6.59375 C 274.8125 5.5 273.925781 4.617188 272.832031 4.617188 Z M 272.832031 4.617188 "/>
<g clip-path="url(#clip-1)">
<path fill="none" stroke-width="0.3985" stroke-linecap="butt" stroke-linejoin="miter" stroke="rgb(88.468933%, 55.802917%, 29.998779%)" stroke-opacity="1" stroke-miterlimit="10" d="M 225.313935 16.804548 L 161.151925 16.804548 C 160.050768 16.804548 159.158045 15.915758 159.158045 14.814601 L 159.158045 -14.814365 C 159.158045 -15.915521 160.050768 -16.804311 161.151925 -16.804311 L 225.313935 -16.804311 C 226.415091 -16.804311 227.307814 -15.915521 227.307814 -14.814365 L 227.307814 14.814601 C 227.307814 15.915758 226.415091 16.804548 225.313935 16.804548 Z M 225.313935 16.804548 " transform="matrix(0.993274, 0, 0, -0.993274, 49.033515, 21.308711)"/>
</g>
<g fill="rgb(0%, 0%, 0%)" fill-opacity="1">
<use xlink:href="#glyph-0-2" x="226.937862" y="12.93243"/>
<use xlink:href="#glyph-0-12" x="231.613561" y="12.93243"/>
<use xlink:href="#glyph-0-15" x="236.289261" y="12.93243"/>
<use xlink:href="#glyph-0-12" x="240.96496" y="12.93243"/>
<use xlink:href="#glyph-0-16" x="245.640659" y="12.93243"/>
<use xlink:href="#glyph-0-17" x="250.316358" y="12.93243"/>
</g>
<g fill="rgb(0%, 0%, 0%)" fill-opacity="1">
<use xlink:href="#glyph-1-15" x="210.417726" y="23.817722"/>
<use xlink:href="#glyph-1-6" x="215.503105" y="23.817722"/>
<use xlink:href="#glyph-1-14" x="220.079947" y="23.817722"/>
<use xlink:href="#glyph-1-12" x="223.690477" y="23.817722"/>
<use xlink:href="#glyph-1-6" x="227.250243" y="23.817722"/>
</g>
<g fill="rgb(0%, 0%, 0%)" fill-opacity="1">
<use xlink:href="#glyph-1-4" x="234.881875" y="23.817722"/>
<use xlink:href="#glyph-1-5" x="239.967254" y="23.817722"/>
</g>
<g fill="rgb(0%, 0%, 0%)" fill-opacity="1">
<use xlink:href="#glyph-0-18" x="248.13334" y="23.817722"/>
<use xlink:href="#glyph-0-2" x="252.809039" y="23.817722"/>
<use xlink:href="#glyph-0-12" x="257.484739" y="23.817722"/>
<use xlink:href="#glyph-0-16" x="262.160438" y="23.817722"/>
<use xlink:href="#glyph-0-19" x="266.836137" y="23.817722"/>
</g>
<g fill="rgb(0%, 0%, 0%)" fill-opacity="1">
<use xlink:href="#glyph-1-8" x="226.323025" y="34.703014"/>
<use xlink:href="#glyph-1-5" x="228.865715" y="34.703014"/>
</g>
<g fill="rgb(0%, 0%, 0%)" fill-opacity="1">
<use xlink:href="#glyph-1-12" x="233.692818" y="34.703014"/>
<use xlink:href="#glyph-1-1" x="237.252584" y="34.703014"/>
<use xlink:href="#glyph-1-0" x="241.32445" y="34.703014"/>
<use xlink:href="#glyph-1-8" x="244.904699" y="34.703014"/>
<use xlink:href="#glyph-1-3" x="247.447389" y="34.703014"/>
<use xlink:href="#glyph-1-0" x="252.024231" y="34.703014"/>
</g>
<g fill="rgb(0%, 0%, 0%)" fill-opacity="1">
<use xlink:href="#glyph-2-0" x="22.831935" y="53.362663"/>
<use xlink:href="#glyph-2-1" x="26.306484" y="53.362663"/>
</g>
<g fill="rgb(0%, 0%, 0%)" fill-opacity="1">
<use xlink:href="#glyph-3-0" x="33.828473" y="53.362663"/>
<use xlink:href="#glyph-3-1" x="38.267252" y="53.362663"/>
<use xlink:href="#glyph-3-2" x="42.940359" y="53.362663"/>
</g>
<g fill="rgb(0%, 0%, 0%)" fill-opacity="1">
<use xlink:href="#glyph-2-2" x="49.718874" y="53.362663"/>
</g>
<g fill="rgb(0%, 0%, 0%)" fill-opacity="1">
<use xlink:href="#glyph-2-3" x="52.866472" y="53.362663"/>
</g>
<g fill="rgb(0%, 0%, 0%)" fill-opacity="1">
<use xlink:href="#glyph-2-4" x="56.339438" y="53.362663"/>
</g>
<g fill="rgb(0%, 0%, 0%)" fill-opacity="1">
<use xlink:href="#glyph-2-5" x="59.820321" y="53.362663"/>
<use xlink:href="#glyph-2-2" x="64.16331" y="53.362663"/>
<use xlink:href="#glyph-2-2" x="67.746315" y="53.362663"/>
</g>
<g fill="rgb(0%, 0%, 0%)" fill-opacity="1">
<use xlink:href="#glyph-2-5" x="70.893914" y="53.362663"/>
</g>
<g fill="rgb(0%, 0%, 0%)" fill-opacity="1">
<use xlink:href="#glyph-2-0" x="120.898889" y="54.228798"/>
<use xlink:href="#glyph-2-1" x="124.373439" y="54.228798"/>
</g>
<g fill="rgb(0%, 0%, 0%)" fill-opacity="1">
<use xlink:href="#glyph-3-3" x="131.895428" y="54.228798"/>
<use xlink:href="#glyph-3-4" x="136.568534" y="54.228798"/>
<use xlink:href="#glyph-3-5" x="140.774568" y="54.228798"/>
<use xlink:href="#glyph-3-6" x="144.092371" y="54.228798"/>
<use xlink:href="#glyph-3-4" x="147.363467" y="54.228798"/>
</g>
<g fill="rgb(0%, 0%, 0%)" fill-opacity="1">
<use xlink:href="#glyph-3-7" x="154.371939" y="54.228798"/>
<use xlink:href="#glyph-3-1" x="158.110108" y="54.228798"/>
<use xlink:href="#glyph-3-8" x="162.783215" y="54.228798"/>
<use xlink:href="#glyph-3-9" x="166.989248" y="54.228798"/>
<use xlink:href="#glyph-3-10" x="171.662355" y="54.228798"/>
<use xlink:href="#glyph-3-11" x="176.335462" y="54.228798"/>
</g>
<g fill="rgb(0%, 0%, 0%)" fill-opacity="1">
<use xlink:href="#glyph-2-6" x="211.277901" y="52.779611"/>
<use xlink:href="#glyph-2-5" x="213.449396" y="52.779611"/>
</g>
<g fill="rgb(0%, 0%, 0%)" fill-opacity="1">
<use xlink:href="#glyph-2-7" x="220.832319" y="52.779611"/>
<use xlink:href="#glyph-2-3" x="225.175308" y="52.779611"/>
</g>
<g fill="rgb(0%, 0%, 0%)" fill-opacity="1">
<use xlink:href="#glyph-2-4" x="228.648274" y="52.779611"/>
<use xlink:href="#glyph-2-8" x="232.556647" y="52.779611"/>
<use xlink:href="#glyph-2-7" x="235.162757" y="52.779611"/>
<use xlink:href="#glyph-2-5" x="239.505746" y="52.779611"/>
</g>
<g fill="rgb(0%, 0%, 0%)" fill-opacity="1">
<use xlink:href="#glyph-3-10" x="247.046698" y="52.779611"/>
<use xlink:href="#glyph-3-12" x="251.719805" y="52.779611"/>
<use xlink:href="#glyph-3-9" x="255.457974" y="52.779611"/>
</g>
<g fill="rgb(0%, 0%, 0%)" fill-opacity="1">
<use xlink:href="#glyph-3-6" x="259.901502" y="52.779611"/>
<use xlink:href="#glyph-3-13" x="263.172598" y="52.779611"/>
<use xlink:href="#glyph-3-11" x="266.450818" y="52.779611"/>
</g>
</svg>
