<?xml version="1.0" encoding="UTF-8"?>
<svg xmlns="http://www.w3.org/2000/svg" xmlns:xlink="http://www.w3.org/1999/xlink" width="723.573" height="130.511" viewBox="0 0 328.897 59.323">
<defs>
<g>
<g id="glyph-0-0">
<path d="M 6.078125 -2.78125 L 6.078125 -3.15625 C 5.828125 -3.125 5.8125 -3.125 5.484375 -3.125 C 5.265625 -3.125 5.046875 -3.125 4.828125 -3.15625 L 4.828125 -2.78125 C 4.9375 -2.78125 5.046875 -2.78125 5.203125 -2.71875 C 5.1875 -2.6875 5.171875 -2.65625 5.171875 -2.625 L 4.390625 -0.84375 L 3.546875 -2.78125 L 3.921875 -2.78125 L 3.921875 -3.15625 C 3.59375 -3.125 3.265625 -3.125 3.125 -3.125 C 3 -3.125 2.609375 -3.125 2.390625 -3.15625 L 2.390625 -2.78125 L 2.796875 -2.78125 C 2.828125 -2.734375 2.875 -2.59375 2.921875 -2.53125 C 2.90625 -2.46875 2.890625 -2.453125 2.875 -2.421875 L 2.265625 -1 L 1.5 -2.78125 L 1.859375 -2.78125 L 1.859375 -3.15625 C 1.453125 -3.125 1.328125 -3.125 1 -3.125 C 0.84375 -3.125 0.453125 -3.125 0.203125 -3.15625 L 0.203125 -2.78125 L 0.609375 -2.78125 L 1.734375 -0.15625 C 1.8125 0.03125 1.9375 0.03125 2.03125 0.03125 C 2.25 0.03125 2.28125 -0.03125 2.34375 -0.171875 L 3.140625 -2 L 3.9375 -0.171875 C 4 -0.03125 4.015625 0.03125 4.234375 0.03125 C 4.34375 0.03125 4.453125 0.03125 4.546875 -0.15625 L 5.609375 -2.625 C 5.65625 -2.75 5.671875 -2.78125 6.078125 -2.78125 Z M 6.078125 -2.78125 "/>
</g>
<g id="glyph-0-1">
<path d="M 4.09375 -1.546875 C 4.09375 -2.4375 3.46875 -3.234375 2.171875 -3.234375 C 0.859375 -3.234375 0.234375 -2.4375 0.234375 -1.546875 C 0.234375 -0.703125 0.859375 0.046875 2.171875 0.046875 C 3.484375 0.046875 4.09375 -0.703125 4.09375 -1.546875 Z M 3.140625 -1.625 C 3.140625 -1.015625 3.140625 -0.28125 2.171875 -0.28125 C 1.203125 -0.28125 1.203125 -1.015625 1.203125 -1.625 C 1.203125 -2.21875 1.203125 -2.921875 2.171875 -2.921875 C 3.140625 -2.921875 3.140625 -2.203125 3.140625 -1.625 Z M 3.140625 -1.625 "/>
</g>
<g id="glyph-0-2">
<path d="M 3.34375 -2.578125 C 3.34375 -2.96875 2.9375 -3.203125 2.53125 -3.203125 C 1.921875 -3.203125 1.640625 -2.703125 1.53125 -2.4375 L 1.53125 -3.203125 L 0.328125 -3.140625 L 0.328125 -2.78125 C 0.75 -2.78125 0.796875 -2.78125 0.796875 -2.5 L 0.796875 -0.375 L 0.328125 -0.375 L 0.328125 0 C 0.734375 -0.015625 0.8125 -0.015625 1.234375 -0.015625 L 2.203125 0 L 2.203125 -0.375 L 1.625 -0.375 L 1.625 -1.515625 C 1.625 -2.078125 1.84375 -2.875 2.515625 -2.90625 C 2.515625 -2.90625 2.40625 -2.78125 2.40625 -2.578125 C 2.40625 -2.296875 2.609375 -2.109375 2.875 -2.109375 C 3.140625 -2.109375 3.34375 -2.3125 3.34375 -2.578125 Z M 3.34375 -2.578125 "/>
</g>
<g id="glyph-0-3">
<path d="M 4.4375 0 L 4.4375 -0.375 L 4.3125 -0.375 C 4.03125 -0.375 3.984375 -0.390625 3.90625 -0.484375 L 2.625 -1.9375 L 3.625 -2.671875 C 3.71875 -2.734375 3.78125 -2.78125 4.25 -2.78125 L 4.25 -3.15625 C 4 -3.125 3.984375 -3.125 3.625 -3.125 C 3.359375 -3.125 3.234375 -3.125 2.84375 -3.15625 L 2.84375 -2.78125 C 2.953125 -2.78125 2.96875 -2.765625 3 -2.71875 L 1.625 -1.703125 L 1.625 -4.921875 L 0.328125 -4.859375 L 0.328125 -4.5 C 0.75 -4.5 0.796875 -4.5 0.796875 -4.21875 L 0.796875 -0.375 L 0.328125 -0.375 L 0.328125 0 C 0.6875 -0.015625 0.90625 -0.015625 1.171875 -0.015625 C 1.46875 -0.015625 1.671875 -0.015625 2.03125 0 L 2.03125 -0.375 L 1.5625 -0.375 L 1.5625 -1.171875 L 2.03125 -1.515625 C 2.140625 -1.390625 2.984375 -0.453125 2.984375 -0.421875 C 2.984375 -0.375 2.875 -0.375 2.8125 -0.375 L 2.8125 0 C 3.234375 -0.015625 3.34375 -0.015625 3.671875 -0.015625 C 3.765625 -0.015625 4.21875 -0.015625 4.4375 0 Z M 4.4375 0 "/>
</g>
<g id="glyph-0-4">
<path d="M 4.5 0 L 4.5 -0.375 L 4.03125 -0.375 L 4.03125 -4.921875 C 4 -4.921875 3.90625 -4.921875 3.875 -4.90625 C 3.8125 -4.90625 3.578125 -4.890625 3.515625 -4.890625 C 3.484375 -4.890625 3.46875 -4.890625 3.375 -4.921875 C 3.15625 -4.96875 2.921875 -4.96875 2.8125 -4.96875 C 1.84375 -4.96875 0.796875 -4.6875 0.796875 -3.828125 L 0.796875 -3.15625 L 0.234375 -3.15625 L 0.234375 -2.78125 L 0.796875 -2.78125 L 0.796875 -0.375 L 0.328125 -0.375 L 0.328125 0 C 0.734375 -0.015625 0.8125 -0.015625 1.203125 -0.015625 C 1.609375 -0.015625 1.671875 -0.015625 2.078125 0 L 2.078125 -0.375 L 1.625 -0.375 L 1.625 -2.78125 L 3.203125 -2.78125 L 3.203125 -0.375 L 2.734375 -0.375 L 2.734375 0 C 3.15625 -0.015625 3.21875 -0.015625 3.625 -0.015625 C 4.015625 -0.015625 4.09375 -0.015625 4.5 0 Z M 3.203125 -3.15625 L 1.578125 -3.15625 L 1.578125 -3.828125 C 1.578125 -4.5625 2.328125 -4.671875 2.78125 -4.671875 C 2.8125 -4.671875 3.125 -4.671875 3.125 -4.640625 L 3.109375 -4.609375 C 3.03125 -4.5 3.015625 -4.375 3.015625 -4.3125 C 3.015625 -4.171875 3.09375 -4.015625 3.203125 -3.9375 Z M 3.203125 -3.15625 "/>
</g>
<g id="glyph-0-5">
<path d="M 2.890625 1.640625 C 2.890625 1.59375 2.859375 1.578125 2.78125 1.5 C 1.875 0.6875 1.5625 -0.546875 1.5625 -1.765625 C 1.5625 -2.984375 1.859375 -4.234375 2.765625 -5.03125 C 2.875 -5.140625 2.890625 -5.140625 2.890625 -5.1875 C 2.890625 -5.265625 2.84375 -5.3125 2.734375 -5.3125 C 2.609375 -5.3125 2.234375 -5 2.078125 -4.859375 C 1.203125 -3.984375 0.8125 -2.90625 0.8125 -1.765625 C 0.8125 -1.140625 0.9375 -0.28125 1.46875 0.546875 C 1.90625 1.265625 2.578125 1.765625 2.734375 1.765625 C 2.84375 1.765625 2.890625 1.71875 2.890625 1.640625 Z M 2.890625 1.640625 "/>
</g>
<g id="glyph-0-6">
<path d="M 4.609375 0 L 4.609375 -0.375 C 4.1875 -0.375 4.140625 -0.375 4.140625 -0.640625 L 4.140625 -3.203125 L 2.8125 -3.140625 L 2.8125 -2.78125 C 3.234375 -2.78125 3.28125 -2.78125 3.28125 -2.5 L 3.28125 -1.15625 C 3.28125 -0.609375 2.90625 -0.25 2.328125 -0.25 C 1.75 -0.25 1.734375 -0.40625 1.734375 -0.765625 L 1.734375 -3.203125 L 0.390625 -3.140625 L 0.390625 -2.78125 C 0.8125 -2.78125 0.859375 -2.78125 0.859375 -2.5 L 0.859375 -0.875 C 0.859375 -0.078125 1.53125 0.046875 2.234375 0.046875 C 2.46875 0.046875 2.9375 0.046875 3.3125 -0.453125 L 3.3125 0.046875 Z M 4.609375 0 "/>
</g>
<g id="glyph-0-7">
<path d="M 4.609375 0 L 4.609375 -0.375 L 4.140625 -0.375 L 4.140625 -2.15625 C 4.140625 -3.015625 3.609375 -3.203125 2.96875 -3.203125 C 2.109375 -3.203125 1.734375 -2.625 1.640625 -2.46875 L 1.640625 -3.203125 L 0.390625 -3.140625 L 0.390625 -2.78125 C 0.8125 -2.78125 0.859375 -2.78125 0.859375 -2.5 L 0.859375 -0.375 L 0.390625 -0.375 L 0.390625 0 C 0.78125 -0.015625 1.03125 -0.015625 1.296875 -0.015625 C 1.578125 -0.015625 1.8125 -0.015625 2.203125 0 L 2.203125 -0.375 L 1.734375 -0.375 L 1.734375 -1.796875 C 1.734375 -2.578125 2.40625 -2.90625 2.859375 -2.90625 C 3.109375 -2.90625 3.28125 -2.78125 3.28125 -2.234375 L 3.28125 -0.375 L 2.8125 -0.375 L 2.8125 0 C 3.1875 -0.015625 3.4375 -0.015625 3.703125 -0.015625 C 3.984375 -0.015625 4.234375 -0.015625 4.609375 0 Z M 4.609375 0 "/>
</g>
<g id="glyph-0-8">
<path d="M 4.171875 -0.1875 C 4.171875 -0.375 4.0625 -0.375 3.96875 -0.375 C 3.53125 -0.375 3.53125 -0.4375 3.53125 -0.609375 L 3.53125 -2.09375 C 3.53125 -2.734375 3.015625 -3.234375 1.859375 -3.234375 C 1.515625 -3.234375 0.5 -3.234375 0.5 -2.53125 C 0.5 -2.21875 0.734375 -2.046875 0.96875 -2.046875 C 1.25 -2.046875 1.453125 -2.25 1.453125 -2.515625 C 1.453125 -2.75 1.3125 -2.875 1.3125 -2.875 C 1.359375 -2.890625 1.5625 -2.921875 1.84375 -2.921875 C 2.40625 -2.921875 2.65625 -2.625 2.65625 -2.109375 L 2.65625 -1.90625 C 1.59375 -1.890625 0.21875 -1.65625 0.21875 -0.796875 C 0.21875 -0.1875 0.890625 0.046875 1.671875 0.046875 C 2.390625 0.046875 2.703125 -0.34375 2.796875 -0.484375 C 2.796875 -0.265625 2.875 0 3.5625 0 L 3.9375 0 C 4.078125 0 4.171875 0 4.171875 -0.1875 Z M 2.65625 -0.96875 C 2.65625 -0.25 1.8125 -0.25 1.78125 -0.25 C 1.40625 -0.25 1.078125 -0.46875 1.078125 -0.8125 C 1.078125 -1.3125 1.734375 -1.609375 2.65625 -1.625 Z M 2.65625 -0.96875 "/>
</g>
<g id="glyph-0-9">
<path d="M 3.125 -1 C 3.125 -1.3125 2.984375 -1.53125 2.828125 -1.671875 C 2.515625 -1.96875 2.140625 -2.015625 1.875 -2.0625 C 1.234375 -2.171875 0.84375 -2.234375 0.84375 -2.546875 C 0.84375 -2.96875 1.53125 -2.96875 1.671875 -2.96875 C 2.46875 -2.96875 2.5 -2.578125 2.515625 -2.390625 C 2.53125 -2.265625 2.625 -2.265625 2.71875 -2.265625 C 2.90625 -2.265625 2.921875 -2.3125 2.921875 -2.484375 L 2.921875 -3 C 2.921875 -3.140625 2.921875 -3.234375 2.765625 -3.234375 C 2.703125 -3.234375 2.6875 -3.234375 2.4375 -3.109375 C 2.140625 -3.234375 1.8125 -3.234375 1.6875 -3.234375 C 1.453125 -3.234375 0.296875 -3.234375 0.296875 -2.28125 C 0.296875 -1.953125 0.46875 -1.75 0.65625 -1.625 C 0.9375 -1.421875 1.234375 -1.375 1.703125 -1.296875 C 2.0625 -1.234375 2.578125 -1.15625 2.578125 -0.765625 C 2.578125 -0.265625 1.953125 -0.25 1.734375 -0.25 C 1.015625 -0.25 0.8125 -0.65625 0.6875 -0.984375 C 0.65625 -1.109375 0.640625 -1.125 0.484375 -1.125 C 0.296875 -1.125 0.296875 -1.0625 0.296875 -0.90625 L 0.296875 -0.171875 C 0.296875 -0.03125 0.296875 0.046875 0.453125 0.046875 C 0.515625 0.046875 0.53125 0.046875 0.671875 -0.046875 L 0.859375 -0.15625 C 1.21875 0.046875 1.59375 0.046875 1.734375 0.046875 C 1.953125 0.046875 3.125 0.046875 3.125 -1 Z M 3.125 -1 "/>
</g>
<g id="glyph-0-10">
<path d="M 2.171875 0 L 2.171875 -0.375 L 1.703125 -0.375 L 1.703125 -4.921875 L 0.421875 -4.859375 L 0.421875 -4.5 C 0.84375 -4.5 0.890625 -4.5 0.890625 -4.21875 L 0.890625 -0.375 L 0.421875 -0.375 L 0.421875 0 C 0.828125 -0.015625 0.90625 -0.015625 1.296875 -0.015625 C 1.703125 -0.015625 1.765625 -0.015625 2.171875 0 Z M 2.171875 0 "/>
</g>
<g id="glyph-0-11">
<path d="M 4.53125 -1.578125 C 4.53125 -2.46875 3.90625 -3.203125 2.765625 -3.203125 C 2.359375 -3.203125 1.953125 -3.09375 1.625 -2.859375 L 1.625 -3.203125 L 0.328125 -3.140625 L 0.328125 -2.78125 C 0.46875 -2.78125 0.59375 -2.78125 0.671875 -2.75 C 0.796875 -2.734375 0.796875 -2.65625 0.796875 -2.515625 L 0.796875 1 L 0.328125 1 L 0.328125 1.375 C 0.703125 1.359375 0.953125 1.359375 1.234375 1.359375 C 1.5 1.359375 1.75 1.359375 2.125 1.375 L 2.125 1 L 1.65625 1 L 1.65625 -0.265625 C 2.03125 0 2.375 0.046875 2.625 0.046875 C 3.78125 0.046875 4.53125 -0.625 4.53125 -1.578125 Z M 3.578125 -1.578125 C 3.578125 -0.625 3.078125 -0.25 2.546875 -0.25 C 2.234375 -0.25 1.890625 -0.40625 1.65625 -0.75 L 1.65625 -2.421875 C 1.78125 -2.578125 2.140625 -2.859375 2.640625 -2.859375 C 3.203125 -2.859375 3.578125 -2.390625 3.578125 -1.578125 Z M 3.578125 -1.578125 "/>
</g>
<g id="glyph-0-12">
<path d="M 2.125 0 L 2.125 -0.375 L 1.703125 -0.375 L 1.703125 -3.203125 L 0.4375 -3.140625 L 0.4375 -2.78125 C 0.84375 -2.78125 0.890625 -2.78125 0.890625 -2.5 L 0.890625 -0.375 L 0.421875 -0.375 L 0.421875 0 C 0.828125 -0.015625 0.90625 -0.015625 1.28125 -0.015625 C 1.578125 -0.015625 1.78125 -0.015625 2.125 0 Z M 1.78125 -4.296875 C 1.78125 -4.609375 1.515625 -4.859375 1.21875 -4.859375 C 0.890625 -4.859375 0.640625 -4.609375 0.640625 -4.296875 C 0.640625 -3.96875 0.90625 -3.71875 1.203125 -3.71875 C 1.53125 -3.71875 1.78125 -3.984375 1.78125 -4.296875 Z M 1.78125 -4.296875 "/>
</g>
<g id="glyph-0-13">
<path d="M 3.734375 -0.8125 C 3.734375 -0.96875 3.578125 -0.96875 3.53125 -0.96875 C 3.40625 -0.96875 3.390625 -0.953125 3.328125 -0.828125 C 3.09375 -0.328125 2.5 -0.28125 2.296875 -0.28125 C 1.25 -0.28125 1.21875 -1.109375 1.203125 -1.5 L 3.484375 -1.5 C 3.640625 -1.5 3.734375 -1.5 3.734375 -1.703125 C 3.734375 -2.015625 3.65625 -2.484375 3.3125 -2.828125 C 2.90625 -3.234375 2.265625 -3.234375 2.109375 -3.234375 C 0.84375 -3.234375 0.234375 -2.4375 0.234375 -1.609375 C 0.234375 -0.6875 0.953125 0.046875 2.21875 0.046875 C 3.46875 0.046875 3.734375 -0.71875 3.734375 -0.8125 Z M 3.03125 -1.78125 L 1.203125 -1.78125 C 1.203125 -2.0625 1.234375 -2.921875 2.109375 -2.921875 C 3 -2.921875 3.03125 -2.0625 3.03125 -1.78125 Z M 3.03125 -1.78125 "/>
</g>
<g id="glyph-0-14">
<path d="M 3.484375 -1.46875 L 3.09375 -1.46875 C 3.03125 -0.734375 2.875 -0.328125 1.96875 -0.328125 L 1.34375 -0.328125 L 3.390625 -2.8125 C 3.46875 -2.890625 3.46875 -2.921875 3.46875 -2.96875 C 3.46875 -3.15625 3.359375 -3.15625 3.234375 -3.15625 L 0.453125 -3.15625 L 0.359375 -1.890625 L 0.765625 -1.890625 C 0.8125 -2.609375 1.046875 -2.859375 1.78125 -2.859375 L 2.375 -2.859375 L 0.3125 -0.375 C 0.234375 -0.28125 0.234375 -0.25 0.234375 -0.1875 C 0.234375 0 0.34375 0 0.484375 0 L 3.34375 0 Z M 3.484375 -1.46875 "/>
</g>
<g id="glyph-0-15">
<path d="M 2.5625 -1.765625 C 2.5625 -2.40625 2.4375 -3.265625 1.90625 -4.09375 C 1.46875 -4.8125 0.78125 -5.3125 0.625 -5.3125 C 0.515625 -5.3125 0.484375 -5.25 0.484375 -5.1875 C 0.484375 -5.140625 0.515625 -5.109375 0.59375 -5.046875 C 1.484375 -4.234375 1.8125 -3 1.8125 -1.765625 C 1.8125 -0.5625 1.5 0.6875 0.609375 1.484375 C 0.515625 1.5625 0.484375 1.59375 0.484375 1.640625 C 0.484375 1.703125 0.515625 1.765625 0.625 1.765625 C 0.765625 1.765625 1.140625 1.453125 1.28125 1.3125 C 2.171875 0.4375 2.5625 -0.640625 2.5625 -1.765625 Z M 2.5625 -1.765625 "/>
</g>
<g id="glyph-1-0">
<path d="M 4.3125 0 L 4.3125 -0.25 C 3.765625 -0.25 3.703125 -0.296875 3.703125 -0.6875 L 3.703125 -5.546875 L 2.515625 -5.453125 L 2.515625 -5.203125 C 3.0625 -5.203125 3.125 -5.15625 3.125 -4.765625 L 3.125 -3.0625 C 3.09375 -3.109375 2.734375 -3.53125 2.109375 -3.53125 C 1.125 -3.53125 0.265625 -2.75 0.265625 -1.71875 C 0.265625 -0.71875 1.0625 0.09375 2.015625 0.09375 C 2.609375 0.09375 2.96875 -0.25 3.109375 -0.421875 L 3.109375 0.09375 Z M 3.109375 -0.953125 C 3.109375 -0.8125 3.109375 -0.796875 2.984375 -0.625 C 2.734375 -0.265625 2.375 -0.109375 2.046875 -0.109375 C 1.703125 -0.109375 1.390625 -0.296875 1.1875 -0.640625 C 0.96875 -0.984375 0.953125 -1.453125 0.953125 -1.703125 C 0.953125 -2.078125 1 -2.5 1.21875 -2.828125 C 1.390625 -3.078125 1.71875 -3.328125 2.140625 -3.328125 C 2.46875 -3.328125 2.796875 -3.15625 3.015625 -2.859375 C 3.109375 -2.734375 3.109375 -2.71875 3.109375 -2.578125 Z M 3.109375 -0.953125 "/>
</g>
<g id="glyph-1-1">
<path d="M 3.96875 -0.703125 L 3.96875 -1.15625 L 3.75 -1.15625 L 3.75 -0.71875 C 3.75 -0.625 3.75 -0.234375 3.453125 -0.234375 C 3.171875 -0.234375 3.171875 -0.609375 3.171875 -0.75 L 3.171875 -2.140625 C 3.171875 -2.59375 3.171875 -2.859375 2.8125 -3.1875 C 2.515625 -3.453125 2.125 -3.578125 1.734375 -3.578125 C 1.0625 -3.578125 0.5 -3.234375 0.5 -2.734375 C 0.5 -2.484375 0.671875 -2.34375 0.875 -2.34375 C 1.09375 -2.34375 1.25 -2.5 1.25 -2.71875 C 1.25 -3.0625 0.890625 -3.09375 0.890625 -3.09375 C 1.109375 -3.3125 1.484375 -3.375 1.71875 -3.375 C 2.125 -3.375 2.578125 -3.078125 2.578125 -2.375 L 2.578125 -2.109375 C 2.140625 -2.09375 1.546875 -2.046875 1.015625 -1.796875 C 0.4375 -1.515625 0.265625 -1.109375 0.265625 -0.78125 C 0.265625 -0.125 1.03125 0.09375 1.578125 0.09375 C 2.234375 0.09375 2.53125 -0.34375 2.65625 -0.578125 C 2.6875 -0.234375 2.921875 0.046875 3.265625 0.046875 C 3.46875 0.046875 3.96875 -0.078125 3.96875 -0.703125 Z M 2.578125 -1.125 C 2.578125 -0.34375 1.984375 -0.109375 1.625 -0.109375 C 1.25 -0.109375 0.90625 -0.390625 0.90625 -0.78125 C 0.90625 -1.3125 1.359375 -1.875 2.578125 -1.921875 Z M 2.578125 -1.125 "/>
</g>
<g id="glyph-1-2">
<path d="M 2.734375 -0.984375 L 2.734375 -1.4375 L 2.5 -1.4375 L 2.5 -1.015625 C 2.5 -0.421875 2.265625 -0.140625 1.96875 -0.140625 C 1.4375 -0.140625 1.4375 -0.84375 1.4375 -0.984375 L 1.4375 -3.1875 L 2.59375 -3.1875 L 2.59375 -3.4375 L 1.4375 -3.4375 L 1.4375 -4.90625 L 1.21875 -4.90625 C 1.203125 -4.234375 0.921875 -3.421875 0.15625 -3.390625 L 0.15625 -3.1875 L 0.84375 -3.1875 L 0.84375 -0.984375 C 0.84375 -0.09375 1.5 0.09375 1.921875 0.09375 C 2.453125 0.09375 2.734375 -0.421875 2.734375 -0.984375 Z M 2.734375 -0.984375 "/>
</g>
<g id="glyph-1-3">
<path d="M 3.859375 -1.703125 C 3.859375 -2.75 3.03125 -3.578125 2.046875 -3.578125 C 1.03125 -3.578125 0.234375 -2.71875 0.234375 -1.703125 C 0.234375 -0.703125 1.0625 0.09375 2.046875 0.09375 C 3.0625 0.09375 3.859375 -0.71875 3.859375 -1.703125 Z M 3.171875 -1.765625 C 3.171875 -1.484375 3.171875 -1.015625 2.984375 -0.65625 C 2.75 -0.296875 2.390625 -0.140625 2.046875 -0.140625 C 1.65625 -0.140625 1.3125 -0.328125 1.140625 -0.640625 C 0.921875 -0.984375 0.921875 -1.40625 0.921875 -1.765625 C 0.921875 -2.0625 0.921875 -2.515625 1.125 -2.84375 C 1.359375 -3.25 1.75 -3.375 2.046875 -3.375 C 2.5 -3.375 2.828125 -3.125 2.984375 -2.84375 C 3.171875 -2.515625 3.171875 -2.109375 3.171875 -1.765625 Z M 3.171875 -1.765625 "/>
</g>
<g id="glyph-1-4">
<path d="M 2.953125 -1.015625 C 2.953125 -1.375 2.796875 -1.59375 2.625 -1.78125 C 2.34375 -2.046875 2.0625 -2.09375 1.46875 -2.21875 C 1.265625 -2.25 0.671875 -2.359375 0.671875 -2.8125 C 0.671875 -3.0625 0.859375 -3.40625 1.59375 -3.40625 C 2.453125 -3.40625 2.5 -2.734375 2.515625 -2.53125 C 2.53125 -2.4375 2.53125 -2.390625 2.640625 -2.390625 C 2.75 -2.390625 2.75 -2.453125 2.75 -2.609375 L 2.75 -3.375 C 2.75 -3.5 2.75 -3.578125 2.65625 -3.578125 C 2.609375 -3.578125 2.59375 -3.578125 2.484375 -3.484375 C 2.46875 -3.46875 2.40625 -3.390625 2.359375 -3.359375 C 2.109375 -3.53125 1.859375 -3.578125 1.59375 -3.578125 C 0.53125 -3.578125 0.265625 -3 0.265625 -2.59375 C 0.265625 -2.328125 0.390625 -2.125 0.5625 -1.953125 C 0.84375 -1.703125 1.140625 -1.640625 1.546875 -1.578125 C 1.953125 -1.5 2.09375 -1.46875 2.265625 -1.328125 C 2.34375 -1.265625 2.546875 -1.125 2.546875 -0.8125 C 2.546875 -0.109375 1.734375 -0.109375 1.625 -0.109375 C 0.8125 -0.109375 0.609375 -0.796875 0.515625 -1.21875 C 0.484375 -1.296875 0.484375 -1.34375 0.390625 -1.34375 C 0.265625 -1.34375 0.265625 -1.28125 0.265625 -1.140625 L 0.265625 -0.125 C 0.265625 0.015625 0.265625 0.09375 0.375 0.09375 C 0.421875 0.09375 0.421875 0.078125 0.5625 -0.078125 C 0.59375 -0.125 0.6875 -0.21875 0.734375 -0.265625 C 1.0625 0.0625 1.421875 0.09375 1.625 0.09375 C 2.609375 0.09375 2.953125 -0.484375 2.953125 -1.015625 Z M 2.953125 -1.015625 "/>
</g>
<g id="glyph-1-5">
<path d="M 3.40625 -0.953125 C 3.40625 -1 3.375 -1.046875 3.296875 -1.046875 C 3.21875 -1.046875 3.1875 -1 3.1875 -0.96875 C 2.921875 -0.15625 2.203125 -0.140625 2.078125 -0.140625 C 1.703125 -0.140625 1.375 -0.34375 1.1875 -0.625 C 0.921875 -1.015625 0.921875 -1.5 0.921875 -1.828125 L 3.1875 -1.828125 C 3.375 -1.828125 3.40625 -1.828125 3.40625 -2 C 3.40625 -2.8125 2.96875 -3.578125 1.9375 -3.578125 C 0.984375 -3.578125 0.234375 -2.75 0.234375 -1.75 C 0.234375 -0.703125 1.0625 0.09375 2.046875 0.09375 C 3.015625 0.09375 3.40625 -0.765625 3.40625 -0.953125 Z M 2.859375 -2.015625 L 0.921875 -2.015625 C 1 -3.25 1.71875 -3.375 1.9375 -3.375 C 2.375 -3.375 2.859375 -3.046875 2.859375 -2.015625 Z M 2.859375 -2.015625 "/>
</g>
<g id="glyph-1-6">
<path d="M 4.375 0 L 4.375 -0.25 C 3.953125 -0.25 3.765625 -0.25 3.75 -0.5 L 3.75 -2.03125 C 3.75 -2.6875 3.75 -2.921875 3.53125 -3.203125 C 3.34375 -3.421875 3.046875 -3.53125 2.640625 -3.53125 C 1.90625 -3.53125 1.5625 -2.984375 1.4375 -2.75 L 1.4375 -3.53125 L 0.28125 -3.4375 L 0.28125 -3.1875 C 0.828125 -3.1875 0.890625 -3.140625 0.890625 -2.75 L 0.890625 -0.609375 C 0.890625 -0.25 0.8125 -0.25 0.28125 -0.25 L 0.28125 0 C 0.65625 -0.015625 0.8125 -0.03125 1.1875 -0.03125 C 1.578125 -0.03125 1.671875 -0.015625 2.09375 0 L 2.09375 -0.25 C 1.578125 -0.25 1.484375 -0.25 1.484375 -0.609375 L 1.484375 -2.0625 C 1.484375 -2.921875 2.078125 -3.328125 2.59375 -3.328125 C 3.0625 -3.328125 3.15625 -2.9375 3.15625 -2.453125 L 3.15625 -0.609375 C 3.15625 -0.25 3.078125 -0.25 2.546875 -0.25 L 2.546875 0 C 2.921875 -0.015625 3.078125 -0.03125 3.453125 -0.03125 C 3.84375 -0.03125 3.9375 -0.015625 4.375 0 Z M 4.375 0 "/>
</g>
<g id="glyph-1-7">
<path d="M 2.984375 -3.03125 C 2.984375 -3.296875 2.734375 -3.53125 2.375 -3.53125 C 1.90625 -3.53125 1.5625 -3.1875 1.375 -2.703125 L 1.375 -3.53125 L 0.234375 -3.4375 L 0.234375 -3.1875 C 0.78125 -3.1875 0.859375 -3.140625 0.859375 -2.75 L 0.859375 -0.609375 C 0.859375 -0.25 0.765625 -0.25 0.234375 -0.25 L 0.234375 0 C 0.65625 -0.015625 0.765625 -0.03125 1.171875 -0.03125 L 2.1875 0 L 2.1875 -0.25 L 2.03125 -0.25 C 1.4375 -0.25 1.421875 -0.328125 1.421875 -0.625 L 1.421875 -1.828125 C 1.421875 -2.15625 1.515625 -3.328125 2.421875 -3.328125 C 2.40625 -3.3125 2.28125 -3.21875 2.28125 -3.03125 C 2.28125 -2.8125 2.4375 -2.671875 2.625 -2.671875 C 2.796875 -2.671875 2.984375 -2.796875 2.984375 -3.03125 Z M 2.984375 -3.03125 "/>
</g>
<g id="glyph-1-8">
<path d="M 4.28125 -1.71875 C 4.28125 -2.734375 3.5 -3.53125 2.5625 -3.53125 C 2.125 -3.53125 1.71875 -3.359375 1.421875 -3.03125 L 1.421875 -3.53125 L 0.234375 -3.4375 L 0.234375 -3.1875 C 0.8125 -3.1875 0.859375 -3.140625 0.859375 -2.796875 L 0.859375 0.9375 C 0.859375 1.296875 0.765625 1.296875 0.234375 1.296875 L 0.234375 1.546875 C 0.609375 1.53125 0.765625 1.53125 1.15625 1.53125 C 1.53125 1.53125 1.640625 1.53125 2.0625 1.546875 L 2.0625 1.296875 C 1.53125 1.296875 1.4375 1.296875 1.4375 0.9375 L 1.4375 -0.390625 C 1.65625 -0.171875 1.921875 0.09375 2.453125 0.09375 C 3.40625 0.09375 4.28125 -0.671875 4.28125 -1.71875 Z M 3.59375 -1.71875 C 3.59375 -0.8125 3.046875 -0.109375 2.40625 -0.109375 C 2.046875 -0.109375 1.734375 -0.3125 1.546875 -0.59375 C 1.4375 -0.765625 1.4375 -0.78125 1.4375 -0.921875 L 1.4375 -2.6875 C 1.71875 -3.140625 2.15625 -3.3125 2.484375 -3.3125 C 3.109375 -3.3125 3.59375 -2.59375 3.59375 -1.71875 Z M 3.59375 -1.71875 "/>
</g>
<g id="glyph-1-9">
<path d="M 3.40625 -0.953125 C 3.40625 -1.046875 3.328125 -1.046875 3.296875 -1.046875 C 3.203125 -1.046875 3.203125 -1.03125 3.15625 -0.890625 C 2.984375 -0.34375 2.53125 -0.140625 2.125 -0.140625 C 1.609375 -0.140625 0.953125 -0.546875 0.953125 -1.734375 C 0.953125 -2.984375 1.59375 -3.359375 2.078125 -3.359375 C 2.1875 -3.359375 2.609375 -3.34375 2.90625 -3.140625 C 2.734375 -3.109375 2.578125 -3 2.578125 -2.765625 C 2.578125 -2.5625 2.734375 -2.390625 2.953125 -2.390625 C 3.15625 -2.390625 3.328125 -2.53125 3.328125 -2.78125 C 3.328125 -3.28125 2.765625 -3.578125 2.0625 -3.578125 C 1.03125 -3.578125 0.265625 -2.71875 0.265625 -1.71875 C 0.265625 -0.6875 1.109375 0.09375 2.046875 0.09375 C 3.15625 0.09375 3.40625 -0.875 3.40625 -0.953125 Z M 3.40625 -0.953125 "/>
</g>
<g id="glyph-2-0">
<path d="M 3.890625 -2.96875 C 3.890625 -3.125 3.796875 -3.484375 3.125 -3.484375 C 2.671875 -3.484375 2.171875 -3.296875 1.78125 -2.859375 L 1.78125 -3.109375 C 1.78125 -3.375 1.71875 -3.4375 1.453125 -3.4375 L 0.5625 -3.4375 C 0.4375 -3.4375 0.21875 -3.4375 0.21875 -3.1875 C 0.21875 -2.921875 0.4375 -2.921875 0.5625 -2.921875 L 1.203125 -2.921875 L 1.203125 -0.515625 L 0.5625 -0.515625 C 0.4375 -0.515625 0.21875 -0.515625 0.21875 -0.265625 C 0.21875 0 0.4375 0 0.5625 0 L 2.671875 0 C 2.78125 0 3.015625 0 3.015625 -0.25 C 3.015625 -0.515625 2.796875 -0.515625 2.671875 -0.515625 L 1.78125 -0.515625 L 1.78125 -1.46875 C 1.78125 -2.28125 2.328125 -2.96875 3.1875 -2.96875 C 3.203125 -2.671875 3.4375 -2.609375 3.53125 -2.609375 C 3.71875 -2.609375 3.890625 -2.75 3.890625 -2.96875 Z M 3.890625 -2.96875 "/>
</g>
<g id="glyph-2-1">
<path d="M 3.703125 -0.875 C 3.703125 -1.03125 3.578125 -1.109375 3.40625 -1.109375 C 3.296875 -1.109375 3.1875 -1.109375 3.125 -0.9375 C 2.9375 -0.484375 2.421875 -0.484375 2.328125 -0.484375 C 1.875 -0.484375 1.203125 -0.75 1.03125 -1.515625 L 3.375 -1.515625 C 3.53125 -1.515625 3.703125 -1.515625 3.703125 -1.8125 C 3.703125 -2.734375 3.1875 -3.5 2.15625 -3.5 C 1.1875 -3.5 0.421875 -2.6875 0.421875 -1.734375 C 0.421875 -0.75 1.25 0.046875 2.28125 0.046875 C 3.34375 0.046875 3.703125 -0.671875 3.703125 -0.875 Z M 3.09375 -2.015625 L 1.046875 -2.015625 C 1.203125 -2.671875 1.703125 -2.984375 2.15625 -2.984375 C 2.71875 -2.984375 3.046875 -2.625 3.09375 -2.015625 Z M 3.09375 -2.015625 "/>
</g>
<g id="glyph-2-2">
<path d="M 3.71875 -0.875 C 3.71875 -1.03125 3.59375 -1.109375 3.421875 -1.109375 C 3.328125 -1.109375 3.203125 -1.109375 3.140625 -0.9375 C 3.078125 -0.8125 2.953125 -0.484375 2.390625 -0.484375 C 1.703125 -0.484375 1.15625 -1.03125 1.15625 -1.71875 C 1.15625 -2.125 1.40625 -2.984375 2.421875 -2.984375 C 2.5625 -2.984375 2.671875 -2.984375 2.703125 -2.984375 C 2.859375 -2.96875 2.875 -2.953125 2.875 -2.875 C 2.90625 -2.609375 3.125 -2.53125 3.25 -2.53125 C 3.46875 -2.53125 3.625 -2.6875 3.625 -2.90625 C 3.625 -3.5 2.8125 -3.5 2.4375 -3.5 C 1.046875 -3.5 0.5625 -2.421875 0.5625 -1.71875 C 0.5625 -0.75 1.34375 0.046875 2.328125 0.046875 C 3.46875 0.046875 3.71875 -0.75 3.71875 -0.875 Z M 3.71875 -0.875 "/>
</g>
<g id="glyph-2-3">
<path d="M 3.671875 -0.25 C 3.671875 -0.515625 3.453125 -0.515625 3.328125 -0.515625 L 2.484375 -0.515625 L 2.484375 -3.109375 C 2.484375 -3.375 2.421875 -3.4375 2.15625 -3.4375 L 1 -3.4375 C 0.875 -3.4375 0.65625 -3.4375 0.65625 -3.1875 C 0.65625 -2.921875 0.875 -2.921875 1 -2.921875 L 1.90625 -2.921875 L 1.90625 -0.515625 L 0.921875 -0.515625 C 0.8125 -0.515625 0.59375 -0.515625 0.59375 -0.265625 C 0.59375 0 0.8125 0 0.921875 0 L 3.328125 0 C 3.4375 0 3.671875 0 3.671875 -0.25 Z M 2.5 -4.4375 C 2.5 -4.65625 2.328125 -4.84375 2.09375 -4.84375 C 1.875 -4.84375 1.6875 -4.65625 1.6875 -4.4375 C 1.6875 -4.21875 1.875 -4.03125 2.09375 -4.03125 C 2.328125 -4.03125 2.5 -4.21875 2.5 -4.4375 Z M 2.5 -4.4375 "/>
</g>
<g id="glyph-2-4">
<path d="M 3.90625 -1.71875 C 3.90625 -2.671875 3.21875 -3.484375 2.328125 -3.484375 C 1.953125 -3.484375 1.625 -3.34375 1.34375 -3.109375 C 1.34375 -3.40625 1.234375 -3.4375 1 -3.4375 L 0.40625 -3.4375 C 0.28125 -3.4375 0.0625 -3.4375 0.0625 -3.1875 C 0.0625 -2.921875 0.28125 -2.921875 0.40625 -2.921875 L 0.75 -2.921875 L 0.75 1.25 L 0.40625 1.25 C 0.28125 1.25 0.0625 1.25 0.0625 1.515625 C 0.0625 1.765625 0.28125 1.765625 0.40625 1.765625 L 1.6875 1.765625 C 1.796875 1.765625 2.03125 1.765625 2.03125 1.515625 C 2.03125 1.25 1.8125 1.25 1.6875 1.25 L 1.34375 1.25 L 1.34375 -0.34375 C 1.59375 -0.109375 1.90625 0.046875 2.25 0.046875 C 3.140625 0.046875 3.90625 -0.71875 3.90625 -1.71875 Z M 3.328125 -1.71875 C 3.328125 -1.015625 2.796875 -0.484375 2.21875 -0.484375 C 1.65625 -0.484375 1.34375 -1.125 1.34375 -1.546875 L 1.34375 -2.09375 C 1.34375 -2.578125 1.8125 -2.96875 2.296875 -2.96875 C 2.84375 -2.96875 3.328125 -2.421875 3.328125 -1.71875 Z M 3.328125 -1.71875 "/>
</g>
<g id="glyph-2-5">
<path d="M 4.125 -0.25 C 4.125 -0.515625 3.9375 -0.515625 3.671875 -0.515625 L 3.671875 -2.40625 C 3.671875 -2.59375 3.671875 -3.484375 2.953125 -3.484375 C 2.875 -3.484375 2.484375 -3.484375 2.15625 -3.078125 C 2.140625 -3.109375 2 -3.484375 1.5625 -3.484375 C 1.375 -3.484375 1.125 -3.421875 0.890625 -3.203125 C 0.859375 -3.4375 0.6875 -3.4375 0.546875 -3.4375 L 0.28125 -3.4375 C 0.171875 -3.4375 -0.046875 -3.4375 -0.046875 -3.1875 C -0.046875 -2.921875 0.125 -2.921875 0.40625 -2.921875 L 0.40625 -0.515625 C 0.125 -0.515625 -0.046875 -0.515625 -0.046875 -0.25 C -0.046875 0 0.171875 0 0.28125 0 L 1 0 C 1.125 0 1.34375 0 1.34375 -0.25 C 1.34375 -0.515625 1.171875 -0.515625 0.890625 -0.515625 L 0.890625 -1.921875 C 0.890625 -2.59375 1.21875 -2.96875 1.53125 -2.96875 C 1.6875 -2.96875 1.796875 -2.84375 1.796875 -2.359375 L 1.796875 -0.515625 C 1.71875 -0.515625 1.5 -0.515625 1.5 -0.265625 C 1.5 0 1.703125 0 1.828125 0 L 2.390625 0 C 2.515625 0 2.734375 0 2.734375 -0.25 C 2.734375 -0.515625 2.5625 -0.515625 2.28125 -0.515625 L 2.28125 -1.921875 C 2.28125 -2.59375 2.609375 -2.96875 2.921875 -2.96875 C 3.078125 -2.96875 3.1875 -2.84375 3.1875 -2.359375 L 3.1875 -0.515625 C 3.109375 -0.515625 2.875 -0.515625 2.875 -0.265625 C 2.875 0 3.09375 0 3.21875 0 L 3.78125 0 C 3.90625 0 4.125 0 4.125 -0.25 Z M 4.125 -0.25 "/>
</g>
<g id="glyph-2-6">
<path d="M 3.75 -1.71875 C 3.75 -2.71875 3 -3.5 2.09375 -3.5 C 1.1875 -3.5 0.4375 -2.71875 0.4375 -1.71875 C 0.4375 -0.734375 1.203125 0.046875 2.09375 0.046875 C 2.984375 0.046875 3.75 -0.734375 3.75 -1.71875 Z M 3.15625 -1.78125 C 3.15625 -1.0625 2.671875 -0.484375 2.09375 -0.484375 C 1.515625 -0.484375 1.03125 -1.0625 1.03125 -1.78125 C 1.03125 -2.484375 1.546875 -2.984375 2.09375 -2.984375 C 2.65625 -2.984375 3.15625 -2.484375 3.15625 -1.78125 Z M 3.15625 -1.78125 "/>
</g>
<g id="glyph-2-7">
<path d="M 4.125 -0.25 C 4.125 -0.515625 3.90625 -0.515625 3.78125 -0.515625 L 3.4375 -0.515625 L 3.4375 -4.546875 C 3.4375 -4.8125 3.375 -4.875 3.09375 -4.875 L 2.484375 -4.875 C 2.375 -4.875 2.15625 -4.875 2.15625 -4.625 C 2.15625 -4.359375 2.375 -4.359375 2.484375 -4.359375 L 2.84375 -4.359375 L 2.84375 -3.140625 C 2.671875 -3.296875 2.34375 -3.484375 1.921875 -3.484375 C 1.03125 -3.484375 0.265625 -2.71875 0.265625 -1.71875 C 0.265625 -0.734375 0.984375 0.046875 1.859375 0.046875 C 2.21875 0.046875 2.5625 -0.09375 2.84375 -0.390625 C 2.84375 -0.140625 2.84375 0 3.171875 0 L 3.78125 0 C 3.890625 0 4.125 0 4.125 -0.25 Z M 2.84375 -1.5625 C 2.84375 -1.125 2.484375 -0.484375 1.890625 -0.484375 C 1.328125 -0.484375 0.859375 -1.015625 0.859375 -1.71875 C 0.859375 -2.421875 1.375 -2.96875 1.96875 -2.96875 C 2.4375 -2.96875 2.84375 -2.546875 2.84375 -2.109375 Z M 2.84375 -1.5625 "/>
</g>
<g id="glyph-2-8">
<path d="M 3.765625 -0.25 C 3.765625 -0.515625 3.546875 -0.515625 3.421875 -0.515625 L 2.390625 -0.515625 L 2.390625 -4.546875 C 2.390625 -4.8125 2.328125 -4.875 2.046875 -4.875 L 0.765625 -4.875 C 0.640625 -4.875 0.421875 -4.875 0.421875 -4.625 C 0.421875 -4.359375 0.625 -4.359375 0.765625 -4.359375 L 1.796875 -4.359375 L 1.796875 -0.515625 L 0.765625 -0.515625 C 0.640625 -0.515625 0.421875 -0.515625 0.421875 -0.265625 C 0.421875 0 0.625 0 0.765625 0 L 3.421875 0 C 3.546875 0 3.765625 0 3.765625 -0.25 Z M 3.765625 -0.25 "/>
</g>
<g id="glyph-2-9">
<path d="M 3.578125 -1.03125 C 3.578125 -1.3125 3.375 -1.3125 3.296875 -1.3125 C 3.15625 -1.3125 3 -1.296875 3 -1.03125 C 2.984375 -0.65625 2.65625 -0.484375 2.390625 -0.484375 C 1.796875 -0.484375 1.796875 -0.90625 1.796875 -1.109375 L 1.796875 -2.921875 L 3.0625 -2.921875 C 3.171875 -2.921875 3.40625 -2.921875 3.40625 -3.171875 C 3.40625 -3.4375 3.1875 -3.4375 3.0625 -3.4375 L 1.796875 -3.4375 L 1.796875 -4.09375 C 1.796875 -4.234375 1.796875 -4.421875 1.5 -4.421875 C 1.203125 -4.421875 1.203125 -4.234375 1.203125 -4.078125 L 1.203125 -3.4375 L 0.546875 -3.4375 C 0.421875 -3.4375 0.203125 -3.4375 0.203125 -3.171875 C 0.203125 -2.921875 0.421875 -2.921875 0.53125 -2.921875 L 1.203125 -2.921875 L 1.203125 -1.0625 C 1.203125 -0.234375 1.78125 0.046875 2.34375 0.046875 C 3.03125 0.046875 3.578125 -0.4375 3.578125 -1.03125 Z M 3.578125 -1.03125 "/>
</g>
</g>
<clipPath id="clip-0">
<path clip-rule="nonzero" d="M 1.804688 6 L 72 6 L 72 39 L 1.804688 39 Z M 1.804688 6 "/>
</clipPath>
<clipPath id="clip-1">
<path clip-rule="nonzero" d="M 257 6 L 326.992188 6 L 326.992188 39 L 257 39 Z M 257 6 "/>
</clipPath>
</defs>
<path fill="none" stroke-width="0.3985" stroke-linecap="butt" stroke-linejoin="miter" stroke="rgb(0%, 44.706726%, 69.802856%)" stroke-opacity="1" stroke-dasharray="2.98883 2.98883" stroke-miterlimit="10" d="M 209.509854 19.808681 L 51.784878 19.808681 C 49.584267 19.808681 47.802443 18.022907 47.802443 15.822295 L 47.802443 -15.823841 C 47.802443 -18.024452 49.584267 -19.810227 51.784878 -19.810227 L 209.509854 -19.810227 C 211.710466 -19.810227 213.49624 -18.024452 213.49624 -15.823841 L 213.49624 15.822295 C 213.49624 18.022907 211.710466 19.808681 209.509854 19.808681 Z M 209.509854 19.808681 " transform="matrix(0.988717, 0, 0, -0.988717, 35.225209, 22.737517)"/>
<g fill="rgb(0%, 44.706726%, 69.802856%)" fill-opacity="1">
<use xlink:href="#glyph-0-0" x="116.001383" y="50.970322"/>
</g>
<g fill="rgb(0%, 44.706726%, 69.802856%)" fill-opacity="1">
<use xlink:href="#glyph-0-1" x="122.035388" y="50.970322"/>
<use xlink:href="#glyph-0-2" x="126.379332" y="50.970322"/>
<use xlink:href="#glyph-0-3" x="129.970089" y="50.970322"/>
<use xlink:href="#glyph-0-4" x="134.555166" y="50.970322"/>
<use xlink:href="#glyph-0-1" x="139.382086" y="50.970322"/>
</g>
<g fill="rgb(0%, 44.706726%, 69.802856%)" fill-opacity="1">
<use xlink:href="#glyph-0-0" x="143.484897" y="50.970322"/>
</g>
<g fill="rgb(0%, 44.706726%, 69.802856%)" fill-opacity="1">
<use xlink:href="#glyph-0-5" x="152.653633" y="50.970322"/>
<use xlink:href="#glyph-0-6" x="156.032335" y="50.970322"/>
<use xlink:href="#glyph-0-7" x="160.859255" y="50.970322"/>
<use xlink:href="#glyph-0-8" x="165.686175" y="50.970322"/>
</g>
<g fill="rgb(0%, 44.706726%, 69.802856%)" fill-opacity="1">
<use xlink:href="#glyph-0-9" x="172.803151" y="50.970322"/>
<use xlink:href="#glyph-0-1" x="176.23008" y="50.970322"/>
<use xlink:href="#glyph-0-10" x="180.574024" y="50.970322"/>
<use xlink:href="#glyph-0-8" x="182.987484" y="50.970322"/>
</g>
<g fill="rgb(0%, 44.706726%, 69.802856%)" fill-opacity="1">
<use xlink:href="#glyph-0-11" x="190.111552" y="50.970322"/>
<use xlink:href="#glyph-0-12" x="194.938472" y="50.970322"/>
<use xlink:href="#glyph-0-13" x="197.351932" y="50.970322"/>
<use xlink:href="#glyph-0-14" x="201.331339" y="50.970322"/>
<use xlink:href="#glyph-0-8" x="205.192307" y="50.970322"/>
<use xlink:href="#glyph-0-15" x="209.415685" y="50.970322"/>
</g>
<path fill-rule="nonzero" fill="rgb(87.998962%, 93.363953%, 96.374512%)" fill-opacity="1" d="M 63.523438 12.160156 L 6.925781 12.160156 C 5.839844 12.160156 4.957031 13.039062 4.957031 14.128906 L 4.957031 31.347656 C 4.957031 32.433594 5.839844 33.316406 6.925781 33.316406 L 63.523438 33.316406 C 64.613281 33.316406 65.492188 32.433594 65.492188 31.347656 L 65.492188 14.128906 C 65.492188 13.039062 64.613281 12.160156 63.523438 12.160156 Z M 63.523438 12.160156 "/>
<g clip-path="url(#clip-0)">
<path fill="none" stroke-width="0.3985" stroke-linecap="butt" stroke-linejoin="miter" stroke="rgb(39.99939%, 66.822815%, 81.881714%)" stroke-opacity="1" stroke-miterlimit="10" d="M 28.621171 10.698071 L -28.622384 10.698071 C -29.720714 10.698071 -30.613601 9.809134 -30.613601 8.706853 L -30.613601 -8.708399 C -30.613601 -9.806729 -29.720714 -10.699616 -28.622384 -10.699616 L 28.621171 -10.699616 C 29.723452 -10.699616 30.612388 -9.806729 30.612388 -8.708399 L 30.612388 8.706853 C 30.612388 9.809134 29.723452 10.698071 28.621171 10.698071 Z M 28.621171 10.698071 " transform="matrix(0.988717, 0, 0, -0.988717, 35.225209, 22.737517)"/>
</g>
<g fill="rgb(0%, 0%, 0%)" fill-opacity="1">
<use xlink:href="#glyph-1-0" x="25.635448" y="20.6097"/>
<use xlink:href="#glyph-1-1" x="30.19129" y="20.6097"/>
<use xlink:href="#glyph-1-2" x="34.291547" y="20.6097"/>
<use xlink:href="#glyph-1-3" x="37.480636" y="20.6097"/>
<use xlink:href="#glyph-1-4" x="41.580893" y="20.6097"/>
</g>
<g fill="rgb(0%, 0%, 0%)" fill-opacity="1">
<use xlink:href="#glyph-1-5" x="21.887421" y="30.361511"/>
<use xlink:href="#glyph-1-6" x="25.535286" y="30.361511"/>
</g>
<g fill="rgb(0%, 0%, 0%)" fill-opacity="1">
<use xlink:href="#glyph-1-2" x="29.859745" y="30.361511"/>
<use xlink:href="#glyph-1-7" x="33.048833" y="30.361511"/>
<use xlink:href="#glyph-1-5" x="36.256273" y="30.361511"/>
<use xlink:href="#glyph-1-6" x="39.904138" y="30.361511"/>
<use xlink:href="#glyph-1-1" x="44.459979" y="30.361511"/>
</g>
<path fill-rule="nonzero" fill="rgb(87.998962%, 93.363953%, 96.374512%)" fill-opacity="1" stroke-width="0.3985" stroke-linecap="butt" stroke-linejoin="miter" stroke="rgb(39.99939%, 66.822815%, 81.881714%)" stroke-opacity="1" stroke-miterlimit="10" d="M 115.721136 11.12476 L 58.477582 11.12476 C 57.375301 11.12476 56.486364 10.231873 56.486364 9.133543 L 56.486364 -9.135088 C 56.486364 -10.233419 57.375301 -11.126306 58.477582 -11.126306 L 115.721136 -11.126306 C 116.819466 -11.126306 117.712354 -10.233419 117.712354 -9.135088 L 117.712354 9.133543 C 117.712354 10.231873 116.819466 11.12476 115.721136 11.12476 Z M 115.721136 11.12476 " transform="matrix(0.988717, 0, 0, -0.988717, 35.225209, 22.737517)"/>
<g fill="rgb(0%, 0%, 0%)" fill-opacity="1">
<use xlink:href="#glyph-2-0" x="108.774557" y="19.479597"/>
<use xlink:href="#glyph-2-1" x="112.963377" y="19.479597"/>
<use xlink:href="#glyph-2-2" x="117.152198" y="19.479597"/>
<use xlink:href="#glyph-2-3" x="121.341019" y="19.479597"/>
<use xlink:href="#glyph-2-4" x="125.52984" y="19.479597"/>
<use xlink:href="#glyph-2-1" x="129.71866" y="19.479597"/>
</g>
<g fill="rgb(0%, 0%, 0%)" fill-opacity="1">
<use xlink:href="#glyph-1-8" x="102.276019" y="29.231408"/>
<use xlink:href="#glyph-1-7" x="106.83186" y="29.231408"/>
<use xlink:href="#glyph-1-5" x="110.0393" y="29.231408"/>
<use xlink:href="#glyph-1-8" x="113.687164" y="29.231408"/>
<use xlink:href="#glyph-1-7" x="118.243005" y="29.231408"/>
<use xlink:href="#glyph-1-3" x="121.450445" y="29.231408"/>
</g>
<g fill="rgb(0%, 0%, 0%)" fill-opacity="1">
<use xlink:href="#glyph-1-9" x="125.782085" y="29.231408"/>
</g>
<g fill="rgb(0%, 0%, 0%)" fill-opacity="1">
<use xlink:href="#glyph-1-5" x="129.418779" y="29.231408"/>
<use xlink:href="#glyph-1-4" x="133.066644" y="29.231408"/>
<use xlink:href="#glyph-1-1" x="136.301211" y="29.231408"/>
</g>
<path fill-rule="nonzero" fill="rgb(87.998962%, 93.363953%, 96.374512%)" fill-opacity="1" stroke-width="0.3985" stroke-linecap="butt" stroke-linejoin="miter" stroke="rgb(39.99939%, 66.822815%, 81.881714%)" stroke-opacity="1" stroke-miterlimit="10" d="M 202.821101 11.12476 L 145.577547 11.12476 C 144.475266 11.12476 143.582379 10.231873 143.582379 9.133543 L 143.582379 -9.135088 C 143.582379 -10.233419 144.475266 -11.126306 145.577547 -11.126306 L 202.821101 -11.126306 C 203.919432 -11.126306 204.812319 -10.233419 204.812319 -9.135088 L 204.812319 9.133543 C 204.812319 10.231873 203.919432 11.12476 202.821101 11.12476 Z M 202.821101 11.12476 " transform="matrix(0.988717, 0, 0, -0.988717, 35.225209, 22.737517)"/>
<g fill="rgb(0%, 0%, 0%)" fill-opacity="1">
<use xlink:href="#glyph-2-5" x="196.983507" y="19.479597"/>
<use xlink:href="#glyph-2-6" x="201.172328" y="19.479597"/>
<use xlink:href="#glyph-2-7" x="205.361149" y="19.479597"/>
<use xlink:href="#glyph-2-1" x="209.54997" y="19.479597"/>
<use xlink:href="#glyph-2-8" x="213.73879" y="19.479597"/>
</g>
<g fill="rgb(0%, 0%, 0%)" fill-opacity="1">
<use xlink:href="#glyph-1-1" x="193.320015" y="29.231408"/>
<use xlink:href="#glyph-1-8" x="197.420273" y="29.231408"/>
<use xlink:href="#glyph-1-7" x="201.976114" y="29.231408"/>
<use xlink:href="#glyph-1-5" x="205.183554" y="29.231408"/>
<use xlink:href="#glyph-1-6" x="208.831418" y="29.231408"/>
<use xlink:href="#glyph-1-0" x="213.387259" y="29.231408"/>
<use xlink:href="#glyph-1-5" x="217.943101" y="29.231408"/>
</g>
<path fill-rule="nonzero" fill="rgb(97.033691%, 88.633728%, 81.999207%)" fill-opacity="1" d="M 321.871094 12.511719 L 265.273438 12.511719 C 264.1875 12.511719 263.304688 13.394531 263.304688 14.484375 L 263.304688 30.992188 C 263.304688 32.078125 264.1875 32.960938 265.273438 32.960938 L 321.871094 32.960938 C 322.960938 32.960938 323.84375 32.078125 323.84375 30.992188 L 323.84375 14.484375 C 323.84375 13.394531 322.960938 12.511719 321.871094 12.511719 Z M 321.871094 12.511719 "/>
<g clip-path="url(#clip-1)">
<path fill="none" stroke-width="0.3985" stroke-linecap="butt" stroke-linejoin="miter" stroke="rgb(88.468933%, 55.802917%, 29.998779%)" stroke-opacity="1" stroke-miterlimit="10" d="M 289.917116 10.342496 L 232.673562 10.342496 C 231.575231 10.342496 230.682344 9.449609 230.682344 8.347328 L 230.682344 -8.348873 C 230.682344 -9.447204 231.575231 -10.340091 232.673562 -10.340091 L 289.917116 -10.340091 C 291.019397 -10.340091 291.912285 -9.447204 291.912285 -8.348873 L 291.912285 8.347328 C 291.912285 9.449609 291.019397 10.342496 289.917116 10.342496 Z M 289.917116 10.342496 " transform="matrix(0.988717, 0, 0, -0.988717, 35.225209, 22.737517)"/>
</g>
<g fill="rgb(0%, 0%, 0%)" fill-opacity="1">
<use xlink:href="#glyph-2-4" x="278.909262" y="20.255739"/>
<use xlink:href="#glyph-2-0" x="283.098083" y="20.255739"/>
<use xlink:href="#glyph-2-1" x="287.286904" y="20.255739"/>
<use xlink:href="#glyph-2-7" x="291.475725" y="20.255739"/>
<use xlink:href="#glyph-2-3" x="295.664545" y="20.255739"/>
<use xlink:href="#glyph-2-2" x="299.853366" y="20.255739"/>
<use xlink:href="#glyph-2-9" x="304.042187" y="20.255739"/>
</g>
<g fill="rgb(0%, 0%, 0%)" fill-opacity="1">
<use xlink:href="#glyph-1-5" x="281.472016" y="30.007551"/>
<use xlink:href="#glyph-1-6" x="285.11988" y="30.007551"/>
</g>
<g fill="rgb(0%, 0%, 0%)" fill-opacity="1">
<use xlink:href="#glyph-1-2" x="292.412418" y="30.007551"/>
</g>
<g fill="rgb(0%, 0%, 0%)" fill-opacity="1">
<use xlink:href="#glyph-1-5" x="295.593528" y="30.007551"/>
<use xlink:href="#glyph-1-4" x="299.241393" y="30.007551"/>
<use xlink:href="#glyph-1-2" x="302.47596" y="30.007551"/>
</g>
<path fill="none" stroke-width="0.79701" stroke-linecap="butt" stroke-linejoin="miter" stroke="rgb(0%, 0%, 0%)" stroke-opacity="1" stroke-miterlimit="10" d="M 30.794126 -0.000772786 L 51.848091 -0.000772786 " transform="matrix(0.988717, 0, 0, -0.988717, 35.225209, 22.737517)"/>
<path fill-rule="nonzero" fill="rgb(0%, 0%, 0%)" fill-opacity="1" stroke-width="0.79701" stroke-linecap="butt" stroke-linejoin="miter" stroke="rgb(0%, 0%, 0%)" stroke-opacity="1" stroke-miterlimit="10" d="M 5.952168 -0.000772786 L 1.28624 1.761297 L 2.831014 -0.000772786 L 1.28624 -1.762842 Z M 5.952168 -0.000772786 " transform="matrix(0.988717, 0, 0, -0.988717, 83.88843, 22.737517)"/>
<path fill="none" stroke-width="0.79701" stroke-linecap="butt" stroke-linejoin="miter" stroke="rgb(0%, 0%, 0%)" stroke-opacity="1" stroke-miterlimit="10" d="M 117.894092 -0.000772786 L 138.948057 -0.000772786 " transform="matrix(0.988717, 0, 0, -0.988717, 35.225209, 22.737517)"/>
<path fill-rule="nonzero" fill="rgb(0%, 0%, 0%)" fill-opacity="1" stroke-width="0.79701" stroke-linecap="butt" stroke-linejoin="miter" stroke="rgb(0%, 0%, 0%)" stroke-opacity="1" stroke-miterlimit="10" d="M 5.953624 -0.000772786 L 1.287695 1.761297 L 2.828518 -0.000772786 L 1.287695 -1.762842 Z M 5.953624 -0.000772786 " transform="matrix(0.988717, 0, 0, -0.988717, 170.004178, 22.737517)"/>
<path fill="none" stroke-width="0.79701" stroke-linecap="butt" stroke-linejoin="miter" stroke="rgb(0%, 0%, 0%)" stroke-opacity="1" stroke-miterlimit="10" d="M 204.990106 -0.000772786 L 226.048022 -0.000772786 " transform="matrix(0.988717, 0, 0, -0.988717, 35.225209, 22.737517)"/>
<path fill-rule="nonzero" fill="rgb(0%, 0%, 0%)" fill-opacity="1" stroke-width="0.79701" stroke-linecap="butt" stroke-linejoin="miter" stroke="rgb(0%, 0%, 0%)" stroke-opacity="1" stroke-miterlimit="10" d="M 5.951468 -0.000772786 L 1.28554 1.761297 L 2.830314 -0.000772786 L 1.28554 -1.762842 Z M 5.951468 -0.000772786 " transform="matrix(0.988717, 0, 0, -0.988717, 256.11959, 22.737517)"/>
</svg>
